<svg width="62" height="60" viewBox="0 0 62 60" fill="none" xmlns="http://www.w3.org/2000/svg">
<path d="M26.1224 2.72522C29.1536 1.03162 32.8464 1.03162 35.8776 2.72522L52.7244 12.138C55.8872 13.9051 57.8468 17.2447 57.8468 20.8678V39.1322C57.8468 42.7552 55.8872 46.0949 52.7244 47.862L35.8776 57.2748C32.8464 58.9684 29.1536 58.9684 26.1224 57.2748L9.27565 47.862C6.11283 46.0949 4.15321 42.7552 4.15321 39.1322V20.8678C4.15321 17.2448 6.11283 13.9051 9.27565 12.138L26.1224 2.72522Z" fill="#ED7458"/>
<path d="M19.6176 35.4668C19.8669 35.7942 19.9422 36.203 20.1131 36.5597C20.5186 37.4055 21.0667 37.996 21.9542 38.5774C24.4293 40.1988 28.1741 41.2706 31.4823 41.4469C33.1944 41.5381 34.9461 41.1442 36.6004 40.7958C38.2362 40.4513 39.0772 40.0401 40.3192 39.1445C42.246 37.7552 43.22 36.4689 43.8319 34.5336C44.0401 33.8752 44.2414 33.2087 44.4425 32.5582" stroke="white" stroke-width="4" stroke-linecap="round"/>
<path d="M14.3615 27.5648V27.5648C15.1356 20.9574 23.9719 19.3062 27.1822 25.169V25.169" stroke="white" stroke-width="4" stroke-linecap="round"/>
<path d="M34.6922 24.3178V24.3178C36.6907 17.9534 45.6822 17.9101 47.7446 24.2551V24.2551" stroke="white" stroke-width="4" stroke-linecap="round"/>
</svg>