<svg width="120" height="100" viewBox="0 0 120 100" fill="none" xmlns="http://www.w3.org/2000/svg">
<path d="M0 0H120V100H0V0Z" fill="#F45353"/>
<path d="M60 29L62.0206 35.2188H68.5595L63.2694 39.0623L65.2901 45.2812L60 41.4377L54.7099 45.2812L56.7306 39.0623L51.4405 35.2188H57.9794L60 29Z" fill="#FAFF0D"/>
<path d="M35.2241 29.32H40.0041V30.68H35.2241V29.32ZM39.4241 29.32H41.0241V29.86C41.0241 30.94 41.0241 33.18 40.1841 36.26L38.5641 36.06C39.4241 33.02 39.4241 30.96 39.4241 29.86V29.32ZM42.3641 29.32H47.2441V30.68H42.3641V29.32ZM46.4841 29.32H48.0841V30.06C48.0841 31.24 48.0841 33.36 47.3641 36.34L45.7441 36.12C46.4841 33.2 46.4841 31.24 46.4841 30.06V29.32ZM33.6441 35.58H50.0441V36.92H33.6441V35.58ZM40.9841 36.62H42.6241V40.58H40.9841V36.62ZM35.7041 39.96H47.9441V46.32H35.7041V39.96ZM46.3241 41.3H37.3241V44.96H46.3241V41.3ZM68.9175 37.98H85.2575V39.34H68.9175V37.98ZM71.0375 44.8H83.4575V46.16H71.0375V44.8ZM71.0375 40.92H72.6975V45.22H71.0375V40.92ZM77.0975 29.08C80.9575 29.08 83.4575 30.44 83.4575 32.7C83.4575 34.94 80.9575 36.3 77.0975 36.3C73.2175 36.3 70.7375 34.94 70.7375 32.7C70.7375 30.44 73.2175 29.08 77.0975 29.08ZM77.0975 30.44C74.2575 30.44 72.4375 31.28 72.4375 32.7C72.4375 34.12 74.2575 34.96 77.0975 34.96C79.9375 34.96 81.7575 34.12 81.7575 32.7C81.7575 31.28 79.9375 30.44 77.0975 30.44ZM27.6239 52.46H29.2839V70.58H27.6239V52.46ZM19.7439 53.86C22.4239 53.86 24.3439 56.32 24.3439 60.16C24.3439 64.02 22.4239 66.48 19.7439 66.48C17.0839 66.48 15.1639 64.02 15.1639 60.16C15.1639 56.32 17.0839 53.86 19.7439 53.86ZM19.7439 55.36C17.9839 55.36 16.7439 57.24 16.7439 60.16C16.7439 63.1 17.9839 65.02 19.7439 65.02C21.5239 65.02 22.7439 63.1 22.7439 60.16C22.7439 57.24 21.5239 55.36 19.7439 55.36ZM34.8423 53.2H47.2823V57.92H36.5623V61.04H34.8823V56.64H45.6223V54.54H34.8423V53.2ZM34.8823 60.22H47.7023V61.58H34.8823V60.22ZM32.8823 63.44H49.2823V64.82H32.8823V63.44ZM40.2223 63.96H41.8623V70.58H40.2223V63.96ZM56.1208 53.86C58.7408 53.86 60.6208 56.32 60.6208 60.16C60.6208 64.02 58.7408 66.48 56.1208 66.48C53.4808 66.48 51.6208 64.02 51.6208 60.16C51.6208 56.32 53.4808 53.86 56.1208 53.86ZM56.1208 55.36C54.3808 55.36 53.2008 57.24 53.2008 60.16C53.2008 63.1 54.3808 65.02 56.1208 65.02C57.8608 65.02 59.0408 63.1 59.0408 60.16C59.0408 57.24 57.8608 55.36 56.1208 55.36ZM64.5408 52.46H66.1808V70.58H64.5408V52.46ZM60.0808 59.36H65.2608V60.72H60.0808V59.36ZM74.4992 54.46H75.8792V56.3C75.8792 59.62 73.8392 62.4 70.7992 63.5L69.9392 62.18C72.6592 61.22 74.4992 58.88 74.4992 56.3V54.46ZM74.8192 54.46H76.1992V56.3C76.1992 58.74 78.0792 60.94 80.7592 61.84L79.8992 63.14C76.8992 62.12 74.8192 59.48 74.8192 56.3V54.46ZM70.3792 53.98H80.2792V55.32H70.3792V53.98ZM82.8392 52.5H84.5192V65.72H82.8392V52.5ZM72.8992 68.8H85.0592V70.16H72.8992V68.8ZM72.8992 64.48H74.5392V69.4H72.8992V64.48ZM100.318 52.46H101.998V70.58H100.318V52.46ZM101.598 59.6H104.958V61H101.598V59.6ZM88.8577 64.68H90.2777C93.6177 64.68 95.9577 64.56 98.6577 64.06L98.8377 65.46C96.0577 65.98 93.6777 66.08 90.2777 66.08H88.8577V64.68ZM88.8577 54.22H97.2577V55.58H90.4977V65.3H88.8577V54.22Z" fill="white"/>
</svg>
