<svg width="120" height="100" viewBox="0 0 120 100" fill="none" xmlns="http://www.w3.org/2000/svg">
<path d="M0 0H120V100H0V0Z" fill="#4E7FC8"/>
<mask id="path-2-outside-1_153_6" maskUnits="userSpaceOnUse" x="16" y="28" width="88" height="46" fill="black">
<rect fill="white" x="16" y="28" width="88" height="46"/>
<path d="M29.3253 44L25.348 29.4545H27.1378L30.1776 41.3011H30.3196L33.4162 29.4545H35.4048L38.5014 41.3011H38.6435L41.6832 29.4545H43.473L39.4957 44H37.6776L34.4673 32.4091H34.3537L31.1435 44H29.3253ZM47.1165 37.4375V44H45.4403V29.4545H47.1165V34.7955H47.2585C47.5142 34.232 47.8977 33.7846 48.4091 33.4531C48.9252 33.117 49.6117 32.9489 50.4688 32.9489C51.2121 32.9489 51.8632 33.098 52.4219 33.3963C52.9806 33.6899 53.4138 34.142 53.7216 34.7528C54.0341 35.3589 54.1903 36.1307 54.1903 37.0682V44H52.5142V37.1818C52.5142 36.3153 52.2893 35.6454 51.8395 35.1719C51.3944 34.6937 50.7765 34.4545 49.9858 34.4545C49.4366 34.4545 48.9441 34.5705 48.5085 34.8026C48.0777 35.0346 47.7367 35.3731 47.4858 35.8182C47.2396 36.2633 47.1165 36.803 47.1165 37.4375ZM60.467 44.2557C59.7757 44.2557 59.1483 44.1255 58.5849 43.8651C58.0214 43.5999 57.574 43.2188 57.2425 42.7216C56.9111 42.2197 56.7454 41.6136 56.7454 40.9034C56.7454 40.2784 56.8685 39.7718 57.1147 39.3835C57.3609 38.9905 57.69 38.6828 58.1019 38.4602C58.5138 38.2377 58.9684 38.072 59.4656 37.9631C59.9674 37.8494 60.4717 37.7595 60.9783 37.6932C61.6412 37.608 62.1786 37.544 62.5906 37.5014C63.0072 37.4541 63.3103 37.3759 63.4996 37.267C63.6938 37.1581 63.7908 36.9687 63.7908 36.6989V36.642C63.7908 35.9413 63.5991 35.3968 63.2156 35.0085C62.8368 34.6203 62.2615 34.4261 61.4897 34.4261C60.6895 34.4261 60.0621 34.6013 59.6076 34.9517C59.1531 35.3021 58.8335 35.6761 58.6488 36.0739L57.0579 35.5057C57.342 34.8428 57.7208 34.3267 58.1942 33.9574C58.6725 33.5833 59.1933 33.3229 59.7567 33.1761C60.3249 33.0246 60.8836 32.9489 61.4329 32.9489C61.7833 32.9489 62.1857 32.9915 62.6403 33.0767C63.0996 33.1572 63.5423 33.3253 63.9684 33.581C64.3993 33.8366 64.7567 34.2225 65.0408 34.7386C65.3249 35.2547 65.467 35.946 65.467 36.8125V44H63.7908V42.5227H63.7056C63.592 42.7595 63.4026 43.0128 63.1374 43.2827C62.8723 43.5526 62.5195 43.7822 62.0792 43.9716C61.6388 44.161 61.1014 44.2557 60.467 44.2557ZM60.7227 42.75C61.3855 42.75 61.9442 42.6198 62.3988 42.3594C62.8581 42.099 63.2037 41.7628 63.4357 41.3509C63.6725 40.9389 63.7908 40.5057 63.7908 40.0511V38.517C63.7198 38.6023 63.5636 38.6804 63.3221 38.7514C63.0853 38.8177 62.8107 38.8769 62.4982 38.929C62.1905 38.9763 61.8898 39.0189 61.5962 39.0568C61.3074 39.09 61.073 39.1184 60.8931 39.142C60.4575 39.1989 60.0503 39.2912 59.6715 39.419C59.2975 39.5421 58.9944 39.7292 58.7624 39.9801C58.5352 40.2263 58.4215 40.5625 58.4215 40.9886C58.4215 41.571 58.637 42.0114 59.0678 42.3097C59.5034 42.6032 60.055 42.75 60.7227 42.75ZM73.2706 33.0909V34.5114H67.6172V33.0909H73.2706ZM69.2649 30.4773H70.9411V40.875C70.9411 41.3485 71.0097 41.7036 71.147 41.9403C71.2891 42.1723 71.469 42.3286 71.6868 42.4091C71.9093 42.4848 72.1437 42.5227 72.3899 42.5227C72.5746 42.5227 72.7261 42.5133 72.8445 42.4943C72.9628 42.4706 73.0575 42.4517 73.1286 42.4375L73.4695 43.9432C73.3558 43.9858 73.1972 44.0284 72.9936 44.071C72.79 44.1184 72.532 44.142 72.2195 44.142C71.746 44.142 71.282 44.0402 70.8274 43.8366C70.3776 43.633 70.0036 43.3229 69.7053 42.9062C69.4117 42.4896 69.2649 41.964 69.2649 41.3295V30.4773ZM81.4169 44V33.0909H83.093V44H81.4169ZM82.2692 31.2727C81.9425 31.2727 81.6607 31.1615 81.424 30.9389C81.192 30.7164 81.076 30.4489 81.076 30.1364C81.076 29.8239 81.192 29.5563 81.424 29.3338C81.6607 29.1113 81.9425 29 82.2692 29C82.5959 29 82.8752 29.1113 83.1072 29.3338C83.344 29.5563 83.4624 29.8239 83.4624 30.1364C83.4624 30.4489 83.344 30.7164 83.1072 30.9389C82.8752 31.1615 82.5959 31.2727 82.2692 31.2727ZM93.8903 35.5341L92.3846 35.9602C92.2899 35.7093 92.1502 35.4654 91.9656 35.2287C91.7856 34.9872 91.5394 34.7884 91.2269 34.6321C90.9144 34.4759 90.5143 34.3977 90.0266 34.3977C89.359 34.3977 88.8027 34.5516 88.3576 34.8594C87.9173 35.1624 87.6971 35.5483 87.6971 36.017C87.6971 36.4337 87.8486 36.7628 88.1516 37.0043C88.4547 37.2457 88.9281 37.447 89.5721 37.608L91.1914 38.0057C92.1668 38.2424 92.8936 38.6046 93.3718 39.0923C93.85 39.5753 94.0891 40.1979 94.0891 40.9602C94.0891 41.5852 93.9092 42.1439 93.5494 42.6364C93.1942 43.1288 92.6971 43.517 92.0579 43.8011C91.4187 44.0852 90.6753 44.2273 89.8278 44.2273C88.7151 44.2273 87.7942 43.9858 87.065 43.5028C86.3358 43.0199 85.8742 42.3144 85.68 41.3864L87.271 40.9886C87.4225 41.5758 87.7089 42.0161 88.1303 42.3097C88.5565 42.6032 89.1128 42.75 89.7994 42.75C90.5806 42.75 91.2009 42.5843 91.6602 42.2528C92.1242 41.9167 92.3562 41.5142 92.3562 41.0455C92.3562 40.6667 92.2236 40.3494 91.9585 40.0938C91.6933 39.8333 91.2861 39.6392 90.7369 39.5114L88.9187 39.0852C87.9196 38.8485 87.1857 38.4815 86.717 37.9844C86.253 37.4825 86.021 36.8551 86.021 36.1023C86.021 35.4867 86.1938 34.9422 86.5394 34.4688C86.8898 33.9953 87.3656 33.6236 87.967 33.3537C88.573 33.0838 89.2596 32.9489 90.0266 32.9489C91.1062 32.9489 91.9537 33.1856 92.5692 33.6591C93.1895 34.1326 93.6299 34.7576 93.8903 35.5341ZM17.777 68V53.4545H19.5384V59.9318H27.294V53.4545H29.0554V68H27.294V61.4943H19.5384V68H17.777ZM36.7862 68.2273C35.8014 68.2273 34.9373 67.9929 34.1939 67.5241C33.4553 67.0554 32.8776 66.3996 32.4609 65.5568C32.049 64.714 31.843 63.7292 31.843 62.6023C31.843 61.4659 32.049 60.474 32.4609 59.6264C32.8776 58.7789 33.4553 58.1207 34.1939 57.652C34.9373 57.1832 35.8014 56.9489 36.7862 56.9489C37.7711 56.9489 38.6328 57.1832 39.3714 57.652C40.1148 58.1207 40.6925 58.7789 41.1044 59.6264C41.5211 60.474 41.7294 61.4659 41.7294 62.6023C41.7294 63.7292 41.5211 64.714 41.1044 65.5568C40.6925 66.3996 40.1148 67.0554 39.3714 67.5241C38.6328 67.9929 37.7711 68.2273 36.7862 68.2273ZM36.7862 66.7216C37.5343 66.7216 38.1499 66.5298 38.6328 66.1463C39.1158 65.7628 39.4732 65.2585 39.7053 64.6335C39.9373 64.0085 40.0533 63.3314 40.0533 62.6023C40.0533 61.8731 39.9373 61.1937 39.7053 60.5639C39.4732 59.9342 39.1158 59.4252 38.6328 59.0369C38.1499 58.6487 37.5343 58.4545 36.7862 58.4545C36.0381 58.4545 35.4226 58.6487 34.9396 59.0369C34.4567 59.4252 34.0992 59.9342 33.8672 60.5639C33.6352 61.1937 33.5192 61.8731 33.5192 62.6023C33.5192 63.3314 33.6352 64.0085 33.8672 64.6335C34.0992 65.2585 34.4567 65.7628 34.9396 66.1463C35.4226 66.5298 36.0381 66.7216 36.7862 66.7216ZM44.288 68V57.0909H45.9641V68H44.288ZM45.1403 55.2727C44.8136 55.2727 44.5318 55.1615 44.2951 54.9389C44.0631 54.7164 43.9471 54.4489 43.9471 54.1364C43.9471 53.8239 44.0631 53.5563 44.2951 53.3338C44.5318 53.1113 44.8136 53 45.1403 53C45.467 53 45.7463 53.1113 45.9783 53.3338C46.2151 53.5563 46.3335 53.8239 46.3335 54.1364C46.3335 54.4489 46.2151 54.7164 45.9783 54.9389C45.7463 55.1615 45.467 55.2727 45.1403 55.2727ZM56.7614 59.5341L55.2557 59.9602C55.161 59.7093 55.0213 59.4654 54.8366 59.2287C54.6567 58.9872 54.4105 58.7884 54.098 58.6321C53.7855 58.4759 53.3854 58.3977 52.8977 58.3977C52.2301 58.3977 51.6738 58.5516 51.2287 58.8594C50.7884 59.1624 50.5682 59.5483 50.5682 60.017C50.5682 60.4337 50.7197 60.7628 51.0227 61.0043C51.3258 61.2457 51.7992 61.447 52.4432 61.608L54.0625 62.0057C55.0379 62.2424 55.7647 62.6046 56.2429 63.0923C56.7211 63.5753 56.9602 64.1979 56.9602 64.9602C56.9602 65.5852 56.7803 66.1439 56.4205 66.6364C56.0653 67.1288 55.5682 67.517 54.929 67.8011C54.2898 68.0852 53.5464 68.2273 52.6989 68.2273C51.5862 68.2273 50.6652 67.9858 49.9361 67.5028C49.2069 67.0199 48.7453 66.3144 48.5511 65.3864L50.142 64.9886C50.2936 65.5758 50.58 66.0161 51.0014 66.3097C51.4276 66.6032 51.9839 66.75 52.6705 66.75C53.4517 66.75 54.072 66.5843 54.5312 66.2528C54.9953 65.9167 55.2273 65.5142 55.2273 65.0455C55.2273 64.6667 55.0947 64.3494 54.8295 64.0938C54.5644 63.8333 54.1572 63.6392 53.608 63.5114L51.7898 63.0852C50.7907 62.8485 50.0568 62.4815 49.5881 61.9844C49.1241 61.4825 48.892 60.8551 48.892 60.1023C48.892 59.4867 49.0649 58.9422 49.4105 58.4688C49.7609 57.9953 50.2367 57.6236 50.8381 57.3537C51.4441 57.0838 52.1307 56.9489 52.8977 56.9489C53.9773 56.9489 54.8248 57.1856 55.4403 57.6591C56.0606 58.1326 56.5009 58.7576 56.7614 59.5341ZM64.2276 57.0909V58.5114H58.5742V57.0909H64.2276ZM60.2219 54.4773H61.8981V64.875C61.8981 65.3485 61.9667 65.7036 62.104 65.9403C62.2461 66.1723 62.426 66.3286 62.6438 66.4091C62.8664 66.4848 63.1007 66.5227 63.3469 66.5227C63.5316 66.5227 63.6831 66.5133 63.8015 66.4943C63.9199 66.4706 64.0146 66.4517 64.0856 66.4375L64.4265 67.9432C64.3129 67.9858 64.1542 68.0284 63.9506 68.071C63.747 68.1184 63.489 68.142 63.1765 68.142C62.703 68.142 62.239 68.0402 61.7844 67.8366C61.3346 67.633 60.9606 67.3229 60.6623 66.9062C60.3687 66.4896 60.2219 65.964 60.2219 65.3295V54.4773ZM66.7489 68V57.0909H68.4251V68H66.7489ZM67.6012 55.2727C67.2745 55.2727 66.9928 55.1615 66.756 54.9389C66.524 54.7164 66.408 54.4489 66.408 54.1364C66.408 53.8239 66.524 53.5563 66.756 53.3338C66.9928 53.1113 67.2745 53 67.6012 53C67.9279 53 68.2073 53.1113 68.4393 53.3338C68.676 53.5563 68.7944 53.8239 68.7944 54.1364C68.7944 54.4489 68.676 54.7164 68.4393 54.9389C68.2073 55.1615 67.9279 55.2727 67.6012 55.2727ZM73.1712 61.4375V68H71.495V57.0909H73.1143V58.7955H73.2564C73.5121 58.2415 73.9003 57.7964 74.4212 57.4602C74.942 57.1193 75.6143 56.9489 76.4382 56.9489C77.1768 56.9489 77.8232 57.1004 78.3771 57.4034C78.9311 57.7017 79.362 58.1562 79.6697 58.767C79.9775 59.3731 80.1314 60.1402 80.1314 61.0682V68H78.4553V61.1818C78.4553 60.3248 78.2327 59.6572 77.7876 59.179C77.3426 58.696 76.7318 58.4545 75.9553 58.4545C75.4202 58.4545 74.942 58.5705 74.5206 58.8026C74.1039 59.0346 73.7749 59.3731 73.5334 59.8182C73.2919 60.2633 73.1712 60.803 73.1712 61.4375ZM87.5977 72.3182C86.788 72.3182 86.092 72.214 85.5096 72.0057C84.9272 71.8021 84.4419 71.5322 84.0536 71.196C83.6701 70.8646 83.3647 70.5095 83.1374 70.1307L84.4727 69.1932C84.6242 69.392 84.8159 69.6193 85.0479 69.875C85.2799 70.1354 85.5972 70.3603 85.9996 70.5497C86.4068 70.7438 86.9395 70.8409 87.5977 70.8409C88.4783 70.8409 89.2051 70.6278 89.7781 70.2017C90.351 69.7756 90.6374 69.108 90.6374 68.1989V65.983H90.4954C90.3723 66.1818 90.1971 66.428 89.9698 66.7216C89.7473 67.0104 89.4253 67.2685 89.0039 67.4957C88.5872 67.7183 88.0238 67.8295 87.3136 67.8295C86.4329 67.8295 85.6422 67.6212 84.9414 67.2045C84.2454 66.7879 83.6938 66.1818 83.2866 65.3864C82.8841 64.5909 82.6829 63.625 82.6829 62.4886C82.6829 61.3712 82.8794 60.3982 83.2724 59.5696C83.6654 58.7363 84.2122 58.0923 84.913 57.6378C85.6138 57.1785 86.4234 56.9489 87.342 56.9489C88.0522 56.9489 88.6156 57.0672 89.0323 57.304C89.4537 57.536 89.7757 57.8011 89.9982 58.0994C90.2255 58.393 90.4007 58.6345 90.5238 58.8239H90.6942V57.0909H92.3136V68.3125C92.3136 69.25 92.1005 70.0123 91.6744 70.5994C91.253 71.1913 90.6848 71.6245 89.9698 71.8991C89.2596 72.1785 88.4689 72.3182 87.5977 72.3182ZM87.5408 66.3239C88.2132 66.3239 88.7814 66.17 89.2454 65.8622C89.7094 65.5545 90.0621 65.1117 90.3036 64.5341C90.5451 63.9564 90.6658 63.2652 90.6658 62.4602C90.6658 61.6742 90.5475 60.9806 90.3107 60.3793C90.074 59.7779 89.7236 59.3068 89.2596 58.9659C88.7956 58.625 88.2227 58.4545 87.5408 58.4545C86.8306 58.4545 86.2388 58.6345 85.7653 58.9943C85.2965 59.3542 84.9438 59.8371 84.707 60.4432C84.475 61.0492 84.359 61.7216 84.359 62.4602C84.359 63.2178 84.4774 63.8878 84.7141 64.4702C84.9556 65.0478 85.3107 65.5024 85.7795 65.8338C86.253 66.1605 86.8401 66.3239 87.5408 66.3239ZM97.5692 63.9091V63.8239C97.5787 62.9195 97.6734 62.1998 97.8533 61.6648C98.0333 61.1297 98.2889 60.6965 98.6204 60.3651C98.9518 60.0336 99.3496 59.7282 99.8136 59.4489C100.093 59.2784 100.344 59.0772 100.566 58.8452C100.789 58.6084 100.964 58.3362 101.092 58.0284C101.225 57.7206 101.291 57.3797 101.291 57.0057C101.291 56.5417 101.182 56.1392 100.964 55.7983C100.746 55.4574 100.455 55.1946 100.091 55.0099C99.726 54.8253 99.3211 54.733 98.8761 54.733C98.4878 54.733 98.1138 54.8134 97.7539 54.9744C97.3941 55.1354 97.0934 55.3887 96.8519 55.7344C96.6104 56.08 96.4708 56.5322 96.4329 57.0909H94.6431C94.681 56.286 94.8893 55.5971 95.2681 55.0241C95.6516 54.4512 96.1559 54.0133 96.7809 53.7102C97.4106 53.4072 98.109 53.2557 98.8761 53.2557C99.7094 53.2557 100.434 53.4214 101.049 53.7528C101.67 54.0843 102.148 54.5388 102.484 55.1165C102.825 55.6941 102.995 56.3523 102.995 57.0909C102.995 57.6117 102.915 58.0829 102.754 58.5043C102.598 58.9257 102.37 59.3021 102.072 59.6335C101.779 59.965 101.423 60.2585 101.007 60.5142C100.59 60.7746 100.256 61.0492 100.005 61.3381C99.7544 61.6222 99.5721 61.9607 99.4585 62.3537C99.3448 62.7467 99.2833 63.2367 99.2738 63.8239V63.9091H97.5692ZM98.4783 68.1136C98.128 68.1136 97.8273 67.9882 97.5763 67.7372C97.3254 67.4863 97.1999 67.1856 97.1999 66.8352C97.1999 66.4848 97.3254 66.1842 97.5763 65.9332C97.8273 65.6823 98.128 65.5568 98.4783 65.5568C98.8287 65.5568 99.1294 65.6823 99.3803 65.9332C99.6313 66.1842 99.7567 66.4848 99.7567 66.8352C99.7567 67.0672 99.6976 67.2803 99.5792 67.4744C99.4656 67.6686 99.3117 67.8248 99.1175 67.9432C98.9281 68.0568 98.7151 68.1136 98.4783 68.1136Z"/>
</mask>
<path d="M29.3253 44L25.348 29.4545H27.1378L30.1776 41.3011H30.3196L33.4162 29.4545H35.4048L38.5014 41.3011H38.6435L41.6832 29.4545H43.473L39.4957 44H37.6776L34.4673 32.4091H34.3537L31.1435 44H29.3253ZM47.1165 37.4375V44H45.4403V29.4545H47.1165V34.7955H47.2585C47.5142 34.232 47.8977 33.7846 48.4091 33.4531C48.9252 33.117 49.6117 32.9489 50.4688 32.9489C51.2121 32.9489 51.8632 33.098 52.4219 33.3963C52.9806 33.6899 53.4138 34.142 53.7216 34.7528C54.0341 35.3589 54.1903 36.1307 54.1903 37.0682V44H52.5142V37.1818C52.5142 36.3153 52.2893 35.6454 51.8395 35.1719C51.3944 34.6937 50.7765 34.4545 49.9858 34.4545C49.4366 34.4545 48.9441 34.5705 48.5085 34.8026C48.0777 35.0346 47.7367 35.3731 47.4858 35.8182C47.2396 36.2633 47.1165 36.803 47.1165 37.4375ZM60.467 44.2557C59.7757 44.2557 59.1483 44.1255 58.5849 43.8651C58.0214 43.5999 57.574 43.2188 57.2425 42.7216C56.9111 42.2197 56.7454 41.6136 56.7454 40.9034C56.7454 40.2784 56.8685 39.7718 57.1147 39.3835C57.3609 38.9905 57.69 38.6828 58.1019 38.4602C58.5138 38.2377 58.9684 38.072 59.4656 37.9631C59.9674 37.8494 60.4717 37.7595 60.9783 37.6932C61.6412 37.608 62.1786 37.544 62.5906 37.5014C63.0072 37.4541 63.3103 37.3759 63.4996 37.267C63.6938 37.1581 63.7908 36.9687 63.7908 36.6989V36.642C63.7908 35.9413 63.5991 35.3968 63.2156 35.0085C62.8368 34.6203 62.2615 34.4261 61.4897 34.4261C60.6895 34.4261 60.0621 34.6013 59.6076 34.9517C59.1531 35.3021 58.8335 35.6761 58.6488 36.0739L57.0579 35.5057C57.342 34.8428 57.7208 34.3267 58.1942 33.9574C58.6725 33.5833 59.1933 33.3229 59.7567 33.1761C60.3249 33.0246 60.8836 32.9489 61.4329 32.9489C61.7833 32.9489 62.1857 32.9915 62.6403 33.0767C63.0996 33.1572 63.5423 33.3253 63.9684 33.581C64.3993 33.8366 64.7567 34.2225 65.0408 34.7386C65.3249 35.2547 65.467 35.946 65.467 36.8125V44H63.7908V42.5227H63.7056C63.592 42.7595 63.4026 43.0128 63.1374 43.2827C62.8723 43.5526 62.5195 43.7822 62.0792 43.9716C61.6388 44.161 61.1014 44.2557 60.467 44.2557ZM60.7227 42.75C61.3855 42.75 61.9442 42.6198 62.3988 42.3594C62.8581 42.099 63.2037 41.7628 63.4357 41.3509C63.6725 40.9389 63.7908 40.5057 63.7908 40.0511V38.517C63.7198 38.6023 63.5636 38.6804 63.3221 38.7514C63.0853 38.8177 62.8107 38.8769 62.4982 38.929C62.1905 38.9763 61.8898 39.0189 61.5962 39.0568C61.3074 39.09 61.073 39.1184 60.8931 39.142C60.4575 39.1989 60.0503 39.2912 59.6715 39.419C59.2975 39.5421 58.9944 39.7292 58.7624 39.9801C58.5352 40.2263 58.4215 40.5625 58.4215 40.9886C58.4215 41.571 58.637 42.0114 59.0678 42.3097C59.5034 42.6032 60.055 42.75 60.7227 42.75ZM73.2706 33.0909V34.5114H67.6172V33.0909H73.2706ZM69.2649 30.4773H70.9411V40.875C70.9411 41.3485 71.0097 41.7036 71.147 41.9403C71.2891 42.1723 71.469 42.3286 71.6868 42.4091C71.9093 42.4848 72.1437 42.5227 72.3899 42.5227C72.5746 42.5227 72.7261 42.5133 72.8445 42.4943C72.9628 42.4706 73.0575 42.4517 73.1286 42.4375L73.4695 43.9432C73.3558 43.9858 73.1972 44.0284 72.9936 44.071C72.79 44.1184 72.532 44.142 72.2195 44.142C71.746 44.142 71.282 44.0402 70.8274 43.8366C70.3776 43.633 70.0036 43.3229 69.7053 42.9062C69.4117 42.4896 69.2649 41.964 69.2649 41.3295V30.4773ZM81.4169 44V33.0909H83.093V44H81.4169ZM82.2692 31.2727C81.9425 31.2727 81.6607 31.1615 81.424 30.9389C81.192 30.7164 81.076 30.4489 81.076 30.1364C81.076 29.8239 81.192 29.5563 81.424 29.3338C81.6607 29.1113 81.9425 29 82.2692 29C82.5959 29 82.8752 29.1113 83.1072 29.3338C83.344 29.5563 83.4624 29.8239 83.4624 30.1364C83.4624 30.4489 83.344 30.7164 83.1072 30.9389C82.8752 31.1615 82.5959 31.2727 82.2692 31.2727ZM93.8903 35.5341L92.3846 35.9602C92.2899 35.7093 92.1502 35.4654 91.9656 35.2287C91.7856 34.9872 91.5394 34.7884 91.2269 34.6321C90.9144 34.4759 90.5143 34.3977 90.0266 34.3977C89.359 34.3977 88.8027 34.5516 88.3576 34.8594C87.9173 35.1624 87.6971 35.5483 87.6971 36.017C87.6971 36.4337 87.8486 36.7628 88.1516 37.0043C88.4547 37.2457 88.9281 37.447 89.5721 37.608L91.1914 38.0057C92.1668 38.2424 92.8936 38.6046 93.3718 39.0923C93.85 39.5753 94.0891 40.1979 94.0891 40.9602C94.0891 41.5852 93.9092 42.1439 93.5494 42.6364C93.1942 43.1288 92.6971 43.517 92.0579 43.8011C91.4187 44.0852 90.6753 44.2273 89.8278 44.2273C88.7151 44.2273 87.7942 43.9858 87.065 43.5028C86.3358 43.0199 85.8742 42.3144 85.68 41.3864L87.271 40.9886C87.4225 41.5758 87.7089 42.0161 88.1303 42.3097C88.5565 42.6032 89.1128 42.75 89.7994 42.75C90.5806 42.75 91.2009 42.5843 91.6602 42.2528C92.1242 41.9167 92.3562 41.5142 92.3562 41.0455C92.3562 40.6667 92.2236 40.3494 91.9585 40.0938C91.6933 39.8333 91.2861 39.6392 90.7369 39.5114L88.9187 39.0852C87.9196 38.8485 87.1857 38.4815 86.717 37.9844C86.253 37.4825 86.021 36.8551 86.021 36.1023C86.021 35.4867 86.1938 34.9422 86.5394 34.4688C86.8898 33.9953 87.3656 33.6236 87.967 33.3537C88.573 33.0838 89.2596 32.9489 90.0266 32.9489C91.1062 32.9489 91.9537 33.1856 92.5692 33.6591C93.1895 34.1326 93.6299 34.7576 93.8903 35.5341ZM17.777 68V53.4545H19.5384V59.9318H27.294V53.4545H29.0554V68H27.294V61.4943H19.5384V68H17.777ZM36.7862 68.2273C35.8014 68.2273 34.9373 67.9929 34.1939 67.5241C33.4553 67.0554 32.8776 66.3996 32.4609 65.5568C32.049 64.714 31.843 63.7292 31.843 62.6023C31.843 61.4659 32.049 60.474 32.4609 59.6264C32.8776 58.7789 33.4553 58.1207 34.1939 57.652C34.9373 57.1832 35.8014 56.9489 36.7862 56.9489C37.7711 56.9489 38.6328 57.1832 39.3714 57.652C40.1148 58.1207 40.6925 58.7789 41.1044 59.6264C41.5211 60.474 41.7294 61.4659 41.7294 62.6023C41.7294 63.7292 41.5211 64.714 41.1044 65.5568C40.6925 66.3996 40.1148 67.0554 39.3714 67.5241C38.6328 67.9929 37.7711 68.2273 36.7862 68.2273ZM36.7862 66.7216C37.5343 66.7216 38.1499 66.5298 38.6328 66.1463C39.1158 65.7628 39.4732 65.2585 39.7053 64.6335C39.9373 64.0085 40.0533 63.3314 40.0533 62.6023C40.0533 61.8731 39.9373 61.1937 39.7053 60.5639C39.4732 59.9342 39.1158 59.4252 38.6328 59.0369C38.1499 58.6487 37.5343 58.4545 36.7862 58.4545C36.0381 58.4545 35.4226 58.6487 34.9396 59.0369C34.4567 59.4252 34.0992 59.9342 33.8672 60.5639C33.6352 61.1937 33.5192 61.8731 33.5192 62.6023C33.5192 63.3314 33.6352 64.0085 33.8672 64.6335C34.0992 65.2585 34.4567 65.7628 34.9396 66.1463C35.4226 66.5298 36.0381 66.7216 36.7862 66.7216ZM44.288 68V57.0909H45.9641V68H44.288ZM45.1403 55.2727C44.8136 55.2727 44.5318 55.1615 44.2951 54.9389C44.0631 54.7164 43.9471 54.4489 43.9471 54.1364C43.9471 53.8239 44.0631 53.5563 44.2951 53.3338C44.5318 53.1113 44.8136 53 45.1403 53C45.467 53 45.7463 53.1113 45.9783 53.3338C46.2151 53.5563 46.3335 53.8239 46.3335 54.1364C46.3335 54.4489 46.2151 54.7164 45.9783 54.9389C45.7463 55.1615 45.467 55.2727 45.1403 55.2727ZM56.7614 59.5341L55.2557 59.9602C55.161 59.7093 55.0213 59.4654 54.8366 59.2287C54.6567 58.9872 54.4105 58.7884 54.098 58.6321C53.7855 58.4759 53.3854 58.3977 52.8977 58.3977C52.2301 58.3977 51.6738 58.5516 51.2287 58.8594C50.7884 59.1624 50.5682 59.5483 50.5682 60.017C50.5682 60.4337 50.7197 60.7628 51.0227 61.0043C51.3258 61.2457 51.7992 61.447 52.4432 61.608L54.0625 62.0057C55.0379 62.2424 55.7647 62.6046 56.2429 63.0923C56.7211 63.5753 56.9602 64.1979 56.9602 64.9602C56.9602 65.5852 56.7803 66.1439 56.4205 66.6364C56.0653 67.1288 55.5682 67.517 54.929 67.8011C54.2898 68.0852 53.5464 68.2273 52.6989 68.2273C51.5862 68.2273 50.6652 67.9858 49.9361 67.5028C49.2069 67.0199 48.7453 66.3144 48.5511 65.3864L50.142 64.9886C50.2936 65.5758 50.58 66.0161 51.0014 66.3097C51.4276 66.6032 51.9839 66.75 52.6705 66.75C53.4517 66.75 54.072 66.5843 54.5312 66.2528C54.9953 65.9167 55.2273 65.5142 55.2273 65.0455C55.2273 64.6667 55.0947 64.3494 54.8295 64.0938C54.5644 63.8333 54.1572 63.6392 53.608 63.5114L51.7898 63.0852C50.7907 62.8485 50.0568 62.4815 49.5881 61.9844C49.1241 61.4825 48.892 60.8551 48.892 60.1023C48.892 59.4867 49.0649 58.9422 49.4105 58.4688C49.7609 57.9953 50.2367 57.6236 50.8381 57.3537C51.4441 57.0838 52.1307 56.9489 52.8977 56.9489C53.9773 56.9489 54.8248 57.1856 55.4403 57.6591C56.0606 58.1326 56.5009 58.7576 56.7614 59.5341ZM64.2276 57.0909V58.5114H58.5742V57.0909H64.2276ZM60.2219 54.4773H61.8981V64.875C61.8981 65.3485 61.9667 65.7036 62.104 65.9403C62.2461 66.1723 62.426 66.3286 62.6438 66.4091C62.8664 66.4848 63.1007 66.5227 63.3469 66.5227C63.5316 66.5227 63.6831 66.5133 63.8015 66.4943C63.9199 66.4706 64.0146 66.4517 64.0856 66.4375L64.4265 67.9432C64.3129 67.9858 64.1542 68.0284 63.9506 68.071C63.747 68.1184 63.489 68.142 63.1765 68.142C62.703 68.142 62.239 68.0402 61.7844 67.8366C61.3346 67.633 60.9606 67.3229 60.6623 66.9062C60.3687 66.4896 60.2219 65.964 60.2219 65.3295V54.4773ZM66.7489 68V57.0909H68.4251V68H66.7489ZM67.6012 55.2727C67.2745 55.2727 66.9928 55.1615 66.756 54.9389C66.524 54.7164 66.408 54.4489 66.408 54.1364C66.408 53.8239 66.524 53.5563 66.756 53.3338C66.9928 53.1113 67.2745 53 67.6012 53C67.9279 53 68.2073 53.1113 68.4393 53.3338C68.676 53.5563 68.7944 53.8239 68.7944 54.1364C68.7944 54.4489 68.676 54.7164 68.4393 54.9389C68.2073 55.1615 67.9279 55.2727 67.6012 55.2727ZM73.1712 61.4375V68H71.495V57.0909H73.1143V58.7955H73.2564C73.5121 58.2415 73.9003 57.7964 74.4212 57.4602C74.942 57.1193 75.6143 56.9489 76.4382 56.9489C77.1768 56.9489 77.8232 57.1004 78.3771 57.4034C78.9311 57.7017 79.362 58.1562 79.6697 58.767C79.9775 59.3731 80.1314 60.1402 80.1314 61.0682V68H78.4553V61.1818C78.4553 60.3248 78.2327 59.6572 77.7876 59.179C77.3426 58.696 76.7318 58.4545 75.9553 58.4545C75.4202 58.4545 74.942 58.5705 74.5206 58.8026C74.1039 59.0346 73.7749 59.3731 73.5334 59.8182C73.2919 60.2633 73.1712 60.803 73.1712 61.4375ZM87.5977 72.3182C86.788 72.3182 86.092 72.214 85.5096 72.0057C84.9272 71.8021 84.4419 71.5322 84.0536 71.196C83.6701 70.8646 83.3647 70.5095 83.1374 70.1307L84.4727 69.1932C84.6242 69.392 84.8159 69.6193 85.0479 69.875C85.2799 70.1354 85.5972 70.3603 85.9996 70.5497C86.4068 70.7438 86.9395 70.8409 87.5977 70.8409C88.4783 70.8409 89.2051 70.6278 89.7781 70.2017C90.351 69.7756 90.6374 69.108 90.6374 68.1989V65.983H90.4954C90.3723 66.1818 90.1971 66.428 89.9698 66.7216C89.7473 67.0104 89.4253 67.2685 89.0039 67.4957C88.5872 67.7183 88.0238 67.8295 87.3136 67.8295C86.4329 67.8295 85.6422 67.6212 84.9414 67.2045C84.2454 66.7879 83.6938 66.1818 83.2866 65.3864C82.8841 64.5909 82.6829 63.625 82.6829 62.4886C82.6829 61.3712 82.8794 60.3982 83.2724 59.5696C83.6654 58.7363 84.2122 58.0923 84.913 57.6378C85.6138 57.1785 86.4234 56.9489 87.342 56.9489C88.0522 56.9489 88.6156 57.0672 89.0323 57.304C89.4537 57.536 89.7757 57.8011 89.9982 58.0994C90.2255 58.393 90.4007 58.6345 90.5238 58.8239H90.6942V57.0909H92.3136V68.3125C92.3136 69.25 92.1005 70.0123 91.6744 70.5994C91.253 71.1913 90.6848 71.6245 89.9698 71.8991C89.2596 72.1785 88.4689 72.3182 87.5977 72.3182ZM87.5408 66.3239C88.2132 66.3239 88.7814 66.17 89.2454 65.8622C89.7094 65.5545 90.0621 65.1117 90.3036 64.5341C90.5451 63.9564 90.6658 63.2652 90.6658 62.4602C90.6658 61.6742 90.5475 60.9806 90.3107 60.3793C90.074 59.7779 89.7236 59.3068 89.2596 58.9659C88.7956 58.625 88.2227 58.4545 87.5408 58.4545C86.8306 58.4545 86.2388 58.6345 85.7653 58.9943C85.2965 59.3542 84.9438 59.8371 84.707 60.4432C84.475 61.0492 84.359 61.7216 84.359 62.4602C84.359 63.2178 84.4774 63.8878 84.7141 64.4702C84.9556 65.0478 85.3107 65.5024 85.7795 65.8338C86.253 66.1605 86.8401 66.3239 87.5408 66.3239ZM97.5692 63.9091V63.8239C97.5787 62.9195 97.6734 62.1998 97.8533 61.6648C98.0333 61.1297 98.2889 60.6965 98.6204 60.3651C98.9518 60.0336 99.3496 59.7282 99.8136 59.4489C100.093 59.2784 100.344 59.0772 100.566 58.8452C100.789 58.6084 100.964 58.3362 101.092 58.0284C101.225 57.7206 101.291 57.3797 101.291 57.0057C101.291 56.5417 101.182 56.1392 100.964 55.7983C100.746 55.4574 100.455 55.1946 100.091 55.0099C99.726 54.8253 99.3211 54.733 98.8761 54.733C98.4878 54.733 98.1138 54.8134 97.7539 54.9744C97.3941 55.1354 97.0934 55.3887 96.8519 55.7344C96.6104 56.08 96.4708 56.5322 96.4329 57.0909H94.6431C94.681 56.286 94.8893 55.5971 95.2681 55.0241C95.6516 54.4512 96.1559 54.0133 96.7809 53.7102C97.4106 53.4072 98.109 53.2557 98.8761 53.2557C99.7094 53.2557 100.434 53.4214 101.049 53.7528C101.67 54.0843 102.148 54.5388 102.484 55.1165C102.825 55.6941 102.995 56.3523 102.995 57.0909C102.995 57.6117 102.915 58.0829 102.754 58.5043C102.598 58.9257 102.37 59.3021 102.072 59.6335C101.779 59.965 101.423 60.2585 101.007 60.5142C100.59 60.7746 100.256 61.0492 100.005 61.3381C99.7544 61.6222 99.5721 61.9607 99.4585 62.3537C99.3448 62.7467 99.2833 63.2367 99.2738 63.8239V63.9091H97.5692ZM98.4783 68.1136C98.128 68.1136 97.8273 67.9882 97.5763 67.7372C97.3254 67.4863 97.1999 67.1856 97.1999 66.8352C97.1999 66.4848 97.3254 66.1842 97.5763 65.9332C97.8273 65.6823 98.128 65.5568 98.4783 65.5568C98.8287 65.5568 99.1294 65.6823 99.3803 65.9332C99.6313 66.1842 99.7567 66.4848 99.7567 66.8352C99.7567 67.0672 99.6976 67.2803 99.5792 67.4744C99.4656 67.6686 99.3117 67.8248 99.1175 67.9432C98.9281 68.0568 98.7151 68.1136 98.4783 68.1136Z" fill="#ED7458"/>
<path d="M29.3253 44L28.3607 44.2638L28.562 45H29.3253V44ZM25.348 29.4545V28.4545H24.0379L24.3834 29.7183L25.348 29.4545ZM27.1378 29.4545L28.1064 29.206L27.9136 28.4545H27.1378V29.4545ZM30.1776 41.3011L29.2089 41.5497L29.4018 42.3011H30.1776V41.3011ZM30.3196 41.3011V42.3011H31.0918L31.2871 41.554L30.3196 41.3011ZM33.4162 29.4545V28.4545H32.644L32.4487 29.2017L33.4162 29.4545ZM35.4048 29.4545L36.3723 29.2017L36.177 28.4545H35.4048V29.4545ZM38.5014 41.3011L37.5339 41.554L37.7292 42.3011H38.5014V41.3011ZM38.6435 41.3011V42.3011H39.4193L39.6121 41.5497L38.6435 41.3011ZM41.6832 29.4545V28.4545H40.9074L40.7146 29.206L41.6832 29.4545ZM43.473 29.4545L44.4376 29.7183L44.7832 28.4545H43.473V29.4545ZM39.4957 44V45H40.259L40.4603 44.2638L39.4957 44ZM37.6776 44L36.7138 44.2669L36.9169 45H37.6776V44ZM34.4673 32.4091L35.4311 32.1422L35.228 31.4091H34.4673V32.4091ZM34.3537 32.4091V31.4091H33.593L33.39 32.1422L34.3537 32.4091ZM31.1435 44V45H31.9042L32.1072 44.2669L31.1435 44ZM30.2899 43.7362L26.3126 29.1908L24.3834 29.7183L28.3607 44.2638L30.2899 43.7362ZM25.348 30.4545H27.1378V28.4545H25.348V30.4545ZM26.1692 29.7031L29.2089 41.5497L31.1462 41.0526L28.1064 29.206L26.1692 29.7031ZM30.1776 42.3011H30.3196V40.3011H30.1776V42.3011ZM31.2871 41.554L34.3837 29.7074L32.4487 29.2017L29.3521 41.0482L31.2871 41.554ZM33.4162 30.4545H35.4048V28.4545H33.4162V30.4545ZM34.4373 29.7074L37.5339 41.554L39.4689 41.0482L36.3723 29.2017L34.4373 29.7074ZM38.5014 42.3011H38.6435V40.3011H38.5014V42.3011ZM39.6121 41.5497L42.6519 29.7031L40.7146 29.206L37.6748 41.0526L39.6121 41.5497ZM41.6832 30.4545H43.473V28.4545H41.6832V30.4545ZM42.5084 29.1908L38.5311 43.7362L40.4603 44.2638L44.4376 29.7183L42.5084 29.1908ZM39.4957 43H37.6776V45H39.4957V43ZM38.6413 43.7331L35.4311 32.1422L33.5036 32.676L36.7138 44.2669L38.6413 43.7331ZM34.4673 31.4091H34.3537V33.4091H34.4673V31.4091ZM33.39 32.1422L30.1797 43.7331L32.1072 44.2669L35.3174 32.676L33.39 32.1422ZM31.1435 43H29.3253V45H31.1435V43ZM47.1165 44V45H48.1165V44H47.1165ZM45.4403 44H44.4403V45H45.4403V44ZM45.4403 29.4545V28.4545H44.4403V29.4545H45.4403ZM47.1165 29.4545H48.1165V28.4545H47.1165V29.4545ZM47.1165 34.7955H46.1165V35.7955H47.1165V34.7955ZM47.2585 34.7955V35.7955H47.9029L48.1692 35.2087L47.2585 34.7955ZM48.4091 33.4531L48.953 34.2923L48.9549 34.291L48.4091 33.4531ZM52.4219 33.3963L51.9509 34.2785L51.9567 34.2815L52.4219 33.3963ZM53.7216 34.7528L52.8285 35.2028L52.8328 35.2111L53.7216 34.7528ZM54.1903 44V45H55.1903V44H54.1903ZM52.5142 44H51.5142V45H52.5142V44ZM51.8395 35.1719L51.1074 35.8532L51.1145 35.8606L51.8395 35.1719ZM48.5085 34.8026L48.0384 33.9199L48.0344 33.9221L48.5085 34.8026ZM47.4858 35.8182L46.6147 35.327L46.6108 35.3341L47.4858 35.8182ZM46.1165 37.4375V44H48.1165V37.4375H46.1165ZM47.1165 43H45.4403V45H47.1165V43ZM46.4403 44V29.4545H44.4403V44H46.4403ZM45.4403 30.4545H47.1165V28.4545H45.4403V30.4545ZM46.1165 29.4545V34.7955H48.1165V29.4545H46.1165ZM47.1165 35.7955H47.2585V33.7955H47.1165V35.7955ZM48.1692 35.2087C48.3471 34.8165 48.6047 34.518 48.953 34.2923L47.8652 32.614C47.1908 33.0511 46.6813 33.6475 46.3479 34.3822L48.1692 35.2087ZM48.9549 34.291C49.2567 34.0945 49.7325 33.9489 50.4688 33.9489V31.9489C49.491 31.9489 48.5937 32.1394 47.8633 32.6152L48.9549 34.291ZM50.4688 33.9489C51.0764 33.9489 51.5604 34.07 51.9509 34.2785L52.8929 32.5142C52.1659 32.1261 51.3478 31.9489 50.4688 31.9489V33.9489ZM51.9567 34.2815C52.3153 34.47 52.6063 34.7617 52.8286 35.2028L54.6146 34.3029C54.2213 33.5223 53.6459 32.9098 52.887 32.5111L51.9567 34.2815ZM52.8328 35.2111C53.0501 35.6325 53.1903 36.2335 53.1903 37.0682H55.1903C55.1903 36.0279 55.0181 35.0853 54.6104 34.2946L52.8328 35.2111ZM53.1903 37.0682V44H55.1903V37.0682H53.1903ZM54.1903 43H52.5142V45H54.1903V43ZM53.5142 44V37.1818H51.5142V44H53.5142ZM53.5142 37.1818C53.5142 36.145 53.2423 35.1966 52.5645 34.4831L51.1145 35.8606C51.3363 36.0941 51.5142 36.4857 51.5142 37.1818H53.5142ZM52.5715 34.4906C51.8982 33.7671 50.9911 33.4545 49.9858 33.4545V35.4545C50.5619 35.4545 50.8906 35.6202 51.1075 35.8532L52.5715 34.4906ZM49.9858 33.4545C49.2914 33.4545 48.6345 33.6025 48.0384 33.9199L48.9786 35.6852C49.2538 35.5386 49.5817 35.4545 49.9858 35.4545V33.4545ZM48.0344 33.9221C47.4295 34.2478 46.9542 34.7249 46.6147 35.327L48.3569 36.3093C48.5193 36.0213 48.7258 35.8213 48.9826 35.683L48.0344 33.9221ZM46.6108 35.3341C46.2647 35.9597 46.1165 36.675 46.1165 37.4375H48.1165C48.1165 36.9311 48.2145 36.5668 48.3608 36.3022L46.6108 35.3341ZM58.5849 43.8651L58.1591 44.7699L58.1653 44.7728L58.5849 43.8651ZM57.2425 42.7216L56.4081 43.2727L56.4105 43.2763L57.2425 42.7216ZM57.1147 39.3835L57.9592 39.9191L57.9621 39.9144L57.1147 39.3835ZM59.4656 37.9631L59.6795 38.9399L59.6864 38.9384L59.4656 37.9631ZM60.9783 37.6932L60.8508 36.7013L60.8486 36.7016L60.9783 37.6932ZM62.5906 37.5014L62.6935 38.4962L62.7035 38.495L62.5906 37.5014ZM63.4996 37.267L63.0104 36.3949L63.0012 36.4001L63.4996 37.267ZM63.2156 35.0085L62.4998 35.7069L62.5041 35.7113L63.2156 35.0085ZM59.6076 34.9517L60.2181 35.7437L60.2181 35.7437L59.6076 34.9517ZM58.6488 36.0739L58.3125 37.0156L59.1716 37.3224L59.5558 36.495L58.6488 36.0739ZM57.0579 35.5057L56.1387 35.1118L55.7197 36.0896L56.7215 36.4474L57.0579 35.5057ZM58.1942 33.9574L58.8093 34.7459L58.8103 34.7451L58.1942 33.9574ZM59.7567 33.1761L60.0088 34.1439L60.0144 34.1424L59.7567 33.1761ZM62.6403 33.0767L62.456 34.0596L62.4676 34.0617L62.6403 33.0767ZM63.9684 33.581L63.4539 34.4385L63.4581 34.4409L63.9684 33.581ZM65.0408 34.7386L64.1648 35.2209L64.1648 35.2209L65.0408 34.7386ZM65.467 44V45H66.467V44H65.467ZM63.7908 44H62.7908V45H63.7908V44ZM63.7908 42.5227H64.7908V41.5227H63.7908V42.5227ZM63.7056 42.5227V41.5227H63.0764L62.8041 42.09L63.7056 42.5227ZM63.1374 43.2827L63.8508 43.9835L63.8508 43.9835L63.1374 43.2827ZM62.0792 43.9716L61.6841 43.053L61.6841 43.053L62.0792 43.9716ZM62.3988 42.3594L61.9055 41.4895L61.9017 41.4917L62.3988 42.3594ZM63.4357 41.3509L62.5687 40.8525L62.5644 40.8601L63.4357 41.3509ZM63.7908 38.517H64.7908V35.755L63.0226 37.8769L63.7908 38.517ZM63.3221 38.7514L63.5917 39.7145L63.6043 39.7108L63.3221 38.7514ZM62.4982 38.929L62.6503 39.9174L62.6626 39.9154L62.4982 38.929ZM61.5962 39.0568L61.7103 40.0504L61.7242 40.0486L61.5962 39.0568ZM60.8931 39.142L61.0225 40.1336L61.0236 40.1335L60.8931 39.142ZM59.6715 39.419L59.9841 40.3689L59.9913 40.3665L59.6715 39.419ZM58.7624 39.9801L58.0282 39.3013L58.0276 39.3018L58.7624 39.9801ZM59.0678 42.3097L58.4986 43.1319L58.509 43.1389L59.0678 42.3097ZM60.467 43.2557C59.904 43.2557 59.4221 43.1504 59.0044 42.9573L58.1653 44.7728C58.8746 45.1006 59.6474 45.2557 60.467 45.2557V43.2557ZM59.0107 42.9602C58.6047 42.7692 58.3007 42.506 58.0746 42.1669L56.4105 43.2763C56.8473 43.9315 57.4381 44.4306 58.1591 44.7699L59.0107 42.9602ZM58.077 42.1705C57.8719 41.8599 57.7454 41.4538 57.7454 40.9034H55.7454C55.7454 41.7735 55.9504 42.5795 56.4081 43.2727L58.077 42.1705ZM57.7454 40.9034C57.7454 40.402 57.8449 40.0993 57.9592 39.9191L56.2702 38.848C55.8921 39.4443 55.7454 40.1548 55.7454 40.9034H57.7454ZM57.9621 39.9144C58.1156 39.6694 58.3159 39.4812 58.5772 39.34L57.6266 37.5804C57.0641 37.8843 56.6062 38.3116 56.2673 38.8526L57.9621 39.9144ZM58.5772 39.34C58.9002 39.1656 59.2657 39.0306 59.6795 38.9399L59.2516 36.9862C58.6711 37.1134 58.1275 37.3098 57.6266 37.5804L58.5772 39.34ZM59.6864 38.9384C60.1584 38.8315 60.6323 38.747 61.1081 38.6847L60.8486 36.7016C60.3112 36.772 59.7765 36.8674 59.2447 36.9878L59.6864 38.9384ZM61.1059 38.685C61.7648 38.6003 62.2931 38.5375 62.6935 38.4961L62.4877 36.5067C62.0641 36.5505 61.5176 36.6156 60.8508 36.7013L61.1059 38.685ZM62.7035 38.495C63.154 38.4438 63.6254 38.3482 63.9981 38.134L63.0012 36.4001C63.0101 36.395 62.9793 36.4136 62.8807 36.439C62.7863 36.4633 62.6543 36.4877 62.4776 36.5078L62.7035 38.495ZM63.9889 38.1392C64.5705 37.8129 64.7908 37.2395 64.7908 36.6989H62.7908C62.7908 36.7166 62.7875 36.6664 62.8281 36.5872C62.8736 36.4986 62.9442 36.432 63.0104 36.3949L63.9889 38.1392ZM64.7908 36.6989V36.642H62.7908V36.6989H64.7908ZM64.7908 36.642C64.7908 35.7563 64.5438 34.9302 63.927 34.3058L62.5041 35.7113C62.6543 35.8633 62.7908 36.1263 62.7908 36.642H64.7908ZM63.9313 34.3102C63.2967 33.6597 62.4156 33.4261 61.4897 33.4261V35.4261C62.1074 35.4261 62.3768 35.5808 62.4998 35.7068L63.9313 34.3102ZM61.4897 33.4261C60.554 33.4261 59.6839 33.6303 58.9971 34.1597L60.2181 35.7437C60.4404 35.5724 60.825 35.4261 61.4897 35.4261V33.4261ZM58.9971 34.1597C58.4533 34.5789 58.0117 35.0714 57.7418 35.6528L59.5558 36.495C59.6552 36.2808 59.8528 36.0253 60.2181 35.7437L58.9971 34.1597ZM58.9851 35.1321L57.3942 34.5639L56.7215 36.4474L58.3125 37.0156L58.9851 35.1321ZM57.977 35.8996C58.208 35.3607 58.4932 34.9925 58.8093 34.7459L57.5792 33.1689C56.9484 33.6609 56.476 34.3249 56.1387 35.1118L57.977 35.8996ZM58.8103 34.7451C59.1855 34.4516 59.5834 34.2547 60.0088 34.1438L59.5047 32.2084C58.8032 32.3912 58.1594 32.7151 57.5781 33.1697L58.8103 34.7451ZM60.0144 34.1424C60.5044 34.0117 60.9765 33.9489 61.4329 33.9489V31.9489C60.7907 31.9489 60.1454 32.0375 59.4991 32.2099L60.0144 34.1424ZM61.4329 33.9489C61.7055 33.9489 62.0442 33.9824 62.456 34.0596L62.8246 32.0938C62.3273 32.0006 61.8611 31.9489 61.4329 31.9489V33.9489ZM62.4676 34.0617C62.7983 34.1196 63.126 34.2417 63.4539 34.4385L64.4829 32.7235C63.9586 32.4089 63.4008 32.1947 62.8129 32.0917L62.4676 34.0617ZM63.4581 34.4409C63.7104 34.5907 63.9515 34.8333 64.1648 35.2209L65.9169 34.2564C65.562 33.6118 65.0881 33.0826 64.4787 32.721L63.4581 34.4409ZM64.1648 35.2209C64.3382 35.5359 64.467 36.0409 64.467 36.8125H66.467C66.467 35.8512 66.3117 34.9736 65.9169 34.2564L64.1648 35.2209ZM64.467 36.8125V44H66.467V36.8125H64.467ZM65.467 43H63.7908V45H65.467V43ZM64.7908 44V42.5227H62.7908V44H64.7908ZM63.7908 41.5227H63.7056V43.5227H63.7908V41.5227ZM62.8041 42.09C62.754 42.1944 62.6432 42.3589 62.4241 42.5818L63.8508 43.9835C64.162 43.6667 64.43 43.3245 64.6071 42.9555L62.8041 42.09ZM62.4241 42.5818C62.2706 42.7381 62.0358 42.9017 61.6841 43.053L62.4743 44.8902C63.0033 44.6627 63.4739 44.367 63.8508 43.9835L62.4241 42.5818ZM61.6841 43.053C61.4019 43.1743 61.0073 43.2557 60.467 43.2557V45.2557C61.1956 45.2557 61.8758 45.1476 62.4743 44.8902L61.6841 43.053ZM60.7227 43.75C61.5144 43.75 62.2549 43.5943 62.8959 43.2271L61.9017 41.4917C61.6336 41.6453 61.2566 41.75 60.7227 41.75V43.75ZM62.892 43.2293C63.4905 42.8899 63.9757 42.4299 64.307 41.8416L62.5644 40.8601C62.4317 41.0957 62.2256 41.308 61.9056 41.4895L62.892 43.2293ZM64.3027 41.8491C64.6225 41.2927 64.7908 40.6886 64.7908 40.0511H62.7908C62.7908 40.3228 62.7224 40.5851 62.5687 40.8526L64.3027 41.8491ZM64.7908 40.0511V38.517H62.7908V40.0511H64.7908ZM63.0226 37.8769C63.0708 37.819 63.1148 37.7843 63.138 37.7676C63.1618 37.7505 63.1758 37.7438 63.1732 37.7451C63.1712 37.7461 63.1598 37.7516 63.1361 37.7605C63.1128 37.7692 63.0811 37.7799 63.0399 37.7921L63.6043 39.7108C63.7593 39.6652 63.919 39.6083 64.0676 39.534C64.206 39.4648 64.3991 39.3492 64.5591 39.1572L63.0226 37.8769ZM63.0525 37.7885C62.8585 37.8428 62.6204 37.8948 62.3338 37.9426L62.6626 39.9154C63.0011 39.859 63.3121 39.7927 63.5917 39.7144L63.0525 37.7885ZM62.3462 37.9406C62.046 37.9868 61.7534 38.0283 61.4683 38.065L61.7242 40.0486C62.0262 40.0096 62.3349 39.9659 62.6503 39.9173L62.3462 37.9406ZM61.4822 38.0633C61.1907 38.0968 60.9503 38.1259 60.7627 38.1506L61.0236 40.1335C61.1958 40.1108 61.4241 40.0831 61.7102 40.0503L61.4822 38.0633ZM60.7638 38.1504C60.2697 38.2149 59.7981 38.3209 59.3517 38.4715L59.9913 40.3665C60.3025 40.2615 60.6453 40.1828 61.0225 40.1336L60.7638 38.1504ZM59.3589 38.4692C58.8484 38.6372 58.3919 38.9078 58.0282 39.3013L59.4967 40.659C59.5969 40.5506 59.7466 40.4471 59.9841 40.3689L59.3589 38.4692ZM58.0276 39.3018C57.5872 39.779 57.4215 40.382 57.4215 40.9886H59.4215C59.4215 40.743 59.4831 40.6737 59.4972 40.6584L58.0276 39.3018ZM57.4215 40.9886C57.4215 41.8565 57.7647 42.6237 58.4986 43.1319L59.637 41.4875C59.5092 41.399 59.4215 41.2855 59.4215 40.9886H57.4215ZM58.509 43.1389C59.1493 43.5705 59.9097 43.75 60.7227 43.75V41.75C60.2004 41.75 59.8576 41.636 59.6267 41.4804L58.509 43.1389ZM73.2706 33.0909H74.2706V32.0909H73.2706V33.0909ZM73.2706 34.5114V35.5114H74.2706V34.5114H73.2706ZM67.6172 34.5114H66.6172V35.5114H67.6172V34.5114ZM67.6172 33.0909V32.0909H66.6172V33.0909H67.6172ZM69.2649 30.4773V29.4773H68.2649V30.4773H69.2649ZM70.9411 30.4773H71.9411V29.4773H70.9411V30.4773ZM71.147 41.9403L70.282 42.4421L70.288 42.4523L70.2942 42.4625L71.147 41.9403ZM71.6868 42.4091L71.3401 43.3471L71.3523 43.3516L71.3645 43.3557L71.6868 42.4091ZM72.8445 42.4943L73.0025 43.4818L73.0216 43.4787L73.0406 43.4749L72.8445 42.4943ZM73.1286 42.4375L74.1039 42.2167L73.8885 41.2657L72.9324 41.4569L73.1286 42.4375ZM73.4695 43.9432L73.8206 44.8795L74.6374 44.5732L74.4448 43.7224L73.4695 43.9432ZM72.9936 44.071L72.7887 43.0922L72.7779 43.0945L72.7671 43.097L72.9936 44.071ZM70.8274 43.8366L70.4151 44.7477L70.4186 44.7493L70.8274 43.8366ZM69.7053 42.9062L68.8877 43.4822L68.8921 43.4884L69.7053 42.9062ZM72.2706 33.0909V34.5114H74.2706V33.0909H72.2706ZM73.2706 33.5114H67.6172V35.5114H73.2706V33.5114ZM68.6172 34.5114V33.0909H66.6172V34.5114H68.6172ZM67.6172 34.0909H73.2706V32.0909H67.6172V34.0909ZM69.2649 31.4773H70.9411V29.4773H69.2649V31.4773ZM69.9411 30.4773V40.875H71.9411V30.4773H69.9411ZM69.9411 40.875C69.9411 41.4124 70.0132 41.9786 70.282 42.4421L72.012 41.4386C72.0143 41.4424 71.9939 41.4076 71.9744 41.3066C71.9552 41.2074 71.9411 41.0664 71.9411 40.875H69.9411ZM70.2942 42.4625C70.5325 42.8518 70.8769 43.1759 71.3401 43.3471L72.0334 41.4711C72.036 41.4721 72.0391 41.4735 72.042 41.4752C72.0449 41.4769 72.0456 41.4777 72.0442 41.4765C72.0415 41.4742 72.0249 41.4591 71.9999 41.4182L70.2942 42.4625ZM71.3645 43.3557C71.6957 43.4685 72.0393 43.5227 72.3899 43.5227V41.5227C72.2481 41.5227 72.123 41.5012 72.0091 41.4624L71.3645 43.3557ZM72.3899 43.5227C72.6025 43.5227 72.8119 43.5123 73.0025 43.4818L72.6865 41.5069C72.6403 41.5143 72.5467 41.5227 72.3899 41.5227V43.5227ZM73.0406 43.4749C73.1589 43.4512 73.2536 43.4323 73.3247 43.4181L72.9324 41.4569C72.8614 41.4711 72.7667 41.4901 72.6483 41.5137L73.0406 43.4749ZM72.1532 42.6583L72.4941 44.164L74.4448 43.7224L74.1039 42.2167L72.1532 42.6583ZM73.1183 43.0069C73.0741 43.0234 72.9723 43.0538 72.7887 43.0922L73.1985 45.0498C73.4221 45.003 73.6375 44.9482 73.8206 44.8795L73.1183 43.0069ZM72.7671 43.097C72.6646 43.1209 72.4893 43.142 72.2195 43.142V45.142C72.5746 45.142 72.9155 45.1159 73.2201 45.045L72.7671 43.097ZM72.2195 43.142C71.8941 43.142 71.569 43.0731 71.2362 42.924L70.4186 44.7493C70.9949 45.0074 71.5978 45.142 72.2195 45.142V43.142ZM71.2398 42.9256C70.9564 42.7973 70.7184 42.6035 70.5184 42.3241L68.8921 43.4884C69.2887 44.0423 69.7989 44.4688 70.4151 44.7477L71.2398 42.9256ZM70.5227 42.3303C70.3743 42.1195 70.2649 41.8087 70.2649 41.3295H68.2649C68.2649 42.1193 68.4491 42.8596 68.8878 43.4822L70.5227 42.3303ZM70.2649 41.3295V30.4773H68.2649V41.3295H70.2649ZM81.4169 44H80.4169V45H81.4169V44ZM81.4169 33.0909V32.0909H80.4169V33.0909H81.4169ZM83.093 33.0909H84.093V32.0909H83.093V33.0909ZM83.093 44V45H84.093V44H83.093ZM81.424 30.9389L80.7317 31.6606L80.7391 31.6675L81.424 30.9389ZM81.424 29.3338L80.7391 28.6051L80.7318 28.6121L81.424 29.3338ZM83.1072 29.3338L82.415 30.0555L82.4223 30.0624L83.1072 29.3338ZM83.1072 30.9389L82.4223 30.2103L82.415 30.2172L83.1072 30.9389ZM82.4169 44V33.0909H80.4169V44H82.4169ZM81.4169 34.0909H83.093V32.0909H81.4169V34.0909ZM82.093 33.0909V44H84.093V33.0909H82.093ZM83.093 43H81.4169V45H83.093V43ZM82.2692 30.2727C82.1954 30.2727 82.1591 30.2574 82.1089 30.2103L80.7391 31.6675C81.1624 32.0655 81.6895 32.2727 82.2692 32.2727V30.2727ZM82.1162 30.2172C82.1005 30.2022 82.0917 30.1911 82.0871 30.1846C82.0826 30.1783 82.081 30.1747 82.0805 30.1735C82.08 30.1724 82.0792 30.1704 82.0783 30.1662C82.0774 30.1618 82.076 30.1523 82.076 30.1364H80.076C80.076 30.73 80.3095 31.2556 80.7318 31.6606L82.1162 30.2172ZM82.076 30.1364C82.076 30.1204 82.0774 30.1109 82.0783 30.1065C82.0792 30.1023 82.08 30.1003 82.0805 30.0992C82.081 30.098 82.0826 30.0945 82.0871 30.0881C82.0917 30.0816 82.1005 30.0705 82.1162 30.0555L80.7318 28.6121C80.3095 29.0171 80.076 29.5427 80.076 30.1364H82.076ZM82.1089 30.0624C82.1591 30.0153 82.1954 30 82.2692 30V28C81.6895 28 81.1624 28.2073 80.7391 28.6052L82.1089 30.0624ZM82.2692 30C82.3425 30 82.3726 30.0148 82.415 30.0555L83.7995 28.6121C83.3779 28.2078 82.8492 28 82.2692 28V30ZM82.4223 30.0624C82.4389 30.078 82.4481 30.0894 82.4529 30.0959C82.4575 30.1023 82.4589 30.1055 82.4591 30.106C82.4593 30.1064 82.4598 30.1074 82.4604 30.1104C82.461 30.1135 82.4624 30.1217 82.4624 30.1364H84.4624C84.4624 29.5358 84.221 29.0083 83.7922 28.6052L82.4223 30.0624ZM82.4624 30.1364C82.4624 30.151 82.461 30.1592 82.4604 30.1623C82.4598 30.1653 82.4593 30.1663 82.4591 30.1667C82.4589 30.1672 82.4575 30.1705 82.4529 30.1768C82.4481 30.1833 82.4389 30.1947 82.4223 30.2103L83.7922 31.6675C84.221 31.2645 84.4624 30.7369 84.4624 30.1364H82.4624ZM82.415 30.2172C82.3726 30.258 82.3425 30.2727 82.2692 30.2727V32.2727C82.8492 32.2727 83.3779 32.0649 83.7995 31.6606L82.415 30.2172ZM93.8903 35.5341L94.1626 36.4963L95.1719 36.2106L94.8384 35.2161L93.8903 35.5341ZM92.3846 35.9602L91.449 36.3133L91.7732 37.1725L92.6569 36.9224L92.3846 35.9602ZM91.9656 35.2287L91.1637 35.8262L91.1703 35.835L91.1771 35.8437L91.9656 35.2287ZM91.2269 34.6321L91.6741 33.7377L91.6741 33.7377L91.2269 34.6321ZM88.3576 34.8594L88.9245 35.6832L88.9264 35.6819L88.3576 34.8594ZM88.1516 37.0043L87.5284 37.7863L87.5284 37.7863L88.1516 37.0043ZM89.5721 37.608L89.3296 38.5781L89.3336 38.5791L89.5721 37.608ZM91.1914 38.0057L90.9529 38.9768L90.9555 38.9775L91.1914 38.0057ZM93.3718 39.0923L92.6578 39.7925L92.6612 39.7959L93.3718 39.0923ZM93.5494 42.6364L92.742 42.0463L92.7383 42.0514L93.5494 42.6364ZM87.065 43.5028L87.6172 42.6691L87.6172 42.6691L87.065 43.5028ZM85.68 41.3864L85.4375 40.4162L84.5043 40.6495L84.7012 41.5911L85.68 41.3864ZM87.271 40.9886L88.2392 40.7388L87.9912 39.7778L87.0284 40.0185L87.271 40.9886ZM88.1303 42.3097L87.5587 43.1302L87.563 43.1332L88.1303 42.3097ZM91.6602 42.2528L92.2453 43.0637L92.2469 43.0626L91.6602 42.2528ZM91.9585 40.0938L91.2577 40.8072L91.2643 40.8136L91.9585 40.0938ZM90.7369 39.5114L90.5087 40.485L90.5102 40.4853L90.7369 39.5114ZM88.9187 39.0852L88.6881 40.0583L88.6905 40.0588L88.9187 39.0852ZM86.717 37.9844L85.9827 38.6633L85.9894 38.6704L86.717 37.9844ZM86.5394 34.4688L85.7356 33.8739L85.7317 33.8791L86.5394 34.4688ZM87.967 33.3537L87.5602 32.4402L87.5575 32.4414L87.967 33.3537ZM92.5692 33.6591L91.9595 34.4517L91.9625 34.454L92.5692 33.6591ZM93.6179 34.5719L92.1123 34.998L92.6569 36.9224L94.1626 36.4963L93.6179 34.5719ZM93.3202 35.6072C93.186 35.2515 92.9934 34.9205 92.7541 34.6137L91.1771 35.8437C91.3071 36.0104 91.3938 36.1671 91.449 36.3133L93.3202 35.6072ZM92.7674 34.6312C92.4802 34.2457 92.104 33.9526 91.6741 33.7377L90.7797 35.5265C90.9748 35.6241 91.091 35.7287 91.1637 35.8262L92.7674 34.6312ZM91.6741 33.7377C91.179 33.4901 90.6118 33.3977 90.0266 33.3977V35.3977C90.4169 35.3977 90.6499 35.4616 90.7797 35.5265L91.6741 33.7377ZM90.0266 33.3977C89.2038 33.3977 88.4366 33.5889 87.7888 34.0369L88.9264 35.6819C89.1687 35.5143 89.5143 35.3977 90.0266 35.3977V33.3977ZM87.7907 34.0356C87.1234 34.4948 86.6971 35.169 86.6971 36.017H88.6971C88.6971 35.9276 88.7111 35.83 88.9245 35.6832L87.7907 34.0356ZM86.6971 36.017C86.6971 36.7118 86.9674 37.3393 87.5284 37.7863L88.7748 36.2222C88.7298 36.1863 88.6971 36.1556 88.6971 36.017H86.6971ZM87.5284 37.7863C87.9963 38.1591 88.6321 38.4037 89.3296 38.5781L89.8146 36.6378C89.2242 36.4902 88.9131 36.3324 88.7748 36.2222L87.5284 37.7863ZM89.3336 38.5791L90.9529 38.9768L91.4299 37.0345L89.8106 36.6368L89.3336 38.5791ZM90.9555 38.9775C91.8294 39.1896 92.3581 39.4869 92.6578 39.7925L94.0858 38.3922C93.429 37.7224 92.5042 37.2953 91.4273 37.0339L90.9555 38.9775ZM92.6612 39.7959C92.9308 40.0682 93.0891 40.4265 93.0891 40.9602H95.0891C95.0891 39.9694 94.7692 39.0824 94.0824 38.3887L92.6612 39.7959ZM93.0891 40.9602C93.0891 41.3787 92.9734 41.7297 92.742 42.0463L94.3568 43.2264C94.845 42.5582 95.0891 41.7917 95.0891 40.9602H93.0891ZM92.7383 42.0514C92.5015 42.3797 92.1542 42.664 91.6517 42.8873L92.464 44.7149C93.24 44.3701 93.8869 43.8779 94.3605 43.2213L92.7383 42.0514ZM91.6517 42.8873C91.1645 43.1039 90.5644 43.2273 89.8278 43.2273V45.2273C90.7862 45.2273 91.6729 45.0666 92.464 44.7149L91.6517 42.8873ZM89.8278 43.2273C88.8583 43.2273 88.1433 43.0176 87.6172 42.6691L86.5128 44.3366C87.445 44.954 88.5719 45.2273 89.8278 45.2273V43.2273ZM87.6172 42.6691C87.127 42.3444 86.8041 41.8759 86.6589 41.1816L84.7012 41.5911C84.9443 42.7529 85.5447 43.6953 86.5128 44.3366L87.6172 42.6691ZM85.9226 42.3565L87.5135 41.9588L87.0284 40.0185L85.4375 40.4162L85.9226 42.3565ZM86.3027 41.2385C86.5026 42.0132 86.9068 42.676 87.5587 43.1302L88.7019 41.4891C88.511 41.3562 88.3424 41.1384 88.2392 40.7388L86.3027 41.2385ZM87.563 43.1332C88.2027 43.5738 88.9754 43.75 89.7994 43.75V41.75C89.2502 41.75 88.9102 41.6326 88.6976 41.4862L87.563 43.1332ZM89.7994 43.75C90.7129 43.75 91.5619 43.5569 92.2453 43.0637L91.075 41.4419C90.8399 41.6116 90.4484 41.75 89.7994 41.75V43.75ZM92.2469 43.0626C92.9056 42.5854 93.3562 41.9073 93.3562 41.0455H91.3562C91.3562 41.1211 91.3428 41.2479 91.0735 41.443L92.2469 43.0626ZM93.3562 41.0455C93.3562 40.4038 93.1193 39.824 92.6526 39.3739L91.2643 40.8136C91.3279 40.8749 91.3562 40.9295 91.3562 41.0455H93.3562ZM92.6592 39.3803C92.2118 38.941 91.606 38.6869 90.9636 38.5374L90.5102 40.4853C90.9662 40.5915 91.1748 40.7257 91.2577 40.8072L92.6592 39.3803ZM90.9651 38.5377L89.1469 38.1116L88.6905 40.0588L90.5087 40.485L90.9651 38.5377ZM89.1493 38.1122C88.2509 37.8993 87.7277 37.5986 87.4446 37.2984L85.9894 38.6704C86.6438 39.3645 87.5884 39.7977 88.6881 40.0583L89.1493 38.1122ZM87.4512 37.3055C87.176 37.0078 87.021 36.6311 87.021 36.1023H85.021C85.021 37.0791 85.3299 37.9572 85.9827 38.6632L87.4512 37.3055ZM87.021 36.1023C87.021 35.6874 87.1329 35.3518 87.3471 35.0584L85.7317 33.8791C85.2546 34.5327 85.021 35.2861 85.021 36.1023H87.021ZM87.3433 35.0636C87.5799 34.7438 87.9126 34.4742 88.3764 34.266L87.5575 32.4414C86.8187 32.773 86.1997 33.2467 85.7356 33.8739L87.3433 35.0636ZM88.3738 34.2672C88.8333 34.0626 89.378 33.9489 90.0266 33.9489V31.9489C89.1412 31.9489 88.3128 32.105 87.5602 32.4402L88.3738 34.2672ZM90.0266 33.9489C90.9701 33.9489 91.5756 34.1564 91.9595 34.4517L93.179 32.8665C92.3318 32.2148 91.2423 31.9489 90.0266 31.9489V33.9489ZM91.9625 34.454C92.4157 34.8 92.742 35.2551 92.9422 35.8521L94.8384 35.2161C94.5177 34.26 93.9633 33.4652 93.176 32.8642L91.9625 34.454ZM17.777 68H16.777V69H17.777V68ZM17.777 53.4545V52.4545H16.777V53.4545H17.777ZM19.5384 53.4545H20.5384V52.4545H19.5384V53.4545ZM19.5384 59.9318H18.5384V60.9318H19.5384V59.9318ZM27.294 59.9318V60.9318H28.294V59.9318H27.294ZM27.294 53.4545V52.4545H26.294V53.4545H27.294ZM29.0554 53.4545H30.0554V52.4545H29.0554V53.4545ZM29.0554 68V69H30.0554V68H29.0554ZM27.294 68H26.294V69H27.294V68ZM27.294 61.4943H28.294V60.4943H27.294V61.4943ZM19.5384 61.4943V60.4943H18.5384V61.4943H19.5384ZM19.5384 68V69H20.5384V68H19.5384ZM18.777 68V53.4545H16.777V68H18.777ZM17.777 54.4545H19.5384V52.4545H17.777V54.4545ZM18.5384 53.4545V59.9318H20.5384V53.4545H18.5384ZM19.5384 60.9318H27.294V58.9318H19.5384V60.9318ZM28.294 59.9318V53.4545H26.294V59.9318H28.294ZM27.294 54.4545H29.0554V52.4545H27.294V54.4545ZM28.0554 53.4545V68H30.0554V53.4545H28.0554ZM29.0554 67H27.294V69H29.0554V67ZM28.294 68V61.4943H26.294V68H28.294ZM27.294 60.4943H19.5384V62.4943H27.294V60.4943ZM18.5384 61.4943V68H20.5384V61.4943H18.5384ZM19.5384 67H17.777V69H19.5384V67ZM34.1939 67.5241L33.6581 68.3685L33.6605 68.37L34.1939 67.5241ZM32.4609 65.5568L31.5625 65.9959L31.5645 66L32.4609 65.5568ZM32.4609 59.6264L31.5635 59.1852L31.5615 59.1893L32.4609 59.6264ZM34.1939 57.652L33.6605 56.8061L33.6581 56.8077L34.1939 57.652ZM39.3714 57.652L38.8356 58.4963L38.8381 58.4979L39.3714 57.652ZM41.1044 59.6264L40.205 60.0636L40.207 60.0676L41.1044 59.6264ZM41.1044 65.5568L40.208 65.1136L40.206 65.1177L41.1044 65.5568ZM39.3714 67.5241L38.8381 66.6783L38.8356 66.6798L39.3714 67.5241ZM38.6328 66.1463L38.0109 65.3632L38.0109 65.3632L38.6328 66.1463ZM39.7053 64.6335L40.6427 64.9815L40.6427 64.9815L39.7053 64.6335ZM39.7053 60.5639L40.6436 60.2182L40.6436 60.2182L39.7053 60.5639ZM38.6328 59.0369L39.2594 58.2576L39.2594 58.2576L38.6328 59.0369ZM34.9396 59.0369L34.3131 58.2576L34.3131 58.2576L34.9396 59.0369ZM33.8672 60.5639L32.9288 60.2182L32.9288 60.2182L33.8672 60.5639ZM33.8672 64.6335L32.9297 64.9815L32.9297 64.9815L33.8672 64.6335ZM34.9396 66.1463L35.5615 65.3632L35.5615 65.3632L34.9396 66.1463ZM36.7862 67.2273C35.9667 67.2273 35.2922 67.0345 34.7273 66.6783L33.6605 68.37C34.5823 68.9513 35.6361 69.2273 36.7862 69.2273V67.2273ZM34.7297 66.6798C34.1573 66.3166 33.6991 65.805 33.3574 65.1136L31.5645 66C32.0561 66.9943 32.7532 67.7942 33.6581 68.3685L34.7297 66.6798ZM33.3594 65.1177C33.0264 64.4364 32.843 63.6072 32.843 62.6023H30.843C30.843 63.8511 31.0716 64.9916 31.5625 65.9959L33.3594 65.1177ZM32.843 62.6023C32.843 61.5866 33.0269 60.7497 33.3603 60.0636L31.5615 59.1893C31.0712 60.1982 30.843 61.3452 30.843 62.6023H32.843ZM33.3584 60.0676C33.7006 59.3715 34.1587 58.8587 34.7297 58.4963L33.6581 56.8077C32.7518 57.3828 32.0546 58.1862 31.5635 59.1852L33.3584 60.0676ZM34.7273 58.4979C35.2922 58.1416 35.9667 57.9489 36.7862 57.9489V55.9489C35.6361 55.9489 34.5823 56.2249 33.6605 56.8061L34.7273 58.4979ZM36.7862 57.9489C37.6059 57.9489 38.2768 58.1417 38.8356 58.4963L39.9073 56.8077C38.9889 56.2248 37.9363 55.9489 36.7862 55.9489V57.9489ZM38.8381 58.4979C39.4122 58.8599 39.8685 59.3711 40.205 60.0636L42.0038 59.1893C41.5165 58.1867 40.8174 57.3816 39.9048 56.8061L38.8381 58.4979ZM40.207 60.0676C40.5438 60.7527 40.7294 61.5882 40.7294 62.6023H42.7294C42.7294 61.3436 42.4983 60.1952 42.0018 59.1852L40.207 60.0676ZM40.7294 62.6023C40.7294 63.6056 40.5443 64.4334 40.208 65.1136L42.0008 66C42.4979 64.9947 42.7294 63.8527 42.7294 62.6023H40.7294ZM40.206 65.1177C39.8699 65.8054 39.4137 66.3153 38.8381 66.6783L39.9048 68.37C40.816 67.7955 41.5151 66.9939 42.0028 65.9959L40.206 65.1177ZM38.8356 66.6798C38.2768 67.0345 37.6059 67.2273 36.7862 67.2273V69.2273C37.9363 69.2273 38.9889 68.9513 39.9073 68.3685L38.8356 66.6798ZM36.7862 67.7216C37.7105 67.7216 38.5596 67.4814 39.2547 66.9294L38.0109 65.3632C37.7402 65.5782 37.3582 65.7216 36.7862 65.7216V67.7216ZM39.2547 66.9294C39.8921 66.4232 40.3526 65.7633 40.6427 64.9815L38.7678 64.2855C38.5939 64.7538 38.3394 65.1024 38.0109 65.3632L39.2547 66.9294ZM40.6427 64.9815C40.9198 64.2352 41.0533 63.4391 41.0533 62.6023H39.0533C39.0533 63.2238 38.9547 63.7819 38.7678 64.2855L40.6427 64.9815ZM41.0533 62.6023C41.0533 61.7654 40.9198 60.9678 40.6436 60.2182L38.7669 60.9096C38.9547 61.4195 39.0533 61.9809 39.0533 62.6023H41.0533ZM40.6436 60.2182C40.3543 59.433 39.8953 58.7688 39.2594 58.2576L38.0063 59.8163C38.3362 60.0816 38.5922 60.4354 38.7669 60.9096L40.6436 60.2182ZM39.2594 58.2576C38.5641 57.6986 37.7133 57.4545 36.7862 57.4545V59.4545C37.3553 59.4545 37.7356 59.5987 38.0063 59.8163L39.2594 58.2576ZM36.7862 57.4545C35.8591 57.4545 35.0083 57.6986 34.3131 58.2576L35.5662 59.8163C35.8368 59.5987 36.2171 59.4545 36.7862 59.4545V57.4545ZM34.3131 58.2576C33.6771 58.7688 33.2182 59.433 32.9288 60.2182L34.8055 60.9096C34.9802 60.4354 35.2362 60.0816 35.5662 59.8163L34.3131 58.2576ZM32.9288 60.2182C32.6527 60.9678 32.5192 61.7654 32.5192 62.6023H34.5192C34.5192 61.9809 34.6177 61.4195 34.8055 60.9096L32.9288 60.2182ZM32.5192 62.6023C32.5192 63.4391 32.6526 64.2352 32.9297 64.9815L34.8047 64.2855C34.6177 63.7819 34.5192 63.2238 34.5192 62.6023H32.5192ZM32.9297 64.9815C33.2199 65.7633 33.6803 66.4232 34.3177 66.9294L35.5615 65.3632C35.233 65.1024 34.9785 64.7538 34.8047 64.2855L32.9297 64.9815ZM34.3177 66.9294C35.0129 67.4814 35.8619 67.7216 36.7862 67.7216V65.7216C36.2143 65.7216 35.8323 65.5782 35.5615 65.3632L34.3177 66.9294ZM44.288 68H43.288V69H44.288V68ZM44.288 57.0909V56.0909H43.288V57.0909H44.288ZM45.9641 57.0909H46.9641V56.0909H45.9641V57.0909ZM45.9641 68V69H46.9641V68H45.9641ZM44.2951 54.9389L43.6028 55.6606L43.6102 55.6675L44.2951 54.9389ZM44.2951 53.3338L43.6102 52.6051L43.6029 52.6121L44.2951 53.3338ZM45.9783 53.3338L45.2861 54.0555L45.2934 54.0624L45.9783 53.3338ZM45.9783 54.9389L45.2934 54.2103L45.2861 54.2172L45.9783 54.9389ZM45.288 68V57.0909H43.288V68H45.288ZM44.288 58.0909H45.9641V56.0909H44.288V58.0909ZM44.9641 57.0909V68H46.9641V57.0909H44.9641ZM45.9641 67H44.288V69H45.9641V67ZM45.1403 54.2727C45.0665 54.2727 45.0302 54.2574 44.98 54.2103L43.6102 55.6675C44.0335 56.0655 44.5606 56.2727 45.1403 56.2727V54.2727ZM44.9873 54.2172C44.9716 54.2022 44.9628 54.1911 44.9582 54.1846C44.9537 54.1783 44.9521 54.1747 44.9515 54.1735C44.9511 54.1724 44.9503 54.1704 44.9494 54.1662C44.9485 54.1618 44.9471 54.1523 44.9471 54.1364H42.9471C42.9471 54.73 43.1806 55.2556 43.6029 55.6606L44.9873 54.2172ZM44.9471 54.1364C44.9471 54.1204 44.9485 54.1109 44.9494 54.1065C44.9503 54.1023 44.9511 54.1003 44.9515 54.0992C44.9521 54.098 44.9537 54.0945 44.9582 54.0881C44.9628 54.0816 44.9716 54.0705 44.9873 54.0555L43.6029 52.6121C43.1806 53.0171 42.9471 53.5427 42.9471 54.1364H44.9471ZM44.98 54.0624C45.0302 54.0153 45.0665 54 45.1403 54V52C44.5606 52 44.0335 52.2073 43.6102 52.6052L44.98 54.0624ZM45.1403 54C45.2136 54 45.2437 54.0148 45.2861 54.0555L46.6706 52.6121C46.249 52.2078 45.7203 52 45.1403 52V54ZM45.2934 54.0624C45.31 54.078 45.3192 54.0894 45.324 54.0959C45.3285 54.1023 45.33 54.1055 45.3302 54.106C45.3304 54.1064 45.3308 54.1074 45.3315 54.1104C45.3321 54.1135 45.3335 54.1217 45.3335 54.1364H47.3335C47.3335 53.5358 47.0921 53.0083 46.6632 52.6052L45.2934 54.0624ZM45.3335 54.1364C45.3335 54.151 45.3321 54.1592 45.3315 54.1623C45.3308 54.1653 45.3304 54.1663 45.3302 54.1667C45.33 54.1672 45.3285 54.1705 45.324 54.1768C45.3192 54.1833 45.31 54.1947 45.2934 54.2103L46.6632 55.6675C47.0921 55.2645 47.3335 54.7369 47.3335 54.1364H45.3335ZM45.2861 54.2172C45.2436 54.258 45.2136 54.2727 45.1403 54.2727V56.2727C45.7203 56.2727 46.249 56.0649 46.6706 55.6606L45.2861 54.2172ZM56.7614 59.5341L57.0337 60.4963L58.043 60.2106L57.7095 59.2161L56.7614 59.5341ZM55.2557 59.9602L54.3201 60.3133L54.6443 61.1725L55.528 60.9224L55.2557 59.9602ZM54.8366 59.2287L54.0348 59.8262L54.0414 59.835L54.0481 59.8437L54.8366 59.2287ZM54.098 58.6321L54.5452 57.7377L54.5452 57.7377L54.098 58.6321ZM51.2287 58.8594L51.7956 59.6832L51.7974 59.6819L51.2287 58.8594ZM51.0227 61.0043L50.3995 61.7863L50.3995 61.7863L51.0227 61.0043ZM52.4432 61.608L52.2006 62.5781L52.2047 62.5791L52.4432 61.608ZM54.0625 62.0057L53.824 62.9768L53.8266 62.9775L54.0625 62.0057ZM56.2429 63.0923L55.5289 63.7925L55.5323 63.7959L56.2429 63.0923ZM56.4205 66.6364L55.613 66.0463L55.6094 66.0514L56.4205 66.6364ZM49.9361 67.5028L50.4883 66.6691L50.4883 66.6691L49.9361 67.5028ZM48.5511 65.3864L48.3086 64.4162L47.3754 64.6495L47.5723 65.5911L48.5511 65.3864ZM50.142 64.9886L51.1103 64.7388L50.8623 63.7778L49.8995 64.0185L50.142 64.9886ZM51.0014 66.3097L50.4298 67.1302L50.4341 67.1332L51.0014 66.3097ZM54.5312 66.2528L55.1164 67.0637L55.1179 67.0626L54.5312 66.2528ZM54.8295 64.0938L54.1288 64.8072L54.1354 64.8136L54.8295 64.0938ZM53.608 63.5114L53.3798 64.485L53.3813 64.4853L53.608 63.5114ZM51.7898 63.0852L51.5592 64.0583L51.5616 64.0588L51.7898 63.0852ZM49.5881 61.9844L48.8538 62.6633L48.8605 62.6704L49.5881 61.9844ZM49.4105 58.4688L48.6067 57.8739L48.6028 57.8791L49.4105 58.4688ZM50.8381 57.3537L50.4313 56.4402L50.4286 56.4414L50.8381 57.3537ZM55.4403 57.6591L54.8306 58.4517L54.8336 58.454L55.4403 57.6591ZM56.489 58.5719L54.9834 58.998L55.528 60.9224L57.0337 60.4963L56.489 58.5719ZM56.1913 59.6072C56.0571 59.2515 55.8645 58.9205 55.6251 58.6137L54.0481 59.8437C54.1782 60.0104 54.2649 60.1671 54.3201 60.3133L56.1913 59.6072ZM55.6385 58.6312C55.3513 58.2457 54.9751 57.9526 54.5452 57.7377L53.6508 59.5265C53.8459 59.6241 53.9621 59.7287 54.0348 59.8262L55.6385 58.6312ZM54.5452 57.7377C54.0501 57.4901 53.4829 57.3977 52.8977 57.3977V59.3977C53.288 59.3977 53.521 59.4616 53.6508 59.5265L54.5452 57.7377ZM52.8977 57.3977C52.0749 57.3977 51.3077 57.5889 50.6599 58.0369L51.7974 59.6819C52.0398 59.5143 52.3854 59.3977 52.8977 59.3977V57.3977ZM50.6618 58.0356C49.9945 58.4948 49.5682 59.169 49.5682 60.017H51.5682C51.5682 59.9276 51.5822 59.83 51.7956 59.6832L50.6618 58.0356ZM49.5682 60.017C49.5682 60.7118 49.8385 61.3393 50.3995 61.7863L51.6459 60.2222C51.6009 60.1863 51.5682 60.1556 51.5682 60.017H49.5682ZM50.3995 61.7863C50.8674 62.1591 51.5032 62.4037 52.2006 62.5781L52.6857 60.6378C52.0953 60.4902 51.7842 60.3324 51.6459 60.2222L50.3995 61.7863ZM52.2047 62.5791L53.824 62.9768L54.301 61.0345L52.6817 60.6368L52.2047 62.5791ZM53.8266 62.9775C54.7005 63.1896 55.2292 63.4869 55.5289 63.7925L56.9569 62.3922C56.3001 61.7224 55.3753 61.2953 54.2984 61.0339L53.8266 62.9775ZM55.5323 63.7959C55.8019 64.0682 55.9602 64.4265 55.9602 64.9602H57.9602C57.9602 63.9694 57.6403 63.0824 56.9535 62.3887L55.5323 63.7959ZM55.9602 64.9602C55.9602 65.3787 55.8445 65.7297 55.6131 66.0463L57.2278 67.2264C57.7161 66.5582 57.9602 65.7917 57.9602 64.9602H55.9602ZM55.6094 66.0514C55.3726 66.3797 55.0253 66.664 54.5228 66.8873L55.3351 68.7149C56.1111 68.3701 56.758 67.8779 57.2315 67.2213L55.6094 66.0514ZM54.5228 66.8873C54.0356 67.1039 53.4355 67.2273 52.6989 67.2273V69.2273C53.6573 69.2273 54.544 69.0666 55.3351 68.7149L54.5228 66.8873ZM52.6989 67.2273C51.7294 67.2273 51.0144 67.0176 50.4883 66.6691L49.3839 68.3366C50.3161 68.954 51.443 69.2273 52.6989 69.2273V67.2273ZM50.4883 66.6691C49.9981 66.3444 49.6752 65.8759 49.53 65.1816L47.5723 65.5911C47.8154 66.7529 48.4158 67.6953 49.3839 68.3366L50.4883 66.6691ZM48.7937 66.3565L50.3846 65.9588L49.8995 64.0185L48.3086 64.4162L48.7937 66.3565ZM49.1738 65.2385C49.3737 66.0132 49.7779 66.676 50.4298 67.1302L51.573 65.4891C51.3821 65.3562 51.2134 65.1384 51.1103 64.7388L49.1738 65.2385ZM50.4341 67.1332C51.0738 67.5738 51.8465 67.75 52.6705 67.75V65.75C52.1213 65.75 51.7813 65.6326 51.5687 65.4862L50.4341 67.1332ZM52.6705 67.75C53.5839 67.75 54.433 67.5569 55.1164 67.0637L53.9461 65.4419C53.7109 65.6116 53.3195 65.75 52.6705 65.75V67.75ZM55.1179 67.0626C55.7766 66.5854 56.2273 65.9073 56.2273 65.0455H54.2273C54.2273 65.1211 54.2139 65.2479 53.9446 65.443L55.1179 67.0626ZM56.2273 65.0455C56.2273 64.4038 55.9904 63.824 55.5237 63.3739L54.1354 64.8136C54.199 64.8749 54.2273 64.9295 54.2273 65.0455H56.2273ZM55.5303 63.3803C55.0829 62.941 54.4771 62.6869 53.8347 62.5374L53.3813 64.4853C53.8373 64.5915 54.0459 64.7257 54.1288 64.8072L55.5303 63.3803ZM53.8361 62.5377L52.018 62.1116L51.5616 64.0588L53.3798 64.485L53.8361 62.5377ZM52.0204 62.1122C51.122 61.8993 50.5988 61.5986 50.3157 61.2984L48.8605 62.6704C49.5149 63.3645 50.4595 63.7977 51.5592 64.0583L52.0204 62.1122ZM50.3223 61.3055C50.0471 61.0078 49.892 60.6311 49.892 60.1023H47.892C47.892 61.0791 48.201 61.9572 48.8538 62.6632L50.3223 61.3055ZM49.892 60.1023C49.892 59.6874 50.004 59.3518 50.2182 59.0584L48.6028 57.8791C48.1257 58.5327 47.892 59.2861 47.892 60.1023H49.892ZM50.2144 59.0636C50.451 58.7438 50.7837 58.4742 51.2475 58.266L50.4286 56.4414C49.6898 56.773 49.0708 57.2467 48.6067 57.8739L50.2144 59.0636ZM51.2449 58.2672C51.7044 58.0626 52.2491 57.9489 52.8977 57.9489V55.9489C52.0123 55.9489 51.1838 56.105 50.4313 56.4402L51.2449 58.2672ZM52.8977 57.9489C53.8412 57.9489 54.4467 58.1564 54.8306 58.4517L56.0501 56.8665C55.2029 56.2148 54.1134 55.9489 52.8977 55.9489V57.9489ZM54.8336 58.454C55.2868 58.8 55.6131 59.2551 55.8133 59.8521L57.7095 59.2161C57.3888 58.26 56.8344 57.4652 56.0471 56.8642L54.8336 58.454ZM64.2276 57.0909H65.2276V56.0909H64.2276V57.0909ZM64.2276 58.5114V59.5114H65.2276V58.5114H64.2276ZM58.5742 58.5114H57.5742V59.5114H58.5742V58.5114ZM58.5742 57.0909V56.0909H57.5742V57.0909H58.5742ZM60.2219 54.4773V53.4773H59.2219V54.4773H60.2219ZM61.8981 54.4773H62.8981V53.4773H61.8981V54.4773ZM62.104 65.9403L61.239 66.4421L61.245 66.4523L61.2512 66.4625L62.104 65.9403ZM62.6438 66.4091L62.2972 67.3471L62.3093 67.3516L62.3216 67.3557L62.6438 66.4091ZM63.8015 66.4943L63.9595 67.4818L63.9786 67.4787L63.9976 67.4749L63.8015 66.4943ZM64.0856 66.4375L65.0609 66.2167L64.8456 65.2657L63.8895 65.4569L64.0856 66.4375ZM64.4265 67.9432L64.7776 68.8795L65.5944 68.5732L65.4018 67.7224L64.4265 67.9432ZM63.9506 68.071L63.7458 67.0922L63.7349 67.0945L63.7241 67.097L63.9506 68.071ZM61.7844 67.8366L61.3721 68.7477L61.3757 68.7493L61.7844 67.8366ZM60.6623 66.9062L59.8448 67.4822L59.8492 67.4884L60.6623 66.9062ZM63.2276 57.0909V58.5114H65.2276V57.0909H63.2276ZM64.2276 57.5114H58.5742V59.5114H64.2276V57.5114ZM59.5742 58.5114V57.0909H57.5742V58.5114H59.5742ZM58.5742 58.0909H64.2276V56.0909H58.5742V58.0909ZM60.2219 55.4773H61.8981V53.4773H60.2219V55.4773ZM60.8981 54.4773V64.875H62.8981V54.4773H60.8981ZM60.8981 64.875C60.8981 65.4124 60.9702 65.9786 61.239 66.4421L62.9691 65.4386C62.9713 65.4424 62.9509 65.4076 62.9314 65.3066C62.9122 65.2074 62.8981 65.0664 62.8981 64.875H60.8981ZM61.2512 66.4625C61.4895 66.8518 61.8339 67.1759 62.2972 67.3471L62.9905 65.4711C62.9931 65.4721 62.9962 65.4735 62.9991 65.4752C63.0019 65.4769 63.0027 65.4777 63.0012 65.4765C62.9985 65.4742 62.9819 65.4591 62.9569 65.4182L61.2512 66.4625ZM62.3216 67.3557C62.6527 67.4685 62.9963 67.5227 63.3469 67.5227V65.5227C63.2051 65.5227 63.08 65.5012 62.9661 65.4624L62.3216 67.3557ZM63.3469 67.5227C63.5595 67.5227 63.7689 67.5123 63.9595 67.4818L63.6435 65.5069C63.5973 65.5143 63.5037 65.5227 63.3469 65.5227V67.5227ZM63.9976 67.4749C64.116 67.4512 64.2107 67.4323 64.2817 67.4181L63.8895 65.4569C63.8184 65.4711 63.7237 65.4901 63.6054 65.5137L63.9976 67.4749ZM63.1103 66.6583L63.4512 68.164L65.4018 67.7224L65.0609 66.2167L63.1103 66.6583ZM64.0754 67.0069C64.0312 67.0234 63.9294 67.0538 63.7458 67.0922L64.1555 69.0498C64.3791 69.003 64.5945 68.9482 64.7776 68.8795L64.0754 67.0069ZM63.7241 67.097C63.6216 67.1209 63.4463 67.142 63.1765 67.142V69.142C63.5317 69.142 63.8725 69.1159 64.1772 69.045L63.7241 67.097ZM63.1765 67.142C62.8512 67.142 62.526 67.0731 62.1932 66.924L61.3757 68.7493C61.952 69.0074 62.5548 69.142 63.1765 69.142V67.142ZM62.1968 66.9256C61.9134 66.7973 61.6754 66.6035 61.4754 66.3241L59.8492 67.4884C60.2458 68.0423 60.7559 68.4688 61.3721 68.7477L62.1968 66.9256ZM61.4798 66.3303C61.3313 66.1195 61.2219 65.8087 61.2219 65.3295H59.2219C59.2219 66.1193 59.4062 66.8596 59.8448 67.4822L61.4798 66.3303ZM61.2219 65.3295V54.4773H59.2219V65.3295H61.2219ZM66.7489 68H65.7489V69H66.7489V68ZM66.7489 57.0909V56.0909H65.7489V57.0909H66.7489ZM68.4251 57.0909H69.4251V56.0909H68.4251V57.0909ZM68.4251 68V69H69.4251V68H68.4251ZM66.756 54.9389L66.0638 55.6606L66.0711 55.6675L66.756 54.9389ZM66.756 53.3338L66.0711 52.6051L66.0638 52.6121L66.756 53.3338ZM68.4393 53.3338L67.747 54.0555L67.7544 54.0624L68.4393 53.3338ZM68.4393 54.9389L67.7543 54.2103L67.747 54.2172L68.4393 54.9389ZM67.7489 68V57.0909H65.7489V68H67.7489ZM66.7489 58.0909H68.4251V56.0909H66.7489V58.0909ZM67.4251 57.0909V68H69.4251V57.0909H67.4251ZM68.4251 67H66.7489V69H68.4251V67ZM67.6012 54.2727C67.5275 54.2727 67.4911 54.2574 67.4409 54.2103L66.0711 55.6675C66.4945 56.0655 67.0215 56.2727 67.6012 56.2727V54.2727ZM67.4483 54.2172C67.4326 54.2022 67.4237 54.1911 67.4191 54.1846C67.4146 54.1783 67.413 54.1747 67.4125 54.1735C67.412 54.1724 67.4112 54.1704 67.4104 54.1662C67.4095 54.1618 67.408 54.1523 67.408 54.1364H65.408C65.408 54.73 65.6416 55.2556 66.0638 55.6606L67.4483 54.2172ZM67.408 54.1364C67.408 54.1204 67.4095 54.1109 67.4104 54.1065C67.4112 54.1023 67.412 54.1003 67.4125 54.0992C67.413 54.098 67.4146 54.0945 67.4191 54.0881C67.4237 54.0816 67.4326 54.0705 67.4483 54.0555L66.0638 52.6121C65.6416 53.0171 65.408 53.5427 65.408 54.1364H67.408ZM67.4409 54.0624C67.4911 54.0153 67.5275 54 67.6012 54V52C67.0215 52 66.4945 52.2073 66.0711 52.6052L67.4409 54.0624ZM67.6012 54C67.6746 54 67.7046 54.0148 67.7471 54.0555L69.1315 52.6121C68.7099 52.2078 68.1812 52 67.6012 52V54ZM67.7544 54.0624C67.7709 54.078 67.7801 54.0894 67.7849 54.0959C67.7895 54.1023 67.7909 54.1055 67.7911 54.106C67.7913 54.1064 67.7918 54.1074 67.7924 54.1104C67.793 54.1135 67.7944 54.1217 67.7944 54.1364H69.7944C69.7944 53.5358 69.553 53.0083 69.1242 52.6052L67.7544 54.0624ZM67.7944 54.1364C67.7944 54.151 67.793 54.1592 67.7924 54.1623C67.7918 54.1653 67.7913 54.1663 67.7911 54.1667C67.7909 54.1672 67.7895 54.1705 67.7849 54.1768C67.7801 54.1833 67.7709 54.1947 67.7544 54.2103L69.1242 55.6675C69.553 55.2645 69.7944 54.7369 69.7944 54.1364H67.7944ZM67.747 54.2172C67.7046 54.258 67.6746 54.2727 67.6012 54.2727V56.2727C68.1812 56.2727 68.7099 56.0649 69.1315 55.6606L67.747 54.2172ZM73.1712 68V69H74.1712V68H73.1712ZM71.495 68H70.495V69H71.495V68ZM71.495 57.0909V56.0909H70.495V57.0909H71.495ZM73.1143 57.0909H74.1143V56.0909H73.1143V57.0909ZM73.1143 58.7955H72.1143V59.7955H73.1143V58.7955ZM73.2564 58.7955V59.7955H73.8962L74.1644 59.2145L73.2564 58.7955ZM74.4212 57.4602L74.9635 58.3004L74.9688 58.2969L74.4212 57.4602ZM78.3771 57.4034L77.8972 58.2807L77.903 58.2839L78.3771 57.4034ZM79.6697 58.767L78.7767 59.217L78.7781 59.2198L79.6697 58.767ZM80.1314 68V69H81.1314V68H80.1314ZM78.4553 68H77.4553V69H78.4553V68ZM77.7876 59.179L77.0523 59.8567L77.0556 59.8603L77.7876 59.179ZM74.5206 58.8026L74.0383 57.9265L74.0341 57.9289L74.5206 58.8026ZM73.5334 59.8182L72.6544 59.3413L72.6544 59.3413L73.5334 59.8182ZM72.1712 61.4375V68H74.1712V61.4375H72.1712ZM73.1712 67H71.495V69H73.1712V67ZM72.495 68V57.0909H70.495V68H72.495ZM71.495 58.0909H73.1143V56.0909H71.495V58.0909ZM72.1143 57.0909V58.7955H74.1143V57.0909H72.1143ZM73.1143 59.7955H73.2564V57.7955H73.1143V59.7955ZM74.1644 59.2145C74.3392 58.8356 74.5993 58.5355 74.9635 58.3004L73.8789 56.62C73.2014 57.0573 72.6849 57.6473 72.3484 58.3764L74.1644 59.2145ZM74.9688 58.2969C75.2819 58.092 75.7472 57.9489 76.4382 57.9489V55.9489C75.4815 55.9489 74.602 56.1467 73.8735 56.6235L74.9688 58.2969ZM76.4382 57.9489C77.0377 57.9489 77.5136 58.0709 77.8972 58.2807L78.857 56.5261C78.1327 56.1299 77.316 55.9489 76.4382 55.9489V57.9489ZM77.903 58.2839C78.2607 58.4765 78.5527 58.7725 78.7767 59.217L80.5628 58.3171C80.1712 57.54 79.6015 56.9269 78.8512 56.5229L77.903 58.2839ZM78.7781 59.2198C78.9935 59.6439 79.1314 60.2429 79.1314 61.0682H81.1314C81.1314 60.0374 80.9615 59.1023 80.5614 58.3143L78.7781 59.2198ZM79.1314 61.0682V68H81.1314V61.0682H79.1314ZM80.1314 67H78.4553V69H80.1314V67ZM79.4553 68V61.1818H77.4553V68H79.4553ZM79.4553 61.1818C79.4553 60.153 79.1852 59.2128 78.5197 58.4977L77.0556 59.8603C77.2802 60.1016 77.4553 60.4966 77.4553 61.1818H79.4553ZM78.523 58.5013C77.854 57.7754 76.9556 57.4545 75.9553 57.4545V59.4545C76.5079 59.4545 76.8311 59.6167 77.0523 59.8567L78.523 58.5013ZM75.9553 57.4545C75.2709 57.4545 74.6235 57.6044 74.0383 57.9265L75.0029 59.6786C75.2605 59.5367 75.5696 59.4545 75.9553 59.4545V57.4545ZM74.0341 57.9289C73.4412 58.259 72.9806 58.7402 72.6544 59.3413L74.4123 60.2951C74.5692 60.006 74.7667 59.8101 75.0071 59.6762L74.0341 57.9289ZM72.6544 59.3413C72.3159 59.9653 72.1712 60.6779 72.1712 61.4375H74.1712C74.1712 60.9282 74.2679 60.5612 74.4123 60.2951L72.6544 59.3413ZM85.5096 72.0057L85.8464 71.0641L85.8396 71.0617L85.5096 72.0057ZM84.0536 71.196L84.7082 70.44L84.7075 70.4394L84.0536 71.196ZM83.1374 70.1307L82.5628 69.3123L81.8011 69.8471L82.2799 70.6452L83.1374 70.1307ZM84.4727 69.1932L85.2681 68.5871L84.6852 67.8221L83.898 68.3748L84.4727 69.1932ZM85.0479 69.875L85.7946 69.2098L85.7885 69.203L85.0479 69.875ZM85.9996 70.5497L86.43 69.647L86.4254 69.6449L85.9996 70.5497ZM89.7781 70.2017L90.3749 71.0041L90.3749 71.0041L89.7781 70.2017ZM90.6374 65.983H91.6374V64.983H90.6374V65.983ZM90.4954 65.983V64.983H89.9383L89.6451 65.4566L90.4954 65.983ZM89.9698 66.7216L89.1791 66.1094L89.1777 66.1113L89.9698 66.7216ZM89.0039 67.4957L89.475 68.3778L89.4786 68.3759L89.0039 67.4957ZM84.9414 67.2045L84.4278 68.0626L84.4303 68.0641L84.9414 67.2045ZM83.2866 65.3864L82.3943 65.8378L82.3964 65.842L83.2866 65.3864ZM83.2724 59.5696L84.1759 59.9981L84.1768 59.9961L83.2724 59.5696ZM84.913 57.6378L85.4572 58.4768L85.4612 58.4742L84.913 57.6378ZM89.0323 57.304L88.5383 58.1735L88.55 58.18L89.0323 57.304ZM89.9982 58.0994L89.1967 58.6974L89.202 58.7045L89.2075 58.7116L89.9982 58.0994ZM90.5238 58.8239L89.6854 59.3689L89.9811 59.8239H90.5238V58.8239ZM90.6942 58.8239V59.8239H91.6942V58.8239H90.6942ZM90.6942 57.0909V56.0909H89.6942V57.0909H90.6942ZM92.3136 57.0909H93.3136V56.0909H92.3136V57.0909ZM91.6744 70.5994L90.865 70.012L90.8597 70.0194L91.6744 70.5994ZM89.9698 71.8991L89.6112 70.9656L89.6038 70.9685L89.9698 71.8991ZM89.2454 65.8622L88.6926 65.0289L88.6926 65.0289L89.2454 65.8622ZM90.3036 64.5341L91.2263 64.9198L91.2263 64.9198L90.3036 64.5341ZM90.3107 60.3793L91.2412 60.0129L91.2412 60.0129L90.3107 60.3793ZM89.2596 58.9659L88.6675 59.7718L88.6675 59.7718L89.2596 58.9659ZM85.7653 58.9943L85.1602 58.1981L85.1563 58.2011L85.7653 58.9943ZM84.707 60.4432L83.7756 60.0793L83.7731 60.0857L84.707 60.4432ZM84.7141 64.4702L83.7877 64.8468L83.7915 64.8559L84.7141 64.4702ZM85.7795 65.8338L85.2021 66.6504L85.2115 66.6569L85.7795 65.8338ZM87.5977 71.3182C86.8693 71.3182 86.2931 71.2239 85.8464 71.0641L85.1728 72.9473C85.8908 73.2041 86.7067 73.3182 87.5977 73.3182V71.3182ZM85.8396 71.0617C85.3529 70.8916 84.984 70.6788 84.7082 70.44L83.399 71.952C83.8998 72.3856 84.5015 72.7126 85.1796 72.9497L85.8396 71.0617ZM84.7075 70.4394C84.3926 70.1673 84.1602 69.8917 83.9949 69.6162L82.2799 70.6452C82.5692 71.1273 82.9476 71.5619 83.3998 71.9526L84.7075 70.4394ZM83.7121 70.9491L85.0473 70.0116L83.898 68.3748L82.5628 69.3123L83.7121 70.9491ZM83.6772 69.7992C83.8512 70.0276 84.0628 70.2775 84.3074 70.547L85.7885 69.203C85.5691 68.9612 85.3972 68.7565 85.2681 68.5871L83.6772 69.7992ZM84.3013 70.5402C84.644 70.9249 85.0817 71.2229 85.5738 71.4545L86.4254 69.6449C86.1127 69.4977 85.9159 69.3459 85.7946 69.2098L84.3013 70.5402ZM85.5693 71.4524C86.1581 71.7331 86.8536 71.8409 87.5977 71.8409V69.8409C87.0254 69.8409 86.6556 69.7546 86.43 69.647L85.5693 71.4524ZM87.5977 71.8409C88.6422 71.8409 89.5925 71.586 90.3749 71.0041L89.1812 69.3993C88.8178 69.6697 88.3144 69.8409 87.5977 69.8409V71.8409ZM90.3749 71.0041C91.2693 70.3388 91.6374 69.3288 91.6374 68.1989H89.6374C89.6374 68.8871 89.4326 69.2123 89.1812 69.3993L90.3749 71.0041ZM91.6374 68.1989V65.983H89.6374V68.1989H91.6374ZM90.6374 64.983H90.4954V66.983H90.6374V64.983ZM89.6451 65.4566C89.5477 65.6139 89.3958 65.8295 89.1791 66.1094L90.7605 67.3338C90.9983 67.0266 91.1968 66.7497 91.3456 66.5093L89.6451 65.4566ZM89.1777 66.1113C89.0632 66.2598 88.864 66.4351 88.5292 66.6156L89.4786 68.3759C89.9867 68.1019 90.4314 67.761 90.762 67.3319L89.1777 66.1113ZM88.5328 66.6137C88.3159 66.7295 87.9355 66.8295 87.3136 66.8295V68.8295C88.1121 68.8295 88.8586 68.7071 89.475 68.3778L88.5328 66.6137ZM87.3136 66.8295C86.5978 66.8295 85.9863 66.6624 85.4525 66.345L84.4303 68.0641C85.2981 68.58 86.2679 68.8295 87.3136 68.8295V66.8295ZM85.455 66.3465C84.9358 66.0357 84.5075 65.5769 84.1767 64.9307L82.3964 65.842C82.88 66.7867 83.555 67.5401 84.4278 68.0626L85.455 66.3465ZM84.1789 64.9349C83.864 64.3125 83.6829 63.51 83.6829 62.4886H81.6829C81.6829 63.74 81.9043 64.8693 82.3943 65.8378L84.1789 64.9349ZM83.6829 62.4886C83.6829 61.4877 83.8588 60.6668 84.1759 59.9981L82.3688 59.1411C81.9 60.1296 81.6829 61.2548 81.6829 62.4886H83.6829ZM84.1768 59.9961C84.4989 59.3132 84.9284 58.8198 85.4572 58.4767L84.3688 56.7988C83.4961 57.3649 82.8318 58.1593 82.3679 59.1431L84.1768 59.9961ZM85.4612 58.4742C85.9834 58.1319 86.5986 57.9489 87.342 57.9489V55.9489C86.2482 55.9489 85.2441 56.2252 84.3648 56.8014L85.4612 58.4742ZM87.342 57.9489C87.9565 57.9489 88.3277 58.0538 88.5383 58.1734L89.5263 56.4345C88.9036 56.0807 88.1479 55.9489 87.342 55.9489V57.9489ZM88.55 58.18C88.8815 58.3625 89.0806 58.5418 89.1967 58.6974L90.7997 57.5015C90.4708 57.0605 90.0259 56.7095 89.5146 56.428L88.55 58.18ZM89.2075 58.7116C89.4271 58.9953 89.5836 59.2124 89.6854 59.3689L91.3622 58.2789C91.2177 58.0566 91.0238 57.7907 90.7889 57.4873L89.2075 58.7116ZM90.5238 59.8239H90.6942V57.8239H90.5238V59.8239ZM91.6942 58.8239V57.0909H89.6942V58.8239H91.6942ZM90.6942 58.0909H92.3136V56.0909H90.6942V58.0909ZM91.3136 57.0909V68.3125H93.3136V57.0909H91.3136ZM91.3136 68.3125C91.3136 69.1007 91.1354 69.6396 90.8651 70.012L92.4837 71.1868C93.0656 70.385 93.3136 69.3993 93.3136 68.3125H91.3136ZM90.8597 70.0194C90.5587 70.4423 90.1532 70.7575 89.6113 70.9656L90.3284 72.8327C91.2163 72.4916 91.9473 71.9403 92.489 71.1794L90.8597 70.0194ZM89.6038 70.9685C89.0254 71.196 88.3612 71.3182 87.5977 71.3182V73.3182C88.5766 73.3182 89.4937 73.161 90.3359 72.8297L89.6038 70.9685ZM87.5408 67.3239C88.3685 67.3239 89.1389 67.1328 89.7981 66.6956L88.6926 65.0289C88.4238 65.2072 88.0579 65.3239 87.5408 65.3239V67.3239ZM89.7981 66.6956C90.447 66.2652 90.9183 65.6564 91.2263 64.9198L89.381 64.1484C89.206 64.567 88.9718 64.8437 88.6926 65.0289L89.7981 66.6956ZM91.2263 64.9198C91.5311 64.1905 91.6658 63.3614 91.6658 62.4602H89.6658C89.6658 63.1689 89.5591 63.7224 89.381 64.1484L91.2263 64.9198ZM91.6658 62.4602C91.6658 61.5752 91.5326 60.7532 91.2412 60.0129L89.3802 60.7456C89.5623 61.208 89.6658 61.7733 89.6658 62.4602H91.6658ZM91.2412 60.0129C90.9441 59.2582 90.4858 58.6259 89.8517 58.16L88.6675 59.7718C88.9615 59.9877 89.2039 60.2977 89.3802 60.7456L91.2412 60.0129ZM89.8517 58.16C89.1861 57.671 88.3952 57.4545 87.5408 57.4545V59.4545C88.0501 59.4545 88.4051 59.579 88.6675 59.7718L89.8517 58.16ZM87.5408 57.4545C86.6559 57.4545 85.8396 57.6818 85.1602 58.1982L86.3704 59.7905C86.6379 59.5871 87.0054 59.4545 87.5408 59.4545V57.4545ZM85.1563 58.2011C84.5286 58.683 84.0718 59.3211 83.7756 60.0793L85.6385 60.807C85.8158 60.3531 86.0645 60.0253 86.3742 59.7875L85.1563 58.2011ZM83.7731 60.0857C83.4918 60.8205 83.359 61.6161 83.359 62.4602H85.359C85.359 61.8271 85.4582 61.278 85.6409 60.8007L83.7731 60.0857ZM83.359 62.4602C83.359 63.3211 83.4935 64.123 83.7877 64.8467L85.6405 64.0936C85.4613 63.6526 85.359 63.1145 85.359 62.4602H83.359ZM83.7915 64.8559C84.0986 65.5904 84.5664 66.2008 85.2021 66.6503L86.3568 65.0173C86.0551 64.804 85.8127 64.5052 85.6368 64.0845L83.7915 64.8559ZM85.2115 66.6569C85.8855 67.1219 86.6821 67.3239 87.5408 67.3239V65.3239C86.9981 65.3239 86.6204 65.1991 86.3474 65.0107L85.2115 66.6569ZM97.5692 63.9091H96.5692V64.9091H97.5692V63.9091ZM97.5692 63.8239L96.5692 63.8134V63.8239H97.5692ZM97.8533 61.6648L96.9055 61.346L96.9055 61.346L97.8533 61.6648ZM98.6204 60.3651L99.3275 61.0722L99.3275 61.0722L98.6204 60.3651ZM99.8136 59.4489L100.329 60.3056L100.334 60.3025L99.8136 59.4489ZM100.566 58.8452L101.288 59.5374L101.295 59.5301L100.566 58.8452ZM101.092 58.0284L100.173 57.6328L100.168 57.6448L101.092 58.0284ZM97.7539 54.9744L97.3455 54.0616L97.3455 54.0616L97.7539 54.9744ZM96.8519 55.7344L97.6717 56.3071L97.6717 56.3071L96.8519 55.7344ZM96.4329 57.0909V58.0909H97.3674L97.4306 57.1585L96.4329 57.0909ZM94.6431 57.0909L93.6442 57.0439L93.5949 58.0909H94.6431V57.0909ZM95.2681 55.0241L94.4371 54.4679L94.4339 54.4726L95.2681 55.0241ZM96.7809 53.7102L96.3473 52.8091L96.3446 52.8104L96.7809 53.7102ZM101.049 53.7528L100.575 54.6333L100.578 54.6348L101.049 53.7528ZM102.484 55.1165L101.62 55.6195L101.623 55.6247L102.484 55.1165ZM102.754 58.5043L101.82 58.1474L101.816 58.1566L102.754 58.5043ZM102.072 59.6335L101.329 58.9645L101.323 58.9705L102.072 59.6335ZM101.007 60.5142L100.484 59.6619L100.477 59.6662L101.007 60.5142ZM100.005 61.3381L100.755 62.0001L100.76 61.9939L100.005 61.3381ZM99.2738 63.8239L98.2739 63.8077L98.2738 63.8158V63.8239H99.2738ZM99.2738 63.9091V64.9091H100.274V63.9091H99.2738ZM97.5763 67.7372L98.2835 67.0301L98.2835 67.0301L97.5763 67.7372ZM97.5763 65.9332L98.2835 66.6403L98.2835 66.6403L97.5763 65.9332ZM99.5792 67.4744L98.7254 66.9538L98.7207 66.9615L98.7162 66.9693L99.5792 67.4744ZM99.1175 67.9432L99.6321 68.8007L99.6381 68.797L99.1175 67.9432ZM98.5692 63.9091V63.8239H96.5692V63.9091H98.5692ZM98.5692 63.8343C98.5781 62.9797 98.6686 62.3777 98.8012 61.9835L96.9055 61.346C96.6782 62.0219 96.5793 62.8593 96.5693 63.8134L98.5692 63.8343ZM98.8012 61.9835C98.9418 61.5652 99.1253 61.2744 99.3275 61.0722L97.9133 59.6579C97.4526 60.1186 97.1247 60.6942 96.9055 61.346L98.8012 61.9835ZM99.3275 61.0722C99.5934 60.8063 99.9244 60.5494 100.329 60.3056L99.2978 58.5921C98.7747 58.9071 98.3103 59.261 97.9133 59.658L99.3275 61.0722ZM100.334 60.3025C100.686 60.0879 101.005 59.8328 101.288 59.5374L99.8447 58.1529C99.683 58.3216 99.4998 58.4689 99.2927 58.5952L100.334 60.3025ZM101.295 59.5301C101.602 59.2032 101.843 58.8282 102.015 58.412L100.168 57.6448C100.086 57.8441 99.9756 58.0137 99.8378 58.1603L101.295 59.5301ZM102.01 58.424C102.203 57.9775 102.291 57.4999 102.291 57.0057H100.291C100.291 57.2595 100.246 57.4637 100.174 57.6328L102.01 58.424ZM102.291 57.0057C102.291 56.3796 102.142 55.7842 101.807 55.2599L100.121 56.3367C100.222 56.4942 100.291 56.7037 100.291 57.0057H102.291ZM101.807 55.2599C101.492 54.7666 101.065 54.3825 100.542 54.1178L99.6387 55.902C99.8454 56.0067 100.001 56.1481 100.121 56.3367L101.807 55.2599ZM100.542 54.1178C100.026 53.8561 99.4639 53.733 98.8761 53.733V55.733C99.1784 55.733 99.4264 55.7945 99.6387 55.902L100.542 54.1178ZM98.8761 53.733C98.3449 53.733 97.8318 53.8441 97.3455 54.0616L98.1623 55.8872C98.3957 55.7828 98.6308 55.733 98.8761 55.733V53.733ZM97.3455 54.0616C96.8087 54.3018 96.3699 54.6782 96.0322 55.1617L97.6717 56.3071C97.8169 56.0993 97.9794 55.9691 98.1623 55.8872L97.3455 54.0616ZM96.0322 55.1617C95.6577 55.6976 95.4814 56.341 95.4352 57.0233L97.4306 57.1585C97.4601 56.7234 97.5632 56.4624 97.6717 56.3071L96.0322 55.1617ZM96.4329 56.0909H94.6431V58.0909H96.4329V56.0909ZM95.642 57.1379C95.6729 56.4814 95.8389 55.974 96.1023 55.5757L94.4339 54.4726C93.9397 55.2201 93.6891 56.0906 93.6442 57.0439L95.642 57.1379ZM96.0991 55.5804C96.3831 55.1562 96.7506 54.8362 97.2172 54.61L96.3446 52.8104C95.5611 53.1903 94.9202 53.7463 94.4371 54.4679L96.0991 55.5804ZM97.2145 54.6113C97.6962 54.3795 98.2443 54.2557 98.8761 54.2557V52.2557C97.9737 52.2557 97.1251 52.4349 96.3473 52.8091L97.2145 54.6113ZM98.8761 54.2557C99.5756 54.2557 100.131 54.3941 100.575 54.6333L101.523 52.8724C100.737 52.4487 99.8432 52.2557 98.8761 52.2557V54.2557ZM100.578 54.6348C101.044 54.8836 101.382 55.2107 101.62 55.6195L103.348 54.6135C102.914 53.867 102.296 53.285 101.521 52.8709L100.578 54.6348ZM101.623 55.6247C101.864 56.0331 101.995 56.5124 101.995 57.0909H103.995C103.995 56.1921 103.786 55.3551 103.345 54.6082L101.623 55.6247ZM101.995 57.0909C101.995 57.5084 101.931 57.8561 101.82 58.1474L103.688 58.8611C103.899 58.3096 103.995 57.7151 103.995 57.0909H101.995ZM101.816 58.1566C101.704 58.4606 101.542 58.7277 101.329 58.9646L102.815 60.3025C103.199 59.8764 103.492 59.3908 103.692 58.8519L101.816 58.1566ZM101.323 58.9705C101.102 59.2208 100.825 59.4525 100.484 59.6619L101.53 61.3665C102.022 61.0645 102.455 60.7091 102.821 60.2966L101.323 58.9705ZM100.477 59.6662C99.9986 59.965 99.5818 60.3008 99.2505 60.6822L100.76 61.9939C100.931 61.7977 101.182 61.5842 101.537 61.3622L100.477 59.6662ZM99.2559 60.676C98.8994 61.0796 98.6492 61.5522 98.4978 62.0759L100.419 62.6315C100.495 62.3692 100.609 62.1647 100.755 62.0001L99.2559 60.676ZM98.4978 62.0759C98.3514 62.5821 98.2843 63.167 98.2739 63.8077L100.274 63.84C100.282 63.3065 100.338 62.9113 100.419 62.6315L98.4978 62.0759ZM98.2738 63.8239V63.9091H100.274V63.8239H98.2738ZM99.2738 62.9091H97.5692V64.9091H99.2738V62.9091ZM98.4783 67.1136C98.397 67.1136 98.3496 67.0962 98.2835 67.0301L96.8692 68.4443C97.305 68.8801 97.8589 69.1136 98.4783 69.1136V67.1136ZM98.2835 67.0301C98.2173 66.964 98.1999 66.9166 98.1999 66.8352H96.1999C96.1999 67.4546 96.4335 68.0086 96.8692 68.4443L98.2835 67.0301ZM98.1999 66.8352C98.1999 66.7539 98.2173 66.7065 98.2835 66.6403L96.8692 65.2261C96.4335 65.6619 96.1999 66.2158 96.1999 66.8352H98.1999ZM98.2835 66.6403C98.3496 66.5742 98.397 66.5568 98.4783 66.5568V64.5568C97.8589 64.5568 97.305 64.7904 96.8692 65.2261L98.2835 66.6403ZM98.4783 66.5568C98.5597 66.5568 98.6071 66.5742 98.6732 66.6403L100.087 65.2261C99.6517 64.7904 99.0977 64.5568 98.4783 64.5568V66.5568ZM98.6732 66.6403C98.7393 66.7065 98.7567 66.7539 98.7567 66.8352H100.757C100.757 66.2158 100.523 65.6619 100.087 65.2261L98.6732 66.6403ZM98.7567 66.8352C98.7567 66.8875 98.7461 66.9198 98.7254 66.9538L100.433 67.995C100.649 67.6408 100.757 67.247 100.757 66.8352H98.7567ZM98.7162 66.9693C98.687 67.019 98.6514 67.0561 98.5969 67.0894L99.6381 68.797C99.9719 68.5935 100.244 68.3181 100.442 67.9796L98.7162 66.9693ZM98.603 67.0857C98.5803 67.0994 98.5474 67.1136 98.4783 67.1136V69.1136C98.8828 69.1136 99.276 69.0143 99.632 68.8007L98.603 67.0857Z" fill="#E0BED7" mask="url(#path-2-outside-1_153_6)"/>
</svg>
