<svg width="121" height="100" viewBox="0 0 121 100" fill="none" xmlns="http://www.w3.org/2000/svg">
<path d="M0.5 0H120.5V100H0.5V0Z" fill="white"/>
<mask id="path-2-outside-1_150_20" maskUnits="userSpaceOnUse" x="3" y="27" width="114" height="45" fill="black">
<rect fill="white" x="3" y="27" width="114" height="45"/>
<path d="M31.8608 34.0909L27.8267 45H26.1222L22.0881 34.0909H23.9062L26.9176 42.7841H27.0312L30.0426 34.0909H31.8608ZM36.9513 45.2557C36.2601 45.2557 35.6327 45.1255 35.0692 44.8651C34.5058 44.5999 34.0584 44.2188 33.7269 43.7216C33.3955 43.2197 33.2298 42.6136 33.2298 41.9034C33.2298 41.2784 33.3529 40.7718 33.5991 40.3835C33.8453 39.9905 34.1744 39.6828 34.5863 39.4602C34.9982 39.2377 35.4528 39.072 35.9499 38.9631C36.4518 38.8494 36.9561 38.7595 37.4627 38.6932C38.1256 38.608 38.663 38.544 39.0749 38.5014C39.4916 38.4541 39.7946 38.3759 39.984 38.267C40.1781 38.1581 40.2752 37.9687 40.2752 37.6989V37.642C40.2752 36.9413 40.0835 36.3968 39.6999 36.0085C39.3211 35.6203 38.7459 35.4261 37.9741 35.4261C37.1739 35.4261 36.5465 35.6013 36.092 35.9517C35.6374 36.3021 35.3178 36.6761 35.1332 37.0739L33.5423 36.5057C33.8263 35.8428 34.2051 35.3267 34.6786 34.9574C35.1568 34.5833 35.6777 34.3229 36.2411 34.1761C36.8093 34.0246 37.368 33.9489 37.9173 33.9489C38.2676 33.9489 38.6701 33.9915 39.1246 34.0767C39.5839 34.1572 40.0266 34.3253 40.4528 34.581C40.8836 34.8366 41.2411 35.2225 41.5252 35.7386C41.8093 36.2547 41.9513 36.946 41.9513 37.8125V45H40.2752V43.5227H40.19C40.0763 43.7595 39.887 44.0128 39.6218 44.2827C39.3567 44.5526 39.0039 44.7822 38.5636 44.9716C38.1232 45.161 37.5858 45.2557 36.9513 45.2557ZM37.207 43.75C37.8699 43.75 38.4286 43.6198 38.8832 43.3594C39.3424 43.099 39.6881 42.7628 39.9201 42.3509C40.1568 41.9389 40.2752 41.5057 40.2752 41.0511V39.517C40.2042 39.6023 40.0479 39.6804 39.8065 39.7514C39.5697 39.8177 39.2951 39.8769 38.9826 39.929C38.6748 39.9763 38.3742 40.0189 38.0806 40.0568C37.7918 40.09 37.5574 40.1184 37.3775 40.142C36.9419 40.1989 36.5347 40.2912 36.1559 40.419C35.7818 40.5421 35.4788 40.7292 35.2468 40.9801C35.0195 41.2263 34.9059 41.5625 34.9059 41.9886C34.9059 42.571 35.1213 43.0114 35.5522 43.3097C35.9878 43.6032 36.5394 43.75 37.207 43.75ZM45.0107 45V34.0909H46.63V35.7386H46.7436C46.9425 35.1989 47.3023 34.7609 47.8232 34.4247C48.344 34.0885 48.9311 33.9205 49.5845 33.9205C49.7076 33.9205 49.8615 33.9228 50.0462 33.9276C50.2308 33.9323 50.3705 33.9394 50.4652 33.9489V35.6534C50.4084 35.6392 50.2782 35.6179 50.0746 35.5895C49.8757 35.5563 49.665 35.5398 49.4425 35.5398C48.9122 35.5398 48.4387 35.651 48.022 35.8736C47.6101 36.0914 47.2834 36.3944 47.0419 36.7827C46.8052 37.1662 46.6868 37.6042 46.6868 38.0966V45H45.0107ZM56.478 37.6H58.138V41.92H56.478V37.6ZM57.298 29.64C60.078 29.64 62.078 31.38 62.078 33.9C62.078 36.42 60.078 38.16 57.298 38.16C54.518 38.16 52.518 36.42 52.518 33.9C52.518 31.38 54.518 29.64 57.298 29.64ZM57.298 31.06C55.458 31.06 54.138 32.22 54.138 33.9C54.138 35.58 55.458 36.74 57.298 36.74C59.138 36.74 60.458 35.58 60.458 33.9C60.458 32.22 59.138 31.06 57.298 31.06ZM64.138 28.48H65.798V46.56H64.138V28.48ZM65.318 35.92H68.658V37.32H65.318V35.92ZM51.938 42.66L51.698 41.28C54.958 41.26 59.318 41.24 62.998 40.74L63.138 41.98C59.318 42.62 55.098 42.66 51.938 42.66ZM78.1516 30.4545V45H76.4755V30.4545H78.1516ZM85.7955 45.2273C84.7443 45.2273 83.8376 44.9953 83.0753 44.5312C82.3177 44.0625 81.733 43.4091 81.321 42.571C80.9138 41.7282 80.7102 40.7481 80.7102 39.6307C80.7102 38.5133 80.9138 37.5284 81.321 36.6761C81.733 35.8191 82.3059 35.1515 83.0398 34.6733C83.7784 34.1903 84.6402 33.9489 85.625 33.9489C86.1932 33.9489 86.7543 34.0436 87.3082 34.233C87.8622 34.4223 88.3665 34.7301 88.821 35.1562C89.2756 35.5777 89.6378 36.1364 89.9077 36.8324C90.1776 37.5284 90.3125 38.3854 90.3125 39.4034V40.1136H81.9034V38.6648H88.608C88.608 38.0492 88.4848 37.5 88.2386 37.017C87.9972 36.5341 87.6515 36.1529 87.2017 35.8736C86.7566 35.5942 86.2311 35.4545 85.625 35.4545C84.9574 35.4545 84.3797 35.6203 83.892 35.9517C83.4091 36.2784 83.0374 36.7045 82.777 37.2301C82.5166 37.7557 82.3864 38.3191 82.3864 38.9205V39.8864C82.3864 40.7102 82.5284 41.4086 82.8125 41.9815C83.1013 42.5497 83.5014 42.983 84.0128 43.2812C84.5241 43.5748 85.1184 43.7216 85.7955 43.7216C86.2358 43.7216 86.6335 43.66 86.9886 43.5369C87.3485 43.4091 87.6586 43.2197 87.919 42.9688C88.1795 42.7131 88.3807 42.3958 88.5227 42.017L90.142 42.4716C89.9716 43.0208 89.6851 43.5038 89.2827 43.9205C88.8802 44.3324 88.383 44.6544 87.7912 44.8864C87.1993 45.1136 86.5341 45.2273 85.7955 45.2273ZM97.6065 34.0909V35.5114H91.9531V34.0909H97.6065ZM93.6009 31.4773H95.277V41.875C95.277 42.3485 95.3456 42.7036 95.483 42.9403C95.625 43.1723 95.8049 43.3286 96.0227 43.4091C96.2453 43.4848 96.4796 43.5227 96.7259 43.5227C96.9105 43.5227 97.062 43.5133 97.1804 43.4943C97.2988 43.4706 97.3935 43.4517 97.4645 43.4375L97.8054 44.9432C97.6918 44.9858 97.5331 45.0284 97.3295 45.071C97.1259 45.1184 96.8679 45.142 96.5554 45.142C96.0819 45.142 95.6179 45.0402 95.1634 44.8366C94.7135 44.633 94.3395 44.3229 94.0412 43.9062C93.7476 43.4896 93.6009 42.964 93.6009 42.3295V31.4773ZM6.09008 54.4H17.7301V55.74H6.09008V54.4ZM4.33008 66.54H20.6701V67.92H4.33008V66.54ZM16.8501 54.4H18.4701V56.2C18.4701 58.52 18.4701 61.1 17.7901 65L16.1301 64.84C16.8501 61.14 16.8501 58.44 16.8501 56.2V54.4ZM35.8885 52.46H37.5485V70.58H35.8885V52.46ZM23.7685 64.84H25.2685C28.2885 64.84 30.9885 64.72 34.1885 64.2L34.3685 65.56C31.0885 66.1 28.3685 66.22 25.2685 66.22H23.7685V64.84ZM23.7285 54.16H32.0885V60.62H25.4285V65.36H23.7685V59.26H30.4085V55.52H23.7285V54.16ZM42.847 54.28H54.487V55.66H42.847V54.28ZM41.127 66.66H57.467V68.04H41.127V66.66ZM47.467 60.2H49.127V67.34H47.467V60.2ZM53.867 54.28H55.507V56.08C55.507 58.32 55.507 60.8 54.847 64.46L53.187 64.24C53.867 60.78 53.867 58.24 53.867 56.08V54.28ZM70.1163 69.2273C69.0936 69.2273 68.2129 68.9858 67.4743 68.5028C66.7356 68.0199 66.1674 67.3546 65.7697 66.5071C65.372 65.6596 65.1731 64.6913 65.1731 63.6023C65.1731 62.4943 65.3767 61.5166 65.7839 60.669C66.1958 59.8168 66.7688 59.1515 67.5027 58.6733C68.2413 58.1903 69.103 57.9489 70.0879 57.9489C70.8549 57.9489 71.5462 58.0909 72.1618 58.375C72.7773 58.6591 73.2815 59.0568 73.6745 59.5682C74.0675 60.0795 74.3114 60.6761 74.4061 61.358H72.7299C72.6021 60.8608 72.318 60.4205 71.8777 60.0369C71.4421 59.6487 70.8549 59.4545 70.1163 59.4545C69.4629 59.4545 68.89 59.625 68.3975 59.9659C67.9099 60.3021 67.5287 60.7779 67.2541 61.3935C66.9842 62.0043 66.8493 62.7216 66.8493 63.5455C66.8493 64.3883 66.9818 65.1222 67.247 65.7472C67.5169 66.3722 67.8957 66.8575 68.3833 67.2031C68.8758 67.5488 69.4534 67.7216 70.1163 67.7216C70.5519 67.7216 70.9473 67.6458 71.3024 67.4943C71.6575 67.3428 71.9582 67.125 72.2044 66.8409C72.4506 66.5568 72.6258 66.2159 72.7299 65.8182H74.4061C74.3114 66.4621 74.077 67.0421 73.7029 67.5582C73.3336 68.0696 72.8436 68.4768 72.2328 68.7798C71.6267 69.0781 70.9212 69.2273 70.1163 69.2273ZM81.2882 69.2273C80.3033 69.2273 79.4392 68.9929 78.6958 68.5241C77.9572 68.0554 77.3796 67.3996 76.9629 66.5568C76.551 65.714 76.345 64.7292 76.345 63.6023C76.345 62.4659 76.551 61.474 76.9629 60.6264C77.3796 59.7789 77.9572 59.1207 78.6958 58.652C79.4392 58.1832 80.3033 57.9489 81.2882 57.9489C82.273 57.9489 83.1348 58.1832 83.8734 58.652C84.6168 59.1207 85.1944 59.7789 85.6064 60.6264C86.023 61.474 86.2314 62.4659 86.2314 63.6023C86.2314 64.7292 86.023 65.714 85.6064 66.5568C85.1944 67.3996 84.6168 68.0554 83.8734 68.5241C83.1348 68.9929 82.273 69.2273 81.2882 69.2273ZM81.2882 67.7216C82.0363 67.7216 82.6518 67.5298 83.1348 67.1463C83.6177 66.7628 83.9752 66.2585 84.2072 65.6335C84.4392 65.0085 84.5552 64.3314 84.5552 63.6023C84.5552 62.8731 84.4392 62.1937 84.2072 61.5639C83.9752 60.9342 83.6177 60.4252 83.1348 60.0369C82.6518 59.6487 82.0363 59.4545 81.2882 59.4545C80.5401 59.4545 79.9245 59.6487 79.4416 60.0369C78.9586 60.4252 78.6011 60.9342 78.3691 61.5639C78.1371 62.1937 78.0211 62.8731 78.0211 63.6023C78.0211 64.3314 78.1371 65.0085 78.3691 65.6335C78.6011 66.2585 78.9586 66.7628 79.4416 67.1463C79.9245 67.5298 80.5401 67.7216 81.2882 67.7216ZM90.4661 62.4375V69H88.79V58.0909H90.4093V59.7955H90.5513C90.807 59.2415 91.1953 58.7964 91.7161 58.4602C92.2369 58.1193 92.9093 57.9489 93.7331 57.9489C94.4718 57.9489 95.1181 58.1004 95.6721 58.4034C96.226 58.7017 96.6569 59.1562 96.9647 59.767C97.2724 60.3731 97.4263 61.1402 97.4263 62.0682V69H95.7502V62.1818C95.7502 61.3248 95.5276 60.6572 95.0826 60.179C94.6375 59.696 94.0267 59.4545 93.2502 59.4545C92.7151 59.4545 92.2369 59.5705 91.8155 59.8026C91.3989 60.0346 91.0698 60.3731 90.8283 60.8182C90.5868 61.2633 90.4661 61.803 90.4661 62.4375ZM108.216 60.5341L106.711 60.9602C106.616 60.7093 106.476 60.4654 106.292 60.2287C106.112 59.9872 105.866 59.7884 105.553 59.6321C105.241 59.4759 104.84 59.3977 104.353 59.3977C103.685 59.3977 103.129 59.5516 102.684 59.8594C102.243 60.1624 102.023 60.5483 102.023 61.017C102.023 61.4337 102.175 61.7628 102.478 62.0043C102.781 62.2457 103.254 62.447 103.898 62.608L105.518 63.0057C106.493 63.2424 107.22 63.6046 107.698 64.0923C108.176 64.5753 108.415 65.1979 108.415 65.9602C108.415 66.5852 108.235 67.1439 107.876 67.6364C107.52 68.1288 107.023 68.517 106.384 68.8011C105.745 69.0852 105.001 69.2273 104.154 69.2273C103.041 69.2273 102.12 68.9858 101.391 68.5028C100.662 68.0199 100.2 67.3144 100.006 66.3864L101.597 65.9886C101.749 66.5758 102.035 67.0161 102.456 67.3097C102.883 67.6032 103.439 67.75 104.126 67.75C104.907 67.75 105.527 67.5843 105.986 67.2528C106.45 66.9167 106.682 66.5142 106.682 66.0455C106.682 65.6667 106.55 65.3494 106.285 65.0938C106.019 64.8333 105.612 64.6392 105.063 64.5114L103.245 64.0852C102.246 63.8485 101.512 63.4815 101.043 62.9844C100.579 62.4825 100.347 61.8551 100.347 61.1023C100.347 60.4867 100.52 59.9422 100.866 59.4688C101.216 58.9953 101.692 58.6236 102.293 58.3537C102.899 58.0838 103.586 57.9489 104.353 57.9489C105.432 57.9489 106.28 58.1856 106.895 58.6591C107.516 59.1326 107.956 59.7576 108.216 60.5341ZM115.683 58.0909V59.5114H110.029V58.0909H115.683ZM111.677 55.4773H113.353V65.875C113.353 66.3485 113.422 66.7036 113.559 66.9403C113.701 67.1723 113.881 67.3286 114.099 67.4091C114.321 67.4848 114.556 67.5227 114.802 67.5227C114.987 67.5227 115.138 67.5133 115.257 67.4943C115.375 67.4706 115.47 67.4517 115.541 67.4375L115.882 68.9432C115.768 68.9858 115.609 69.0284 115.406 69.071C115.202 69.1184 114.944 69.142 114.632 69.142C114.158 69.142 113.694 69.0402 113.24 68.8366C112.79 68.633 112.416 68.3229 112.117 67.9062C111.824 67.4896 111.677 66.964 111.677 66.3295V55.4773Z"/>
</mask>
<path d="M31.8608 34.0909L27.8267 45H26.1222L22.0881 34.0909H23.9062L26.9176 42.7841H27.0312L30.0426 34.0909H31.8608ZM36.9513 45.2557C36.2601 45.2557 35.6327 45.1255 35.0692 44.8651C34.5058 44.5999 34.0584 44.2188 33.7269 43.7216C33.3955 43.2197 33.2298 42.6136 33.2298 41.9034C33.2298 41.2784 33.3529 40.7718 33.5991 40.3835C33.8453 39.9905 34.1744 39.6828 34.5863 39.4602C34.9982 39.2377 35.4528 39.072 35.9499 38.9631C36.4518 38.8494 36.9561 38.7595 37.4627 38.6932C38.1256 38.608 38.663 38.544 39.0749 38.5014C39.4916 38.4541 39.7946 38.3759 39.984 38.267C40.1781 38.1581 40.2752 37.9687 40.2752 37.6989V37.642C40.2752 36.9413 40.0835 36.3968 39.6999 36.0085C39.3211 35.6203 38.7459 35.4261 37.9741 35.4261C37.1739 35.4261 36.5465 35.6013 36.092 35.9517C35.6374 36.3021 35.3178 36.6761 35.1332 37.0739L33.5423 36.5057C33.8263 35.8428 34.2051 35.3267 34.6786 34.9574C35.1568 34.5833 35.6777 34.3229 36.2411 34.1761C36.8093 34.0246 37.368 33.9489 37.9173 33.9489C38.2676 33.9489 38.6701 33.9915 39.1246 34.0767C39.5839 34.1572 40.0266 34.3253 40.4528 34.581C40.8836 34.8366 41.2411 35.2225 41.5252 35.7386C41.8093 36.2547 41.9513 36.946 41.9513 37.8125V45H40.2752V43.5227H40.19C40.0763 43.7595 39.887 44.0128 39.6218 44.2827C39.3567 44.5526 39.0039 44.7822 38.5636 44.9716C38.1232 45.161 37.5858 45.2557 36.9513 45.2557ZM37.207 43.75C37.8699 43.75 38.4286 43.6198 38.8832 43.3594C39.3424 43.099 39.6881 42.7628 39.9201 42.3509C40.1568 41.9389 40.2752 41.5057 40.2752 41.0511V39.517C40.2042 39.6023 40.0479 39.6804 39.8065 39.7514C39.5697 39.8177 39.2951 39.8769 38.9826 39.929C38.6748 39.9763 38.3742 40.0189 38.0806 40.0568C37.7918 40.09 37.5574 40.1184 37.3775 40.142C36.9419 40.1989 36.5347 40.2912 36.1559 40.419C35.7818 40.5421 35.4788 40.7292 35.2468 40.9801C35.0195 41.2263 34.9059 41.5625 34.9059 41.9886C34.9059 42.571 35.1213 43.0114 35.5522 43.3097C35.9878 43.6032 36.5394 43.75 37.207 43.75ZM45.0107 45V34.0909H46.63V35.7386H46.7436C46.9425 35.1989 47.3023 34.7609 47.8232 34.4247C48.344 34.0885 48.9311 33.9205 49.5845 33.9205C49.7076 33.9205 49.8615 33.9228 50.0462 33.9276C50.2308 33.9323 50.3705 33.9394 50.4652 33.9489V35.6534C50.4084 35.6392 50.2782 35.6179 50.0746 35.5895C49.8757 35.5563 49.665 35.5398 49.4425 35.5398C48.9122 35.5398 48.4387 35.651 48.022 35.8736C47.6101 36.0914 47.2834 36.3944 47.0419 36.7827C46.8052 37.1662 46.6868 37.6042 46.6868 38.0966V45H45.0107ZM56.478 37.6H58.138V41.92H56.478V37.6ZM57.298 29.64C60.078 29.64 62.078 31.38 62.078 33.9C62.078 36.42 60.078 38.16 57.298 38.16C54.518 38.16 52.518 36.42 52.518 33.9C52.518 31.38 54.518 29.64 57.298 29.64ZM57.298 31.06C55.458 31.06 54.138 32.22 54.138 33.9C54.138 35.58 55.458 36.74 57.298 36.74C59.138 36.74 60.458 35.58 60.458 33.9C60.458 32.22 59.138 31.06 57.298 31.06ZM64.138 28.48H65.798V46.56H64.138V28.48ZM65.318 35.92H68.658V37.32H65.318V35.92ZM51.938 42.66L51.698 41.28C54.958 41.26 59.318 41.24 62.998 40.74L63.138 41.98C59.318 42.62 55.098 42.66 51.938 42.66ZM78.1516 30.4545V45H76.4755V30.4545H78.1516ZM85.7955 45.2273C84.7443 45.2273 83.8376 44.9953 83.0753 44.5312C82.3177 44.0625 81.733 43.4091 81.321 42.571C80.9138 41.7282 80.7102 40.7481 80.7102 39.6307C80.7102 38.5133 80.9138 37.5284 81.321 36.6761C81.733 35.8191 82.3059 35.1515 83.0398 34.6733C83.7784 34.1903 84.6402 33.9489 85.625 33.9489C86.1932 33.9489 86.7543 34.0436 87.3082 34.233C87.8622 34.4223 88.3665 34.7301 88.821 35.1562C89.2756 35.5777 89.6378 36.1364 89.9077 36.8324C90.1776 37.5284 90.3125 38.3854 90.3125 39.4034V40.1136H81.9034V38.6648H88.608C88.608 38.0492 88.4848 37.5 88.2386 37.017C87.9972 36.5341 87.6515 36.1529 87.2017 35.8736C86.7566 35.5942 86.2311 35.4545 85.625 35.4545C84.9574 35.4545 84.3797 35.6203 83.892 35.9517C83.4091 36.2784 83.0374 36.7045 82.777 37.2301C82.5166 37.7557 82.3864 38.3191 82.3864 38.9205V39.8864C82.3864 40.7102 82.5284 41.4086 82.8125 41.9815C83.1013 42.5497 83.5014 42.983 84.0128 43.2812C84.5241 43.5748 85.1184 43.7216 85.7955 43.7216C86.2358 43.7216 86.6335 43.66 86.9886 43.5369C87.3485 43.4091 87.6586 43.2197 87.919 42.9688C88.1795 42.7131 88.3807 42.3958 88.5227 42.017L90.142 42.4716C89.9716 43.0208 89.6851 43.5038 89.2827 43.9205C88.8802 44.3324 88.383 44.6544 87.7912 44.8864C87.1993 45.1136 86.5341 45.2273 85.7955 45.2273ZM97.6065 34.0909V35.5114H91.9531V34.0909H97.6065ZM93.6009 31.4773H95.277V41.875C95.277 42.3485 95.3456 42.7036 95.483 42.9403C95.625 43.1723 95.8049 43.3286 96.0227 43.4091C96.2453 43.4848 96.4796 43.5227 96.7259 43.5227C96.9105 43.5227 97.062 43.5133 97.1804 43.4943C97.2988 43.4706 97.3935 43.4517 97.4645 43.4375L97.8054 44.9432C97.6918 44.9858 97.5331 45.0284 97.3295 45.071C97.1259 45.1184 96.8679 45.142 96.5554 45.142C96.0819 45.142 95.6179 45.0402 95.1634 44.8366C94.7135 44.633 94.3395 44.3229 94.0412 43.9062C93.7476 43.4896 93.6009 42.964 93.6009 42.3295V31.4773ZM6.09008 54.4H17.7301V55.74H6.09008V54.4ZM4.33008 66.54H20.6701V67.92H4.33008V66.54ZM16.8501 54.4H18.4701V56.2C18.4701 58.52 18.4701 61.1 17.7901 65L16.1301 64.84C16.8501 61.14 16.8501 58.44 16.8501 56.2V54.4ZM35.8885 52.46H37.5485V70.58H35.8885V52.46ZM23.7685 64.84H25.2685C28.2885 64.84 30.9885 64.72 34.1885 64.2L34.3685 65.56C31.0885 66.1 28.3685 66.22 25.2685 66.22H23.7685V64.84ZM23.7285 54.16H32.0885V60.62H25.4285V65.36H23.7685V59.26H30.4085V55.52H23.7285V54.16ZM42.847 54.28H54.487V55.66H42.847V54.28ZM41.127 66.66H57.467V68.04H41.127V66.66ZM47.467 60.2H49.127V67.34H47.467V60.2ZM53.867 54.28H55.507V56.08C55.507 58.32 55.507 60.8 54.847 64.46L53.187 64.24C53.867 60.78 53.867 58.24 53.867 56.08V54.28ZM70.1163 69.2273C69.0936 69.2273 68.2129 68.9858 67.4743 68.5028C66.7356 68.0199 66.1674 67.3546 65.7697 66.5071C65.372 65.6596 65.1731 64.6913 65.1731 63.6023C65.1731 62.4943 65.3767 61.5166 65.7839 60.669C66.1958 59.8168 66.7688 59.1515 67.5027 58.6733C68.2413 58.1903 69.103 57.9489 70.0879 57.9489C70.8549 57.9489 71.5462 58.0909 72.1618 58.375C72.7773 58.6591 73.2815 59.0568 73.6745 59.5682C74.0675 60.0795 74.3114 60.6761 74.4061 61.358H72.7299C72.6021 60.8608 72.318 60.4205 71.8777 60.0369C71.4421 59.6487 70.8549 59.4545 70.1163 59.4545C69.4629 59.4545 68.89 59.625 68.3975 59.9659C67.9099 60.3021 67.5287 60.7779 67.2541 61.3935C66.9842 62.0043 66.8493 62.7216 66.8493 63.5455C66.8493 64.3883 66.9818 65.1222 67.247 65.7472C67.5169 66.3722 67.8957 66.8575 68.3833 67.2031C68.8758 67.5488 69.4534 67.7216 70.1163 67.7216C70.5519 67.7216 70.9473 67.6458 71.3024 67.4943C71.6575 67.3428 71.9582 67.125 72.2044 66.8409C72.4506 66.5568 72.6258 66.2159 72.7299 65.8182H74.4061C74.3114 66.4621 74.077 67.0421 73.7029 67.5582C73.3336 68.0696 72.8436 68.4768 72.2328 68.7798C71.6267 69.0781 70.9212 69.2273 70.1163 69.2273ZM81.2882 69.2273C80.3033 69.2273 79.4392 68.9929 78.6958 68.5241C77.9572 68.0554 77.3796 67.3996 76.9629 66.5568C76.551 65.714 76.345 64.7292 76.345 63.6023C76.345 62.4659 76.551 61.474 76.9629 60.6264C77.3796 59.7789 77.9572 59.1207 78.6958 58.652C79.4392 58.1832 80.3033 57.9489 81.2882 57.9489C82.273 57.9489 83.1348 58.1832 83.8734 58.652C84.6168 59.1207 85.1944 59.7789 85.6064 60.6264C86.023 61.474 86.2314 62.4659 86.2314 63.6023C86.2314 64.7292 86.023 65.714 85.6064 66.5568C85.1944 67.3996 84.6168 68.0554 83.8734 68.5241C83.1348 68.9929 82.273 69.2273 81.2882 69.2273ZM81.2882 67.7216C82.0363 67.7216 82.6518 67.5298 83.1348 67.1463C83.6177 66.7628 83.9752 66.2585 84.2072 65.6335C84.4392 65.0085 84.5552 64.3314 84.5552 63.6023C84.5552 62.8731 84.4392 62.1937 84.2072 61.5639C83.9752 60.9342 83.6177 60.4252 83.1348 60.0369C82.6518 59.6487 82.0363 59.4545 81.2882 59.4545C80.5401 59.4545 79.9245 59.6487 79.4416 60.0369C78.9586 60.4252 78.6011 60.9342 78.3691 61.5639C78.1371 62.1937 78.0211 62.8731 78.0211 63.6023C78.0211 64.3314 78.1371 65.0085 78.3691 65.6335C78.6011 66.2585 78.9586 66.7628 79.4416 67.1463C79.9245 67.5298 80.5401 67.7216 81.2882 67.7216ZM90.4661 62.4375V69H88.79V58.0909H90.4093V59.7955H90.5513C90.807 59.2415 91.1953 58.7964 91.7161 58.4602C92.2369 58.1193 92.9093 57.9489 93.7331 57.9489C94.4718 57.9489 95.1181 58.1004 95.6721 58.4034C96.226 58.7017 96.6569 59.1562 96.9647 59.767C97.2724 60.3731 97.4263 61.1402 97.4263 62.0682V69H95.7502V62.1818C95.7502 61.3248 95.5276 60.6572 95.0826 60.179C94.6375 59.696 94.0267 59.4545 93.2502 59.4545C92.7151 59.4545 92.2369 59.5705 91.8155 59.8026C91.3989 60.0346 91.0698 60.3731 90.8283 60.8182C90.5868 61.2633 90.4661 61.803 90.4661 62.4375ZM108.216 60.5341L106.711 60.9602C106.616 60.7093 106.476 60.4654 106.292 60.2287C106.112 59.9872 105.866 59.7884 105.553 59.6321C105.241 59.4759 104.84 59.3977 104.353 59.3977C103.685 59.3977 103.129 59.5516 102.684 59.8594C102.243 60.1624 102.023 60.5483 102.023 61.017C102.023 61.4337 102.175 61.7628 102.478 62.0043C102.781 62.2457 103.254 62.447 103.898 62.608L105.518 63.0057C106.493 63.2424 107.22 63.6046 107.698 64.0923C108.176 64.5753 108.415 65.1979 108.415 65.9602C108.415 66.5852 108.235 67.1439 107.876 67.6364C107.52 68.1288 107.023 68.517 106.384 68.8011C105.745 69.0852 105.001 69.2273 104.154 69.2273C103.041 69.2273 102.12 68.9858 101.391 68.5028C100.662 68.0199 100.2 67.3144 100.006 66.3864L101.597 65.9886C101.749 66.5758 102.035 67.0161 102.456 67.3097C102.883 67.6032 103.439 67.75 104.126 67.75C104.907 67.75 105.527 67.5843 105.986 67.2528C106.45 66.9167 106.682 66.5142 106.682 66.0455C106.682 65.6667 106.55 65.3494 106.285 65.0938C106.019 64.8333 105.612 64.6392 105.063 64.5114L103.245 64.0852C102.246 63.8485 101.512 63.4815 101.043 62.9844C100.579 62.4825 100.347 61.8551 100.347 61.1023C100.347 60.4867 100.52 59.9422 100.866 59.4688C101.216 58.9953 101.692 58.6236 102.293 58.3537C102.899 58.0838 103.586 57.9489 104.353 57.9489C105.432 57.9489 106.28 58.1856 106.895 58.6591C107.516 59.1326 107.956 59.7576 108.216 60.5341ZM115.683 58.0909V59.5114H110.029V58.0909H115.683ZM111.677 55.4773H113.353V65.875C113.353 66.3485 113.422 66.7036 113.559 66.9403C113.701 67.1723 113.881 67.3286 114.099 67.4091C114.321 67.4848 114.556 67.5227 114.802 67.5227C114.987 67.5227 115.138 67.5133 115.257 67.4943C115.375 67.4706 115.47 67.4517 115.541 67.4375L115.882 68.9432C115.768 68.9858 115.609 69.0284 115.406 69.071C115.202 69.1184 114.944 69.142 114.632 69.142C114.158 69.142 113.694 69.0402 113.24 68.8366C112.79 68.633 112.416 68.3229 112.117 67.9062C111.824 67.4896 111.677 66.964 111.677 66.3295V55.4773Z" fill="#ED7458"/>
<path d="M31.8608 34.0909L32.3298 34.2643L32.5788 33.5909H31.8608V34.0909ZM27.8267 45V45.5H28.1749L28.2957 45.1734L27.8267 45ZM26.1222 45L25.6532 45.1734L25.774 45.5H26.1222V45ZM22.0881 34.0909V33.5909H21.3701L21.6191 34.2643L22.0881 34.0909ZM23.9062 34.0909L24.3787 33.9272L24.2622 33.5909H23.9062V34.0909ZM26.9176 42.7841L26.4452 42.9478L26.5617 43.2841H26.9176V42.7841ZM27.0312 42.7841V43.2841H27.3872L27.5037 42.9478L27.0312 42.7841ZM30.0426 34.0909V33.5909H29.6867L29.5702 33.9272L30.0426 34.0909ZM31.3918 33.9175L27.3577 44.8266L28.2957 45.1734L32.3298 34.2643L31.3918 33.9175ZM27.8267 44.5H26.1222V45.5H27.8267V44.5ZM26.5911 44.8266L22.557 33.9175L21.6191 34.2643L25.6532 45.1734L26.5911 44.8266ZM22.0881 34.5909H23.9062V33.5909H22.0881V34.5909ZM23.4338 34.2546L26.4452 42.9478L27.3901 42.6204L24.3787 33.9272L23.4338 34.2546ZM26.9176 43.2841H27.0312V42.2841H26.9176V43.2841ZM27.5037 42.9478L30.5151 34.2546L29.5702 33.9272L26.5588 42.6204L27.5037 42.9478ZM30.0426 34.5909H31.8608V33.5909H30.0426V34.5909ZM35.0692 44.8651L34.8563 45.3175L34.8595 45.3189L35.0692 44.8651ZM33.7269 43.7216L33.3097 43.9971L33.3109 43.9989L33.7269 43.7216ZM33.5991 40.3835L34.0213 40.6513L34.0228 40.649L33.5991 40.3835ZM35.9499 38.9631L36.0569 39.4515L36.0603 39.4507L35.9499 38.9631ZM37.4627 38.6932L37.399 38.1973L37.3978 38.1974L37.4627 38.6932ZM39.0749 38.5014L39.1264 38.9988L39.1314 38.9982L39.0749 38.5014ZM39.984 38.267L39.7394 37.8309L39.7348 37.8336L39.984 38.267ZM39.6999 36.0085L39.342 36.3577L39.3442 36.3599L39.6999 36.0085ZM36.092 35.9517L36.3972 36.3477L36.3972 36.3477L36.092 35.9517ZM35.1332 37.0739L34.965 37.5447L35.3946 37.6982L35.5867 37.2844L35.1332 37.0739ZM33.5423 36.5057L33.0827 36.3087L32.8731 36.7976L33.3741 36.9766L33.5423 36.5057ZM34.6786 34.9574L34.9861 35.3516L34.9867 35.3512L34.6786 34.9574ZM36.2411 34.1761L36.3672 34.66L36.37 34.6593L36.2411 34.1761ZM39.1246 34.0767L39.0325 34.5682L39.0383 34.5692L39.1246 34.0767ZM40.4528 34.581L40.1955 35.0097L40.1976 35.011L40.4528 34.581ZM41.5252 35.7386L41.0872 35.9797L41.0872 35.9798L41.5252 35.7386ZM41.9513 45V45.5H42.4513V45H41.9513ZM40.2752 45H39.7752V45.5H40.2752V45ZM40.2752 43.5227H40.7752V43.0227H40.2752V43.5227ZM40.19 43.5227V43.0227H39.8754L39.7392 43.3064L40.19 43.5227ZM39.6218 44.2827L39.9785 44.6331L39.9785 44.6331L39.6218 44.2827ZM38.5636 44.9716L38.366 44.5123L38.366 44.5123L38.5636 44.9716ZM38.8832 43.3594L38.6365 42.9244L38.6346 42.9255L38.8832 43.3594ZM39.9201 42.3509L39.4866 42.1017L39.4844 42.1055L39.9201 42.3509ZM40.2752 39.517H40.7752V38.136L39.8911 39.197L40.2752 39.517ZM39.8065 39.7514L39.9413 40.2329L39.9475 40.2311L39.8065 39.7514ZM38.9826 39.929L39.0586 40.4232L39.0648 40.4222L38.9826 39.929ZM38.0806 40.0568L38.1376 40.5536L38.1446 40.5527L38.0806 40.0568ZM37.3775 40.142L37.4422 40.6378L37.4427 40.6378L37.3775 40.142ZM36.1559 40.419L36.3122 40.894L36.3158 40.8928L36.1559 40.419ZM35.2468 40.9801L34.8797 40.6407L34.8794 40.641L35.2468 40.9801ZM35.5522 43.3097L35.2676 43.7208L35.2728 43.7243L35.5522 43.3097ZM36.9513 44.7557C36.3242 44.7557 35.7696 44.6379 35.279 44.4112L34.8595 45.3189C35.4958 45.613 36.1959 45.7557 36.9513 45.7557V44.7557ZM35.2821 44.4126C34.7974 44.1846 34.4217 43.8624 34.1429 43.4442L33.3109 43.9989C33.695 44.5751 34.2142 45.0153 34.8563 45.3175L35.2821 44.4126ZM34.1441 43.4461C33.8759 43.0398 33.7298 42.5337 33.7298 41.9034H32.7298C32.7298 42.6936 32.9151 43.3996 33.3097 43.9971L34.1441 43.4461ZM33.7298 41.9034C33.7298 41.3402 33.8411 40.9355 34.0213 40.6513L33.1768 40.1158C32.8647 40.608 32.7298 41.2166 32.7298 41.9034H33.7298ZM34.0228 40.649C34.2226 40.33 34.4873 40.082 34.8239 39.9001L34.3486 39.0203C33.8614 39.2835 33.4679 39.6511 33.1754 40.1181L34.0228 40.649ZM34.8239 39.9001C35.1914 39.7016 35.6014 39.5513 36.0569 39.4515L35.8429 38.4746C35.3041 38.5927 34.8051 38.7737 34.3486 39.0203L34.8239 39.9001ZM36.0603 39.4507C36.5473 39.3405 37.0364 39.2532 37.5276 39.189L37.3978 38.1974C36.8758 38.2657 36.3564 38.3584 35.8395 38.4754L36.0603 39.4507ZM37.5265 39.1891C38.1874 39.1041 38.7203 39.0408 39.1264 38.9988L39.0235 38.0041C38.6057 38.0473 38.0638 38.1118 37.399 38.1973L37.5265 39.1891ZM39.1314 38.9982C39.565 38.949 39.9522 38.8621 40.2333 38.7005L39.7348 37.8336C39.637 37.8898 39.4182 37.9592 39.0185 38.0046L39.1314 38.9982ZM40.2286 38.7031C40.6165 38.4855 40.7752 38.1041 40.7752 37.6989H39.7752C39.7752 37.7752 39.7614 37.8075 39.7574 37.8153C39.7555 37.819 39.7543 37.8203 39.7536 37.821C39.7528 37.8219 39.7491 37.8255 39.7394 37.831L40.2286 38.7031ZM40.7752 37.6989V37.642H39.7752V37.6989H40.7752ZM40.7752 37.642C40.7752 36.8488 40.5558 36.1635 40.0556 35.6571L39.3442 36.3599C39.6111 36.63 39.7752 37.0338 39.7752 37.642H40.7752ZM40.0578 35.6594C39.5511 35.14 38.8229 34.9261 37.9741 34.9261V35.9261C38.6688 35.9261 39.0912 36.1006 39.342 36.3577L40.0578 35.6594ZM37.9741 34.9261C37.1061 34.9261 36.3574 35.1158 35.7867 35.5557L36.3972 36.3477C36.7356 36.0869 37.2416 35.9261 37.9741 35.9261V34.9261ZM35.7867 35.5557C35.2875 35.9405 34.9069 36.3738 34.6797 36.8633L35.5867 37.2844C35.7287 36.9785 35.9873 36.6637 36.3972 36.3477L35.7867 35.5557ZM35.3013 36.603L33.7104 36.0348L33.3741 36.9766L34.965 37.5447L35.3013 36.603ZM34.0018 36.7026C34.2593 36.1018 34.5913 35.6596 34.9861 35.3516L34.3711 34.5631C33.8189 34.9938 33.3933 35.5838 33.0827 36.3087L34.0018 36.7026ZM34.9867 35.3512C35.4134 35.0175 35.8727 34.7888 36.3672 34.66L36.1151 33.6923C35.4826 33.857 34.9003 34.1492 34.3706 34.5636L34.9867 35.3512ZM36.37 34.6593C36.8991 34.5182 37.4145 34.4489 37.9173 34.4489V33.4489C37.3216 33.4489 36.7195 33.5311 36.1123 33.693L36.37 34.6593ZM37.9173 34.4489C38.2287 34.4489 38.5993 34.4869 39.0325 34.5681L39.2168 33.5853C38.7409 33.496 38.3065 33.4489 37.9173 33.4489V34.4489ZM39.0383 34.5692C39.4333 34.6384 39.8185 34.7835 40.1955 35.0097L40.71 34.1522C40.2348 33.8671 39.7345 33.676 39.211 33.5842L39.0383 34.5692ZM40.1976 35.011C40.5392 35.2137 40.8385 35.5279 41.0872 35.9797L41.9632 35.4975C41.6438 34.9171 41.2281 34.4596 40.7079 34.151L40.1976 35.011ZM41.0872 35.9798C41.3159 36.3953 41.4513 36.9935 41.4513 37.8125H42.4513C42.4513 36.8986 42.3027 36.1142 41.9632 35.4975L41.0872 35.9798ZM41.4513 37.8125V45H42.4513V37.8125H41.4513ZM41.9513 44.5H40.2752V45.5H41.9513V44.5ZM40.7752 45V43.5227H39.7752V45H40.7752ZM40.2752 43.0227H40.19V44.0227H40.2752V43.0227ZM39.7392 43.3064C39.6573 43.4769 39.5072 43.6858 39.2651 43.9323L39.9785 44.6331C40.2667 44.3397 40.4954 44.042 40.6407 43.7391L39.7392 43.3064ZM39.2651 43.9323C39.0558 44.1453 38.762 44.3419 38.366 44.5123L38.7611 45.4309C39.2458 45.2225 39.6575 44.9598 39.9785 44.6331L39.2651 43.9323ZM38.366 44.5123C38.0048 44.6677 37.5388 44.7557 36.9513 44.7557V45.7557C37.6329 45.7557 38.2417 45.6543 38.7611 45.4309L38.366 44.5123ZM37.207 44.25C37.9344 44.25 38.584 44.107 39.1317 43.7932L38.6346 42.9255C38.2733 43.1325 37.8055 43.25 37.207 43.25V44.25ZM39.1298 43.7943C39.6587 43.4944 40.0741 43.0963 40.3558 42.5962L39.4844 42.1055C39.3021 42.4292 39.0262 42.7035 38.6365 42.9244L39.1298 43.7943ZM40.3536 42.6C40.6319 42.1158 40.7752 41.5971 40.7752 41.0511H39.7752C39.7752 41.4142 39.6818 41.762 39.4866 42.1017L40.3536 42.6ZM40.7752 41.0511V39.517H39.7752V41.0511H40.7752ZM39.8911 39.197C39.9178 39.1649 39.9292 39.1683 39.8812 39.1923C39.8383 39.2138 39.769 39.2413 39.6654 39.2717L39.9475 40.2311C40.0854 40.1905 40.215 40.1435 40.3284 40.0868C40.4366 40.0327 40.5616 39.9544 40.6593 39.8371L39.8911 39.197ZM39.6716 39.2699C39.4563 39.3302 39.1999 39.3859 38.9004 39.4358L39.0648 40.4222C39.3903 40.3679 39.6831 40.3052 39.9413 40.2329L39.6716 39.2699ZM38.9066 39.4348C38.6026 39.4816 38.306 39.5236 38.0166 39.5609L38.1446 40.5527C38.4424 40.5143 38.7471 40.4711 39.0586 40.4232L38.9066 39.4348ZM38.0236 39.5601C37.7335 39.5934 37.496 39.6221 37.3123 39.6463L37.4427 40.6378C37.6188 40.6146 37.8501 40.5865 38.1376 40.5536L38.0236 39.5601ZM37.3128 39.6462C36.848 39.7069 36.4086 39.806 35.996 39.9453L36.3158 40.8928C36.6608 40.7764 37.0358 40.6908 37.4422 40.6378L37.3128 39.6462ZM35.9996 39.9441C35.5573 40.0897 35.1776 40.3185 34.8797 40.6407L35.6139 41.3195C35.7801 41.1399 36.0064 40.9946 36.3122 40.894L35.9996 39.9441ZM34.8794 40.641C34.5455 41.0027 34.4059 41.4722 34.4059 41.9886H35.4059C35.4059 41.6528 35.4935 41.45 35.6142 41.3193L34.8794 40.641ZM34.4059 41.9886C34.4059 42.7138 34.6852 43.3175 35.2676 43.7208L35.8368 42.8986C35.5575 42.7052 35.4059 42.4283 35.4059 41.9886H34.4059ZM35.2728 43.7243C35.8107 44.0868 36.4668 44.25 37.207 44.25V43.25C36.6121 43.25 36.1649 43.1196 35.8316 42.895L35.2728 43.7243ZM45.0107 45H44.5107V45.5H45.0107V45ZM45.0107 34.0909V33.5909H44.5107V34.0909H45.0107ZM46.63 34.0909H47.13V33.5909H46.63V34.0909ZM46.63 35.7386H46.13V36.2386H46.63V35.7386ZM46.7436 35.7386V36.2386H47.0923L47.2128 35.9115L46.7436 35.7386ZM47.8232 34.4247L47.552 34.0046L47.552 34.0046L47.8232 34.4247ZM50.4652 33.9489H50.9652V33.4964L50.515 33.4513L50.4652 33.9489ZM50.4652 35.6534L50.3439 36.1385L50.9652 36.2938V35.6534H50.4652ZM50.0746 35.5895L49.9923 36.0829L50.0055 36.0847L50.0746 35.5895ZM48.022 35.8736L48.2557 36.3156L48.2576 36.3146L48.022 35.8736ZM47.0419 36.7827L46.6173 36.5186L46.6164 36.52L47.0419 36.7827ZM46.6868 45V45.5H47.1868V45H46.6868ZM45.5107 45V34.0909H44.5107V45H45.5107ZM45.0107 34.5909H46.63V33.5909H45.0107V34.5909ZM46.13 34.0909V35.7386H47.13V34.0909H46.13ZM46.63 36.2386H46.7436V35.2386H46.63V36.2386ZM47.2128 35.9115C47.3712 35.4815 47.657 35.1271 48.0943 34.8448L47.552 34.0046C46.9476 34.3947 46.5137 34.9162 46.2744 35.5658L47.2128 35.9115ZM48.0943 34.8448C48.5299 34.5637 49.0218 34.4205 49.5845 34.4205V33.4205C48.8404 33.4205 48.1581 33.6134 47.552 34.0046L48.0943 34.8448ZM49.5845 34.4205C49.7018 34.4205 49.8511 34.4227 50.0333 34.4274L50.059 33.4277C49.8719 33.4229 49.7134 33.4205 49.5845 33.4205V34.4205ZM50.0333 34.4274C50.2148 34.432 50.3396 34.4388 50.4154 34.4464L50.515 33.4513C50.4014 33.44 50.2468 33.4325 50.059 33.4277L50.0333 34.4274ZM49.9652 33.9489V35.6534H50.9652V33.9489H49.9652ZM50.5865 35.1683C50.4986 35.1464 50.3398 35.1217 50.1437 35.0943L50.0055 36.0847C50.1053 36.0986 50.1845 36.1104 50.2442 36.1202C50.274 36.1251 50.2976 36.1292 50.3156 36.1326C50.3245 36.1343 50.3314 36.1357 50.3365 36.1368C50.3418 36.1379 50.344 36.1385 50.3439 36.1385L50.5865 35.1683ZM50.1568 35.0963C49.9281 35.0582 49.6898 35.0398 49.4425 35.0398V36.0398C49.6403 36.0398 49.8233 36.0545 49.9924 36.0827L50.1568 35.0963ZM49.4425 35.0398C48.8402 35.0398 48.2841 35.1667 47.7865 35.4325L48.2576 36.3146C48.5932 36.1353 48.9841 36.0398 49.4425 36.0398V35.0398ZM47.7883 35.4316C47.2997 35.6899 46.9065 36.0537 46.6173 36.5186L47.4665 37.0467C47.6603 36.7351 47.9205 36.4929 48.2557 36.3156L47.7883 35.4316ZM46.6164 36.52C46.3265 36.9897 46.1868 37.5203 46.1868 38.0966H47.1868C47.1868 37.688 47.2838 37.3427 47.4674 37.0453L46.6164 36.52ZM46.1868 38.0966V45H47.1868V38.0966H46.1868ZM46.6868 44.5H45.0107V45.5H46.6868V44.5ZM56.478 37.6V37.1H55.978V37.6H56.478ZM58.138 37.6H58.638V37.1H58.138V37.6ZM58.138 41.92V42.42H58.638V41.92H58.138ZM56.478 41.92H55.978V42.42H56.478V41.92ZM64.138 28.48V27.98H63.638V28.48H64.138ZM65.798 28.48H66.298V27.98H65.798V28.48ZM65.798 46.56V47.06H66.298V46.56H65.798ZM64.138 46.56H63.638V47.06H64.138V46.56ZM65.318 35.92V35.42H64.818V35.92H65.318ZM68.658 35.92H69.158V35.42H68.658V35.92ZM68.658 37.32V37.82H69.158V37.32H68.658ZM65.318 37.32H64.818V37.82H65.318V37.32ZM51.938 42.66L51.4454 42.7457L51.5174 43.16H51.938V42.66ZM51.698 41.28L51.6949 40.78L51.1041 40.7836L51.2054 41.3657L51.698 41.28ZM62.998 40.74L63.4948 40.6839L63.4374 40.1757L62.9307 40.2446L62.998 40.74ZM63.138 41.98L63.2206 42.4731L63.688 42.3948L63.6348 41.9239L63.138 41.98ZM56.478 38.1H58.138V37.1H56.478V38.1ZM57.638 37.6V41.92H58.638V37.6H57.638ZM58.138 41.42H56.478V42.42H58.138V41.42ZM56.978 41.92V37.6H55.978V41.92H56.978ZM57.298 30.14C58.5847 30.14 59.6562 30.542 60.3991 31.1994C61.1375 31.8529 61.578 32.7807 61.578 33.9H62.578C62.578 32.4993 62.0184 31.2971 61.0618 30.4506C60.1098 29.608 58.7913 29.14 57.298 29.14V30.14ZM61.578 33.9C61.578 35.0193 61.1375 35.9471 60.3991 36.6006C59.6562 37.258 58.5847 37.66 57.298 37.66V38.66C58.7913 38.66 60.1098 38.192 61.0618 37.3494C62.0184 36.5029 62.578 35.3007 62.578 33.9H61.578ZM57.298 37.66C56.0113 37.66 54.9398 37.258 54.1968 36.6006C53.4584 35.9471 53.018 35.0193 53.018 33.9H52.018C52.018 35.3007 52.5775 36.5029 53.5341 37.3494C54.4862 38.192 55.8047 38.66 57.298 38.66V37.66ZM53.018 33.9C53.018 32.7807 53.4584 31.8529 54.1968 31.1994C54.9398 30.542 56.0113 30.14 57.298 30.14V29.14C55.8047 29.14 54.4862 29.608 53.5341 30.4506C52.5775 31.2971 52.018 32.4993 52.018 33.9H53.018ZM57.298 30.56C56.2737 30.56 55.3595 30.8837 54.695 31.477C54.0261 32.0742 53.638 32.9211 53.638 33.9H54.638C54.638 33.1989 54.9098 32.6258 55.361 32.223C55.8164 31.8163 56.4823 31.56 57.298 31.56V30.56ZM53.638 33.9C53.638 34.8789 54.0261 35.7258 54.695 36.323C55.3595 36.9163 56.2737 37.24 57.298 37.24V36.24C56.4823 36.24 55.8164 35.9837 55.361 35.577C54.9098 35.1742 54.638 34.6011 54.638 33.9H53.638ZM57.298 37.24C58.3223 37.24 59.2364 36.9163 59.901 36.323C60.5698 35.7258 60.958 34.8789 60.958 33.9H59.958C59.958 34.6011 59.6861 35.1742 59.235 35.577C58.7795 35.9837 58.1137 36.24 57.298 36.24V37.24ZM60.958 33.9C60.958 32.9211 60.5698 32.0742 59.901 31.477C59.2364 30.8837 58.3223 30.56 57.298 30.56V31.56C58.1137 31.56 58.7795 31.8163 59.235 32.223C59.6861 32.6258 59.958 33.1989 59.958 33.9H60.958ZM64.138 28.98H65.798V27.98H64.138V28.98ZM65.298 28.48V46.56H66.298V28.48H65.298ZM65.798 46.06H64.138V47.06H65.798V46.06ZM64.638 46.56V28.48H63.638V46.56H64.638ZM65.318 36.42H68.658V35.42H65.318V36.42ZM68.158 35.92V37.32H69.158V35.92H68.158ZM68.658 36.82H65.318V37.82H68.658V36.82ZM65.818 37.32V35.92H64.818V37.32H65.818ZM52.4306 42.5743L52.1906 41.1943L51.2054 41.3657L51.4454 42.7457L52.4306 42.5743ZM51.701 41.78C54.953 41.76 59.3472 41.7406 63.0653 41.2354L62.9307 40.2446C59.2888 40.7394 54.963 40.76 51.6949 40.78L51.701 41.78ZM62.5011 40.7961L62.6411 42.0361L63.6348 41.9239L63.4948 40.6839L62.5011 40.7961ZM63.0554 41.4869C59.2814 42.1192 55.0999 42.16 51.938 42.16V43.16C55.096 43.16 59.3546 43.1208 63.2206 42.4731L63.0554 41.4869ZM78.1516 30.4545H78.6516V29.9545H78.1516V30.4545ZM78.1516 45V45.5H78.6516V45H78.1516ZM76.4755 45H75.9755V45.5H76.4755V45ZM76.4755 30.4545V29.9545H75.9755V30.4545H76.4755ZM77.6516 30.4545V45H78.6516V30.4545H77.6516ZM78.1516 44.5H76.4755V45.5H78.1516V44.5ZM76.9755 45V30.4545H75.9755V45H76.9755ZM76.4755 30.9545H78.1516V29.9545H76.4755V30.9545ZM83.0753 44.5312L82.8122 44.9565L82.8153 44.9583L83.0753 44.5312ZM81.321 42.571L80.8708 42.7885L80.8723 42.7916L81.321 42.571ZM81.321 36.6761L80.8704 36.4595L80.8699 36.4606L81.321 36.6761ZM83.0398 34.6733L83.3127 35.0922L83.3134 35.0918L83.0398 34.6733ZM87.3082 34.233L87.47 33.7598L87.47 33.7598L87.3082 34.233ZM88.821 35.1562L88.479 35.521L88.4811 35.5229L88.821 35.1562ZM89.9077 36.8324L90.3739 36.6516L90.3739 36.6516L89.9077 36.8324ZM90.3125 40.1136V40.6136H90.8125V40.1136H90.3125ZM81.9034 40.1136H81.4034V40.6136H81.9034V40.1136ZM81.9034 38.6648V38.1648H81.4034V38.6648H81.9034ZM88.608 38.6648V39.1648H89.108V38.6648H88.608ZM88.2386 37.017L87.7914 37.2407L87.7932 37.2441L88.2386 37.017ZM87.2017 35.8736L86.9359 36.2971L86.9379 36.2983L87.2017 35.8736ZM83.892 35.9517L84.1722 36.3658L84.1731 36.3652L83.892 35.9517ZM82.777 37.2301L82.329 37.0081L82.329 37.0081L82.777 37.2301ZM82.8125 41.9815L82.3645 42.2037L82.3668 42.2081L82.8125 41.9815ZM84.0128 43.2812L83.7608 43.7131L83.7639 43.7149L84.0128 43.2812ZM86.9886 43.5369L87.1524 44.0094L87.156 44.0081L86.9886 43.5369ZM87.919 42.9688L88.266 43.3288L88.2693 43.3255L87.919 42.9688ZM88.5227 42.017L88.6579 41.5357L88.2158 41.4116L88.0546 41.8415L88.5227 42.017ZM90.142 42.4716L90.6196 42.6198L90.7719 42.1291L90.2772 41.9902L90.142 42.4716ZM89.2827 43.9205L89.6403 44.2699L89.6423 44.2678L89.2827 43.9205ZM87.7912 44.8864L87.9704 45.3531L87.9737 45.3519L87.7912 44.8864ZM85.7955 44.7273C84.8195 44.7273 84.0062 44.5126 83.3353 44.1042L82.8153 44.9583C83.6689 45.478 84.6691 45.7273 85.7955 45.7273V44.7273ZM83.3384 44.1061C82.6646 43.6892 82.1423 43.1085 81.7697 42.3505L80.8723 42.7916C81.3236 43.7097 81.9708 44.4358 82.8122 44.9564L83.3384 44.1061ZM81.7712 42.3535C81.4026 41.5904 81.2102 40.6872 81.2102 39.6307H80.2102C80.2102 40.809 80.4251 41.866 80.8708 42.7885L81.7712 42.3535ZM81.2102 39.6307C81.2102 38.5743 81.4025 37.6654 81.7722 36.8917L80.8699 36.4606C80.4252 37.3914 80.2102 38.4522 80.2102 39.6307H81.2102ZM81.7717 36.8927C82.1475 36.1109 82.662 35.5163 83.3127 35.0922L82.7668 34.2544C81.9498 34.7868 81.3184 35.5274 80.8704 36.4595L81.7717 36.8927ZM83.3134 35.0918C83.9614 34.6681 84.7257 34.4489 85.625 34.4489V33.4489C84.5546 33.4489 83.5954 33.7126 82.7661 34.2548L83.3134 35.0918ZM85.625 34.4489C86.1365 34.4489 86.643 34.5339 87.1465 34.7061L87.47 33.7598C86.8655 33.5532 86.2499 33.4489 85.625 33.4489V34.4489ZM87.1465 34.7061C87.6291 34.8711 88.0728 35.1402 88.4791 35.521L89.163 34.7915C88.6601 34.32 88.0953 33.9736 87.47 33.7598L87.1465 34.7061ZM88.4811 35.5229C88.8698 35.8833 89.1935 36.3736 89.4415 37.0132L90.3739 36.6516C90.0821 35.8991 89.6814 35.2721 89.161 34.7896L88.4811 35.5229ZM89.4415 37.0131C89.6825 37.6347 89.8125 38.4262 89.8125 39.4034H90.8125C90.8125 38.3446 90.6726 37.4221 90.3739 36.6516L89.4415 37.0131ZM89.8125 39.4034V40.1136H90.8125V39.4034H89.8125ZM90.3125 39.6136H81.9034V40.6136H90.3125V39.6136ZM82.4034 40.1136V38.6648H81.4034V40.1136H82.4034ZM81.9034 39.1648H88.608V38.1648H81.9034V39.1648ZM89.108 38.6648C89.108 37.9811 88.9708 37.3522 88.6841 36.79L87.7932 37.2441C87.9989 37.6478 88.108 38.1174 88.108 38.6648H89.108ZM88.6859 36.7934C88.4039 36.2295 87.9955 35.778 87.4655 35.4488L86.9379 36.2983C87.3075 36.5279 87.5904 36.8387 87.7914 37.2407L88.6859 36.7934ZM87.4675 35.4501C86.9312 35.1135 86.3104 34.9545 85.625 34.9545V35.9545C86.1517 35.9545 86.5821 36.075 86.9359 36.2971L87.4675 35.4501ZM85.625 34.9545C84.8709 34.9545 84.1922 35.1431 83.611 35.5382L84.1731 36.3652C84.5672 36.0974 85.0439 35.9545 85.625 35.9545V34.9545ZM83.6119 35.5376C83.0569 35.913 82.6275 36.4055 82.329 37.0081L83.225 37.4521C83.4473 37.0035 83.7613 36.6438 84.1722 36.3658L83.6119 35.5376ZM82.329 37.0081C82.0335 37.6045 81.8864 38.2441 81.8864 38.9205H82.8864C82.8864 38.3941 82.9997 37.9069 83.225 37.4521L82.329 37.0081ZM81.8864 38.9205V39.8864H82.8864V38.9205H81.8864ZM81.8864 39.8864C81.8864 40.7658 82.0378 41.5447 82.3645 42.2037L83.2605 41.7594C83.019 41.2725 82.8864 40.6546 82.8864 39.8864H81.8864ZM82.3668 42.2081C82.6957 42.8551 83.1601 43.3627 83.7608 43.7131L84.2647 42.8494C83.8427 42.6032 83.507 42.2444 83.2582 41.755L82.3668 42.2081ZM83.7639 43.7149C84.3616 44.058 85.0442 44.2216 85.7955 44.2216V43.2216C85.1926 43.2216 84.6867 43.0916 84.2617 42.8476L83.7639 43.7149ZM85.7955 44.2216C86.2822 44.2216 86.7365 44.1535 87.1524 44.0093L86.8249 43.0645C86.5306 43.1665 86.1894 43.2216 85.7955 43.2216V44.2216ZM87.156 44.0081C87.5791 43.8578 87.9515 43.6319 88.266 43.3288L87.5721 42.6087C87.3658 42.8075 87.1178 42.9604 86.8213 43.0658L87.156 44.0081ZM88.2693 43.3255C88.5872 43.0135 88.826 42.6322 88.9909 42.1926L88.0546 41.8415C87.9353 42.1595 87.7717 42.4127 87.5687 42.612L88.2693 43.3255ZM88.3876 42.4984L90.0069 42.953L90.2772 41.9902L88.6579 41.5357L88.3876 42.4984ZM89.6645 42.3234C89.5174 42.7974 89.2716 43.2122 88.923 43.5731L89.6423 44.2678C90.0987 43.7953 90.4258 43.2443 90.6196 42.6198L89.6645 42.3234ZM88.925 43.571C88.577 43.9273 88.1415 44.212 87.6087 44.4209L87.9737 45.3519C88.6246 45.0967 89.1834 44.7375 89.6403 44.2699L88.925 43.571ZM87.612 44.4196C87.0859 44.6216 86.4828 44.7273 85.7955 44.7273V45.7273C86.5854 45.7273 87.3128 45.6057 87.9704 45.3531L87.612 44.4196ZM97.6065 34.0909H98.1065V33.5909H97.6065V34.0909ZM97.6065 35.5114V36.0114H98.1065V35.5114H97.6065ZM91.9531 35.5114H91.4531V36.0114H91.9531V35.5114ZM91.9531 34.0909V33.5909H91.4531V34.0909H91.9531ZM93.6009 31.4773V30.9773H93.1009V31.4773H93.6009ZM95.277 31.4773H95.777V30.9773H95.277V31.4773ZM95.483 42.9403L95.0503 43.1913L95.0565 43.2014L95.483 42.9403ZM96.0227 43.4091L95.8493 43.8782L95.8616 43.8824L96.0227 43.4091ZM97.1804 43.4943L97.2594 43.988L97.269 43.9865L97.2785 43.9846L97.1804 43.4943ZM97.4645 43.4375L97.9521 43.3271L97.8445 42.8516L97.3664 42.9472L97.4645 43.4375ZM97.8054 44.9432L97.981 45.4113L98.3894 45.2582L98.2931 44.8328L97.8054 44.9432ZM97.3295 45.071L97.2271 44.5815L97.2163 44.584L97.3295 45.071ZM95.1634 44.8366L94.9572 45.2922L94.959 45.293L95.1634 44.8366ZM94.0412 43.9062L93.6324 44.1942L93.6346 44.1973L94.0412 43.9062ZM97.1065 34.0909V35.5114H98.1065V34.0909H97.1065ZM97.6065 35.0114H91.9531V36.0114H97.6065V35.0114ZM92.4531 35.5114V34.0909H91.4531V35.5114H92.4531ZM91.9531 34.5909H97.6065V33.5909H91.9531V34.5909ZM93.6009 31.9773H95.277V30.9773H93.6009V31.9773ZM94.777 31.4773V41.875H95.777V31.4773H94.777ZM94.777 41.875C94.777 42.3804 94.8474 42.8411 95.0504 43.1912L95.9155 42.6895C95.8439 42.5661 95.777 42.3165 95.777 41.875H94.777ZM95.0565 43.2014C95.2467 43.5121 95.5089 43.7522 95.8494 43.8781L96.1961 42.9401C96.101 42.905 96.0033 42.8326 95.9094 42.6793L95.0565 43.2014ZM95.8616 43.8824C96.1384 43.9767 96.4274 44.0227 96.7259 44.0227V43.0227C96.5318 43.0227 96.3521 42.993 96.1839 42.9358L95.8616 43.8824ZM96.7259 44.0227C96.9245 44.0227 97.1049 44.0128 97.2594 43.988L97.1014 43.0006C97.0191 43.0138 96.8966 43.0227 96.7259 43.0227V44.0227ZM97.2785 43.9846C97.3968 43.9609 97.4915 43.942 97.5625 43.9278L97.3664 42.9472C97.2954 42.9614 97.2007 42.9804 97.0823 43.004L97.2785 43.9846ZM96.9768 43.5479L97.3177 45.0536L98.2931 44.8328L97.9521 43.3271L96.9768 43.5479ZM97.6298 44.475C97.5509 44.5046 97.4207 44.5411 97.2271 44.5816L97.432 45.5604C97.6456 45.5157 97.8326 45.467 97.981 45.4113L97.6298 44.475ZM97.2163 44.584C97.0632 44.6196 96.8466 44.642 96.5554 44.642V45.642C96.8892 45.642 97.1887 45.6171 97.4428 45.558L97.2163 44.584ZM96.5554 44.642C96.156 44.642 95.7614 44.5567 95.3677 44.3803L94.959 45.293C95.4744 45.5238 96.0078 45.642 96.5554 45.642V44.642ZM95.3695 44.3811C95.0029 44.2152 94.6969 43.9632 94.4477 43.6152L93.6346 44.1973C93.9821 44.6826 94.4242 45.0509 94.9572 45.2922L95.3695 44.3811ZM94.4499 43.6183C94.2289 43.3046 94.1009 42.8864 94.1009 42.3295H93.1009C93.1009 43.0417 93.2664 43.6746 93.6325 44.1942L94.4499 43.6183ZM94.1009 42.3295V31.4773H93.1009V42.3295H94.1009ZM6.09008 54.4V53.9H5.59008V54.4H6.09008ZM17.7301 54.4H18.2301V53.9H17.7301V54.4ZM17.7301 55.74V56.24H18.2301V55.74H17.7301ZM6.09008 55.74H5.59008V56.24H6.09008V55.74ZM4.33008 66.54V66.04H3.83008V66.54H4.33008ZM20.6701 66.54H21.1701V66.04H20.6701V66.54ZM20.6701 67.92V68.42H21.1701V67.92H20.6701ZM4.33008 67.92H3.83008V68.42H4.33008V67.92ZM16.8501 54.4V53.9H16.3501V54.4H16.8501ZM18.4701 54.4H18.9701V53.9H18.4701V54.4ZM17.7901 65L17.7421 65.4977L18.2031 65.5421L18.2826 65.0859L17.7901 65ZM16.1301 64.84L15.6393 64.7445L15.5341 65.2849L16.0821 65.3377L16.1301 64.84ZM6.09008 54.9H17.7301V53.9H6.09008V54.9ZM17.2301 54.4V55.74H18.2301V54.4H17.2301ZM17.7301 55.24H6.09008V56.24H17.7301V55.24ZM6.59008 55.74V54.4H5.59008V55.74H6.59008ZM4.33008 67.04H20.6701V66.04H4.33008V67.04ZM20.1701 66.54V67.92H21.1701V66.54H20.1701ZM20.6701 67.42H4.33008V68.42H20.6701V67.42ZM4.83008 67.92V66.54H3.83008V67.92H4.83008ZM16.8501 54.9H18.4701V53.9H16.8501V54.9ZM17.9701 54.4V56.2H18.9701V54.4H17.9701ZM17.9701 56.2C17.9701 58.5118 17.97 61.0573 17.2975 64.9141L18.2826 65.0859C18.9702 61.1427 18.9701 58.5282 18.9701 56.2H17.9701ZM17.838 64.5023L16.178 64.3423L16.0821 65.3377L17.7421 65.4977L17.838 64.5023ZM16.6209 64.9355C17.3505 61.1862 17.3501 58.4465 17.3501 56.2H16.3501C16.3501 58.4335 16.3497 61.0938 15.6393 64.7445L16.6209 64.9355ZM17.3501 56.2V54.4H16.3501V56.2H17.3501ZM35.8885 52.46V51.96H35.3885V52.46H35.8885ZM37.5485 52.46H38.0485V51.96H37.5485V52.46ZM37.5485 70.58V71.08H38.0485V70.58H37.5485ZM35.8885 70.58H35.3885V71.08H35.8885V70.58ZM23.7685 64.84V64.34H23.2685V64.84H23.7685ZM34.1885 64.2L34.6842 64.1344L34.6166 63.6239L34.1083 63.7065L34.1885 64.2ZM34.3685 65.56L34.4497 66.0534L34.9278 65.9747L34.8642 65.4944L34.3685 65.56ZM23.7685 66.22H23.2685V66.72H23.7685V66.22ZM23.7285 54.16V53.66H23.2285V54.16H23.7285ZM32.0885 54.16H32.5885V53.66H32.0885V54.16ZM32.0885 60.62V61.12H32.5885V60.62H32.0885ZM25.4285 60.62V60.12H24.9285V60.62H25.4285ZM25.4285 65.36V65.86H25.9285V65.36H25.4285ZM23.7685 65.36H23.2685V65.86H23.7685V65.36ZM23.7685 59.26V58.76H23.2685V59.26H23.7685ZM30.4085 59.26V59.76H30.9085V59.26H30.4085ZM30.4085 55.52H30.9085V55.02H30.4085V55.52ZM23.7285 55.52H23.2285V56.02H23.7285V55.52ZM35.8885 52.96H37.5485V51.96H35.8885V52.96ZM37.0485 52.46V70.58H38.0485V52.46H37.0485ZM37.5485 70.08H35.8885V71.08H37.5485V70.08ZM36.3885 70.58V52.46H35.3885V70.58H36.3885ZM23.7685 65.34H25.2685V64.34H23.7685V65.34ZM25.2685 65.34C28.3042 65.34 31.0331 65.2193 34.2687 64.6935L34.1083 63.7065C30.9439 64.2207 28.2728 64.34 25.2685 64.34V65.34ZM33.6928 64.2656L33.8728 65.6256L34.8642 65.4944L34.6842 64.1344L33.6928 64.2656ZM34.2873 65.0666C31.0435 65.6007 28.3528 65.72 25.2685 65.72V66.72C28.3842 66.72 31.1335 66.5993 34.4497 66.0534L34.2873 65.0666ZM25.2685 65.72H23.7685V66.72H25.2685V65.72ZM24.2685 66.22V64.84H23.2685V66.22H24.2685ZM23.7285 54.66H32.0885V53.66H23.7285V54.66ZM31.5885 54.16V60.62H32.5885V54.16H31.5885ZM32.0885 60.12H25.4285V61.12H32.0885V60.12ZM24.9285 60.62V65.36H25.9285V60.62H24.9285ZM25.4285 64.86H23.7685V65.86H25.4285V64.86ZM24.2685 65.36V59.26H23.2685V65.36H24.2685ZM23.7685 59.76H30.4085V58.76H23.7685V59.76ZM30.9085 59.26V55.52H29.9085V59.26H30.9085ZM30.4085 55.02H23.7285V56.02H30.4085V55.02ZM24.2285 55.52V54.16H23.2285V55.52H24.2285ZM42.847 54.28V53.78H42.347V54.28H42.847ZM54.487 54.28H54.987V53.78H54.487V54.28ZM54.487 55.66V56.16H54.987V55.66H54.487ZM42.847 55.66H42.347V56.16H42.847V55.66ZM41.127 66.66V66.16H40.627V66.66H41.127ZM57.467 66.66H57.967V66.16H57.467V66.66ZM57.467 68.04V68.54H57.967V68.04H57.467ZM41.127 68.04H40.627V68.54H41.127V68.04ZM47.467 60.2V59.7H46.967V60.2H47.467ZM49.127 60.2H49.627V59.7H49.127V60.2ZM49.127 67.34V67.84H49.627V67.34H49.127ZM47.467 67.34H46.967V67.84H47.467V67.34ZM53.867 54.28V53.78H53.367V54.28H53.867ZM55.507 54.28H56.007V53.78H55.507V54.28ZM54.847 64.46L54.7813 64.9557L55.2543 65.0184L55.339 64.5487L54.847 64.46ZM53.187 64.24L52.6963 64.1436L52.5937 64.6657L53.1213 64.7357L53.187 64.24ZM42.847 54.78H54.487V53.78H42.847V54.78ZM53.987 54.28V55.66H54.987V54.28H53.987ZM54.487 55.16H42.847V56.16H54.487V55.16ZM43.347 55.66V54.28H42.347V55.66H43.347ZM41.127 67.16H57.467V66.16H41.127V67.16ZM56.967 66.66V68.04H57.967V66.66H56.967ZM57.467 67.54H41.127V68.54H57.467V67.54ZM41.627 68.04V66.66H40.627V68.04H41.627ZM47.467 60.7H49.127V59.7H47.467V60.7ZM48.627 60.2V67.34H49.627V60.2H48.627ZM49.127 66.84H47.467V67.84H49.127V66.84ZM47.967 67.34V60.2H46.967V67.34H47.967ZM53.867 54.78H55.507V53.78H53.867V54.78ZM55.007 54.28V56.08H56.007V54.28H55.007ZM55.007 56.08C55.007 58.3124 55.0068 60.7563 54.3549 64.3713L55.339 64.5487C56.0071 60.8437 56.007 58.3276 56.007 56.08H55.007ZM54.9126 63.9643L53.2526 63.7443L53.1213 64.7357L54.7813 64.9557L54.9126 63.9643ZM53.6776 64.3364C54.3674 60.8264 54.367 58.246 54.367 56.08H53.367C53.367 58.234 53.3665 60.7336 52.6963 64.1436L53.6776 64.3364ZM54.367 56.08V54.28H53.367V56.08H54.367ZM67.4743 68.5028L67.2006 68.9213L67.2006 68.9213L67.4743 68.5028ZM65.7839 60.669L65.3337 60.4514L65.3332 60.4525L65.7839 60.669ZM67.5027 58.6733L67.7756 59.0922L67.7763 59.0918L67.5027 58.6733ZM73.6745 59.5682L74.071 59.2635L74.071 59.2635L73.6745 59.5682ZM74.4061 61.358V61.858H74.9803L74.9013 61.2892L74.4061 61.358ZM72.7299 61.358L72.2457 61.4825L72.3422 61.858H72.7299V61.358ZM71.8777 60.0369L71.545 60.4102L71.5493 60.414L71.8777 60.0369ZM68.3975 59.9659L68.6813 60.3776L68.6822 60.377L68.3975 59.9659ZM67.2541 61.3935L66.7975 61.1897L66.7967 61.1914L67.2541 61.3935ZM67.247 65.7472L66.7867 65.9424L66.788 65.9454L67.247 65.7472ZM68.3833 67.2031L68.0942 67.6111L68.0961 67.6124L68.3833 67.2031ZM71.3024 67.4943L71.1062 67.0344L71.1062 67.0344L71.3024 67.4943ZM72.2044 66.8409L72.5822 67.1684L72.5822 67.1684L72.2044 66.8409ZM72.7299 65.8182V65.3182H72.344L72.2463 65.6915L72.7299 65.8182ZM74.4061 65.8182L74.9008 65.8909L74.985 65.3182H74.4061V65.8182ZM73.7029 67.5582L73.2981 67.2648L73.2976 67.2655L73.7029 67.5582ZM72.2328 68.7798L72.4536 69.2284L72.455 69.2277L72.2328 68.7798ZM70.1163 68.7273C69.175 68.7273 68.3929 68.5061 67.7479 68.0844L67.2006 68.9213C68.0329 69.4655 69.0122 69.7273 70.1163 69.7273V68.7273ZM67.7479 68.0844C67.0917 67.6553 66.5832 67.0636 66.2223 66.2947L65.3171 66.7195C65.7517 67.6457 66.3796 68.3845 67.2006 68.9213L67.7479 68.0844ZM66.2223 66.2947C65.8605 65.5236 65.6731 64.6298 65.6731 63.6023H64.6731C64.6731 64.7528 64.8835 65.7955 65.3171 66.7195L66.2223 66.2947ZM65.6731 63.6023C65.6731 62.556 65.8652 61.6545 66.2346 60.8856L65.3332 60.4525C64.8883 61.3786 64.6731 62.4326 64.6731 63.6023H65.6731ZM66.2341 60.8866C66.6097 60.1095 67.1242 59.5167 67.7756 59.0922L67.2297 58.2544C66.4134 58.7863 65.782 59.524 65.3337 60.4514L66.2341 60.8866ZM67.7763 59.0918C68.4243 58.6681 69.1886 58.4489 70.0879 58.4489V57.4489C69.0175 57.4489 68.0583 57.7126 67.229 58.2548L67.7763 59.0918ZM70.0879 58.4489C70.7921 58.4489 71.4105 58.579 71.9522 58.829L72.3713 57.921C71.6819 57.6029 70.9178 57.4489 70.0879 57.4489V58.4489ZM71.9522 58.829C72.4982 59.081 72.9369 59.429 73.2781 59.8729L74.071 59.2635C73.6261 58.6847 73.0564 58.2372 72.3713 57.921L71.9522 58.829ZM73.2781 59.8729C73.6147 60.3109 73.8272 60.8248 73.9108 61.4267L74.9013 61.2892C74.7955 60.5275 74.5204 59.8482 74.071 59.2635L73.2781 59.8729ZM74.4061 60.858H72.7299V61.858H74.4061V60.858ZM73.2142 61.2334C73.0578 60.6252 72.7118 60.1004 72.2061 59.6599L71.5493 60.414C71.9242 60.7405 72.1464 61.0964 72.2457 61.4825L73.2142 61.2334ZM72.2103 59.6637C71.6608 59.1738 70.9439 58.9545 70.1163 58.9545V59.9545C70.766 59.9545 71.2233 60.1235 71.545 60.4102L72.2103 59.6637ZM70.1163 58.9545C69.3709 58.9545 68.6966 59.1507 68.1129 59.5548L68.6822 60.377C69.0833 60.0993 69.5549 59.9545 70.1163 59.9545V58.9545ZM68.1138 59.5542C67.5405 59.9494 67.1042 60.5022 66.7975 61.1897L67.7107 61.5972C67.9532 61.0537 68.2792 60.6547 68.6813 60.3776L68.1138 59.5542ZM66.7967 61.1914C66.493 61.8789 66.3493 62.6678 66.3493 63.5455H67.3493C67.3493 62.7754 67.4754 62.1296 67.7114 61.5955L66.7967 61.1914ZM66.3493 63.5455C66.3493 64.4397 66.4898 65.2427 66.7867 65.9424L67.7073 65.5519C67.4738 65.0016 67.3493 64.3369 67.3493 63.5455H66.3493ZM66.788 65.9454C67.089 66.6426 67.5218 67.2054 68.0942 67.6111L68.6725 66.7952C68.2695 66.5096 67.9447 66.1017 67.706 65.5489L66.788 65.9454ZM68.0961 67.6124C68.6812 68.0231 69.3616 68.2216 70.1163 68.2216V67.2216C69.5453 67.2216 69.0703 67.0745 68.6706 66.7939L68.0961 67.6124ZM70.1163 68.2216C70.6107 68.2216 71.074 68.1354 71.4986 67.9542L71.1062 67.0344C70.8206 67.1563 70.4931 67.2216 70.1163 67.2216V68.2216ZM71.4986 67.9542C71.9216 67.7737 72.2849 67.5114 72.5822 67.1684L71.8265 66.5134C71.6314 66.7386 71.3934 66.9119 71.1062 67.0344L71.4986 67.9542ZM72.5822 67.1684C72.8832 66.8211 73.0919 66.4097 73.2136 65.9449L72.2463 65.6915C72.1597 66.0221 72.018 66.2926 71.8265 66.5134L72.5822 67.1684ZM72.7299 66.3182H74.4061V65.3182H72.7299V66.3182ZM73.9114 65.7454C73.8282 66.3114 73.6238 66.8154 73.2981 67.2648L74.1078 67.8517C74.5302 67.2689 74.7946 66.6128 74.9008 65.8909L73.9114 65.7454ZM73.2976 67.2655C72.9796 67.7058 72.5547 68.062 72.0106 68.3319L72.455 69.2277C73.1325 68.8916 73.6876 68.4334 74.1083 67.851L73.2976 67.2655ZM72.012 68.3312C71.4866 68.5898 70.8592 68.7273 70.1163 68.7273V69.7273C70.9833 69.7273 71.7669 69.5664 72.4536 69.2284L72.012 68.3312ZM78.6958 68.5241L78.4279 68.9463L78.4292 68.9471L78.6958 68.5241ZM76.9629 66.5568L76.5137 66.7764L76.5147 66.7784L76.9629 66.5568ZM76.9629 60.6264L76.5142 60.4058L76.5132 60.4079L76.9629 60.6264ZM78.6958 58.652L78.4292 58.2291L78.4279 58.2298L78.6958 58.652ZM83.8734 58.652L83.6055 59.0742L83.6067 59.0749L83.8734 58.652ZM85.6064 60.6264L85.1567 60.845L85.1576 60.847L85.6064 60.6264ZM85.6064 66.5568L85.1581 66.3352L85.1571 66.3373L85.6064 66.5568ZM83.8734 68.5241L83.6067 68.1012L83.6055 68.102L83.8734 68.5241ZM83.1348 67.1463L82.8238 66.7548L82.8238 66.7548L83.1348 67.1463ZM84.2072 65.6335L84.676 65.8075L84.676 65.8075L84.2072 65.6335ZM84.2072 61.5639L84.6764 61.3911L84.6764 61.3911L84.2072 61.5639ZM83.1348 60.0369L83.448 59.6472L83.448 59.6472L83.1348 60.0369ZM79.4416 60.0369L79.1283 59.6472L79.1283 59.6472L79.4416 60.0369ZM78.3691 61.5639L77.9 61.3911L77.9 61.3911L78.3691 61.5639ZM78.3691 65.6335L77.9004 65.8075L77.9004 65.8075L78.3691 65.6335ZM79.4416 67.1463L79.7525 66.7548L79.7525 66.7548L79.4416 67.1463ZM81.2882 68.7273C80.386 68.7273 79.6167 68.5137 78.9625 68.1012L78.4292 68.9471C79.2617 69.4721 80.2207 69.7273 81.2882 69.7273V68.7273ZM78.9638 68.102C78.3082 67.686 77.7903 67.1023 77.4111 66.3352L76.5147 66.7784C76.9688 67.697 77.6062 68.4248 78.4279 68.9463L78.9638 68.102ZM77.4121 66.3373C77.0397 65.5752 76.845 64.6682 76.845 63.6023H75.845C75.845 64.7901 76.0623 65.8528 76.5137 66.7764L77.4121 66.3373ZM76.845 63.6023C76.845 62.5263 77.0399 61.6118 77.4126 60.845L76.5132 60.4079C76.062 61.3361 75.845 62.4056 75.845 63.6023H76.845ZM77.4116 60.847C77.791 60.0752 78.309 59.4897 78.9638 59.0742L78.4279 58.2298C77.6055 58.7518 76.9681 59.4826 76.5142 60.4058L77.4116 60.847ZM78.9625 59.0749C79.6167 58.6624 80.386 58.4489 81.2882 58.4489V57.4489C80.2207 57.4489 79.2617 57.704 78.4292 58.2291L78.9625 59.0749ZM81.2882 58.4489C82.1904 58.4489 82.9567 58.6624 83.6055 59.0742L84.1413 58.2298C83.3128 57.704 82.3556 57.4489 81.2882 57.4489V58.4489ZM83.6067 59.0749C84.2655 59.4903 84.7824 60.075 85.1567 60.845L86.0561 60.4079C85.6064 59.4828 84.9681 58.7511 84.1401 58.2291L83.6067 59.0749ZM85.1576 60.847C85.5344 61.6133 85.7314 62.527 85.7314 63.6023H86.7314C86.7314 62.4048 86.5117 61.3346 86.0551 60.4058L85.1576 60.847ZM85.7314 63.6023C85.7314 64.6674 85.5346 65.5737 85.1581 66.3352L86.0546 66.7784C86.5114 65.8543 86.7314 64.7909 86.7314 63.6023H85.7314ZM85.1571 66.3373C84.7831 67.1025 84.2662 67.6854 83.6067 68.1012L84.1401 68.9471C84.9674 68.4254 85.6057 67.6967 86.0556 66.7764L85.1571 66.3373ZM83.6055 68.102C82.9567 68.5137 82.1904 68.7273 81.2882 68.7273V69.7273C82.3556 69.7273 83.3128 69.4721 84.1413 68.9463L83.6055 68.102ZM81.2882 68.2216C82.1244 68.2216 82.8567 68.0056 83.4457 67.5379L82.8238 66.7548C82.447 67.054 81.9482 67.2216 81.2882 67.2216V68.2216ZM83.4457 67.5379C84.0059 67.093 84.4149 66.5109 84.676 65.8075L83.7385 65.4595C83.5355 66.0061 83.2295 66.4326 82.8238 66.7548L83.4457 67.5379ZM84.676 65.8075C84.9305 65.1219 85.0552 64.3853 85.0552 63.6023H84.0552C84.0552 64.2776 83.9479 64.8952 83.7385 65.4595L84.676 65.8075ZM85.0552 63.6023C85.0552 62.8192 84.9305 62.0808 84.6764 61.3911L83.738 61.7368C83.948 62.3066 84.0552 62.927 84.0552 63.6023H85.0552ZM84.6764 61.3911C84.4157 60.6836 84.0075 60.097 83.448 59.6472L82.8215 60.4266C83.2279 60.7534 83.5347 61.1848 83.738 61.7368L84.6764 61.3911ZM83.448 59.6472C82.8589 59.1736 82.1258 58.9545 81.2882 58.9545V59.9545C81.9468 59.9545 82.4447 60.1237 82.8215 60.4266L83.448 59.6472ZM81.2882 58.9545C80.4506 58.9545 79.7174 59.1736 79.1283 59.6472L79.7549 60.4266C80.1317 60.1237 80.6296 59.9545 81.2882 59.9545V58.9545ZM79.1283 59.6472C78.5689 60.097 78.1606 60.6836 77.9 61.3911L78.8383 61.7368C79.0417 61.1848 79.3484 60.7534 79.7549 60.4266L79.1283 59.6472ZM77.9 61.3911C77.6459 62.0808 77.5211 62.8192 77.5211 63.6023H78.5211C78.5211 62.927 78.6284 62.3066 78.8383 61.7368L77.9 61.3911ZM77.5211 63.6023C77.5211 64.3853 77.6459 65.1219 77.9004 65.8075L78.8379 65.4595C78.6284 64.8952 78.5211 64.2776 78.5211 63.6023H77.5211ZM77.9004 65.8075C78.1615 66.5109 78.5704 67.093 79.1306 67.5379L79.7525 66.7548C79.3468 66.4326 79.0408 66.0061 78.8379 65.4595L77.9004 65.8075ZM79.1306 67.5379C79.7197 68.0056 80.452 68.2216 81.2882 68.2216V67.2216C80.6282 67.2216 80.1294 67.054 79.7525 66.7548L79.1306 67.5379ZM90.4661 69V69.5H90.9661V69H90.4661ZM88.79 69H88.29V69.5H88.79V69ZM88.79 58.0909V57.5909H88.29V58.0909H88.79ZM90.4093 58.0909H90.9093V57.5909H90.4093V58.0909ZM90.4093 59.7955H89.9093V60.2955H90.4093V59.7955ZM90.5513 59.7955V60.2955H90.8712L91.0053 60.005L90.5513 59.7955ZM91.7161 58.4602L91.9872 58.8803L91.9899 58.8786L91.7161 58.4602ZM95.6721 58.4034L95.4321 58.8421L95.435 58.8436L95.6721 58.4034ZM96.9647 59.767L96.5181 59.992L96.5189 59.9934L96.9647 59.767ZM97.4263 69V69.5H97.9263V69H97.4263ZM95.7502 69H95.2502V69.5H95.7502V69ZM95.0826 60.179L94.7149 60.5178L94.7166 60.5196L95.0826 60.179ZM91.8155 59.8026L91.5744 59.3645L91.5723 59.3657L91.8155 59.8026ZM90.8283 60.8182L90.3888 60.5797L90.3888 60.5797L90.8283 60.8182ZM89.9661 62.4375V69H90.9661V62.4375H89.9661ZM90.4661 68.5H88.79V69.5H90.4661V68.5ZM89.29 69V58.0909H88.29V69H89.29ZM88.79 58.5909H90.4093V57.5909H88.79V58.5909ZM89.9093 58.0909V59.7955H90.9093V58.0909H89.9093ZM90.4093 60.2955H90.5513V59.2955H90.4093V60.2955ZM91.0053 60.005C91.2206 59.5386 91.5447 59.1659 91.9872 58.8803L91.4449 58.0401C90.8458 58.4269 90.3934 58.9444 90.0973 59.5859L91.0053 60.005ZM91.9899 58.8786C92.4069 58.6056 92.9757 58.4489 93.7331 58.4489V57.4489C92.8429 57.4489 92.0669 57.633 91.4423 58.0419L91.9899 58.8786ZM93.7331 58.4489C94.4022 58.4489 94.9633 58.5856 95.4321 58.8421L95.912 57.9647C95.2729 57.6151 94.5413 57.4489 93.7331 57.4489V58.4489ZM95.435 58.8436C95.8908 59.0891 96.2523 59.4644 96.5181 59.992L97.4112 59.5421C97.0615 58.8481 96.5612 58.3143 95.9091 57.9632L95.435 58.8436ZM96.5189 59.9934C96.7804 60.5085 96.9263 61.1915 96.9263 62.0682H97.9263C97.9263 61.0888 97.7644 60.2377 97.4105 59.5407L96.5189 59.9934ZM96.9263 62.0682V69H97.9263V62.0682H96.9263ZM97.4263 68.5H95.7502V69.5H97.4263V68.5ZM96.2502 69V62.1818H95.2502V69H96.2502ZM96.2502 62.1818C96.2502 61.2389 96.0039 60.435 95.4486 59.8383L94.7166 60.5196C95.0514 60.8794 95.2502 61.4107 95.2502 62.1818H96.2502ZM95.4502 59.8401C94.8932 59.2357 94.1386 58.9545 93.2502 58.9545V59.9545C93.9148 59.9545 94.3818 60.1564 94.7149 60.5178L95.4502 59.8401ZM93.2502 58.9545C92.6405 58.9545 92.0777 59.0875 91.5744 59.3646L92.0567 60.2406C92.3962 60.0536 92.7898 59.9545 93.2502 59.9545V58.9545ZM91.5723 59.3657C91.0675 59.6468 90.6726 60.0566 90.3888 60.5797L91.2678 61.0566C91.4669 60.6896 91.7302 60.4223 92.0588 60.2394L91.5723 59.3657ZM90.3888 60.5797C90.0988 61.1143 89.9661 61.7404 89.9661 62.4375H90.9661C90.9661 61.8656 91.0748 61.4122 91.2678 61.0566L90.3888 60.5797ZM108.216 60.5341L108.353 61.0152L108.857 60.8724L108.69 60.3751L108.216 60.5341ZM106.711 60.9602L106.243 61.1368L106.405 61.5664L106.847 61.4413L106.711 60.9602ZM106.292 60.2287L105.891 60.5275L105.897 60.5362L106.292 60.2287ZM105.553 59.6321L105.777 59.1849L105.777 59.1849L105.553 59.6321ZM102.684 59.8594L102.967 60.2713L102.968 60.2706L102.684 59.8594ZM102.478 62.0043L102.166 62.3953L102.166 62.3953L102.478 62.0043ZM103.898 62.608L103.777 63.093L103.779 63.0935L103.898 62.608ZM105.518 63.0057L105.398 63.4913L105.4 63.4916L105.518 63.0057ZM107.698 64.0923L107.341 64.4424L107.343 64.4441L107.698 64.0923ZM107.876 67.6364L107.472 67.3413L107.47 67.3439L107.876 67.6364ZM101.391 68.5028L101.667 68.086L101.667 68.086L101.391 68.5028ZM100.006 66.3864L99.8849 65.9013L99.4183 66.0179L99.5168 66.4887L100.006 66.3864ZM101.597 65.9886L102.081 65.8637L101.957 65.3832L101.476 65.5036L101.597 65.9886ZM102.456 67.3097L102.171 67.7199L102.173 67.7214L102.456 67.3097ZM105.986 67.2528L106.279 67.6583L106.28 67.6577L105.986 67.2528ZM106.285 65.0938L105.934 65.4505L105.938 65.4537L106.285 65.0938ZM105.063 64.5114L104.949 64.9982L104.95 64.9983L105.063 64.5114ZM103.245 64.0852L103.13 64.5718L103.131 64.572L103.245 64.0852ZM101.043 62.9844L100.676 63.3238L100.679 63.3274L101.043 62.9844ZM100.866 59.4688L100.464 59.1713L100.462 59.1739L100.866 59.4688ZM102.293 58.3537L102.09 57.8969L102.088 57.8975L102.293 58.3537ZM106.895 58.6591L106.591 59.0554L106.592 59.0565L106.895 58.6591ZM108.08 60.053L106.575 60.4791L106.847 61.4413L108.353 61.0152L108.08 60.053ZM107.179 60.7837C107.064 60.4804 106.898 60.1929 106.686 59.9212L105.897 60.5362C106.055 60.7379 106.168 60.9382 106.243 61.1368L107.179 60.7837ZM106.693 59.93C106.459 59.6165 106.148 59.3705 105.777 59.1849L105.329 60.0793C105.583 60.2062 105.765 60.358 105.891 60.5274L106.693 59.93ZM105.777 59.1849C105.373 58.983 104.889 58.8977 104.353 58.8977V59.8977C104.792 59.8977 105.108 59.9687 105.329 60.0793L105.777 59.1849ZM104.353 58.8977C103.608 58.8977 102.946 59.0703 102.399 59.4481L102.968 60.2706C103.312 60.0329 103.763 59.8977 104.353 59.8977V58.8977ZM102.4 59.4475C101.846 59.8286 101.523 60.3586 101.523 61.017H102.523C102.523 60.738 102.64 60.4962 102.967 60.2713L102.4 59.4475ZM101.523 61.017C101.523 61.5728 101.734 62.051 102.166 62.3953L102.789 61.6132C102.615 61.4745 102.523 61.2947 102.523 61.017H101.523ZM102.166 62.3953C102.552 62.7024 103.106 62.9253 103.777 63.093L104.02 62.1229C103.402 61.9686 103.01 61.789 102.789 61.6132L102.166 62.3953ZM103.779 63.0935L105.398 63.4913L105.637 62.5201L104.018 62.1224L103.779 63.0935ZM105.4 63.4916C106.324 63.716 106.952 64.0458 107.341 64.4424L108.055 63.7423C107.487 63.1635 106.662 62.7689 105.636 62.5198L105.4 63.4916ZM107.343 64.4441C107.717 64.8217 107.915 65.3122 107.915 65.9602H108.915C108.915 65.0836 108.636 64.3288 108.053 63.7405L107.343 64.4441ZM107.915 65.9602C107.915 66.482 107.767 66.9368 107.472 67.3414L108.279 67.9314C108.703 67.3511 108.915 66.6885 108.915 65.9602H107.915ZM107.47 67.3439C107.174 67.7542 106.752 68.0905 106.181 68.3442L106.587 69.258C107.295 68.9436 107.867 68.5033 108.281 67.9288L107.47 67.3439ZM106.181 68.3442C105.618 68.5946 104.946 68.7273 104.154 68.7273V69.7273C105.057 69.7273 105.872 69.5759 106.587 69.258L106.181 68.3442ZM104.154 68.7273C103.113 68.7273 102.295 68.5017 101.667 68.086L101.115 68.9197C101.946 69.4699 102.97 69.7273 104.154 69.7273V68.7273ZM101.667 68.086C101.058 67.6822 100.665 67.0951 100.496 66.284L99.5168 66.4887C99.7354 67.5337 100.266 68.3576 101.115 68.9197L101.667 68.086ZM100.127 66.8714L101.718 66.4737L101.476 65.5036L99.8849 65.9013L100.127 66.8714ZM101.113 66.1136C101.289 66.7945 101.634 67.3461 102.171 67.7199L102.742 66.8994C102.436 66.6861 102.209 66.3571 102.081 65.8637L101.113 66.1136ZM102.173 67.7214C102.706 68.0885 103.37 68.25 104.126 68.25V67.25C103.508 67.25 103.06 67.1179 102.74 66.8979L102.173 67.7214ZM104.126 68.25C104.973 68.25 105.708 68.0706 106.279 67.6583L105.694 66.8474C105.347 67.0979 104.841 67.25 104.126 67.25V68.25ZM106.28 67.6577C106.841 67.251 107.182 66.7108 107.182 66.0455H106.182C106.182 66.3176 106.06 66.5823 105.693 66.8479L106.28 67.6577ZM107.182 66.0455C107.182 65.5352 106.998 65.0867 106.632 64.7338L105.938 65.4537C106.102 65.6122 106.182 65.7981 106.182 66.0455H107.182ZM106.635 64.737C106.279 64.3871 105.772 64.1631 105.176 64.0244L104.95 64.9983C105.452 65.1153 105.76 65.2795 105.934 65.4505L106.635 64.737ZM105.177 64.0246L103.359 63.5984L103.131 64.572L104.949 64.9982L105.177 64.0246ZM103.36 63.5987C102.411 63.3739 101.783 63.0401 101.407 62.6414L100.679 63.3274C101.241 63.923 102.08 64.3231 103.13 64.5718L103.36 63.5987ZM101.41 62.6449C101.041 62.2451 100.847 61.7431 100.847 61.1023H99.8471C99.8471 61.9671 100.118 62.7198 100.676 63.3238L101.41 62.6449ZM100.847 61.1023C100.847 60.5871 100.99 60.147 101.269 59.7636L100.462 59.1739C100.05 59.7375 99.8471 60.3864 99.8471 61.1023H100.847ZM101.268 59.7662C101.561 59.3695 101.965 59.0489 102.498 58.8099L102.088 57.8975C101.418 58.1983 100.871 58.621 100.464 59.1713L101.268 59.7662ZM102.497 58.8105C103.029 58.5732 103.645 58.4489 104.353 58.4489V57.4489C103.527 57.4489 102.769 57.5944 102.09 57.8969L102.497 58.8105ZM104.353 58.4489C105.364 58.4489 106.091 58.671 106.591 59.0554L107.2 58.2628C106.469 57.7002 105.5 57.4489 104.353 57.4489V58.4489ZM106.592 59.0565C107.129 59.4663 107.512 60.0063 107.742 60.6931L108.69 60.3751C108.4 59.5088 107.903 58.7989 107.199 58.2617L106.592 59.0565ZM115.683 58.0909H116.183V57.5909H115.683V58.0909ZM115.683 59.5114V60.0114H116.183V59.5114H115.683ZM110.029 59.5114H109.529V60.0114H110.029V59.5114ZM110.029 58.0909V57.5909H109.529V58.0909H110.029ZM111.677 55.4773V54.9773H111.177V55.4773H111.677ZM113.353 55.4773H113.853V54.9773H113.353V55.4773ZM113.559 66.9403L113.126 67.1913L113.133 67.2014L113.559 66.9403ZM114.099 67.4091L113.926 67.8782L113.938 67.8824L114.099 67.4091ZM115.257 67.4943L115.336 67.988L115.345 67.9865L115.355 67.9846L115.257 67.4943ZM115.541 67.4375L116.028 67.3271L115.921 66.8516L115.443 66.9472L115.541 67.4375ZM115.882 68.9432L116.057 69.4113L116.466 69.2582L116.369 68.8328L115.882 68.9432ZM115.406 69.071L115.303 68.5815L115.292 68.584L115.406 69.071ZM113.24 68.8366L113.033 69.2922L113.035 69.293L113.24 68.8366ZM112.117 67.9062L111.709 68.1942L111.711 68.1973L112.117 67.9062ZM115.183 58.0909V59.5114H116.183V58.0909H115.183ZM115.683 59.0114H110.029V60.0114H115.683V59.0114ZM110.529 59.5114V58.0909H109.529V59.5114H110.529ZM110.029 58.5909H115.683V57.5909H110.029V58.5909ZM111.677 55.9773H113.353V54.9773H111.677V55.9773ZM112.853 55.4773V65.875H113.853V55.4773H112.853ZM112.853 65.875C112.853 66.3804 112.924 66.8411 113.127 67.1912L113.992 66.6895C113.92 66.5661 113.853 66.3165 113.853 65.875H112.853ZM113.133 67.2014C113.323 67.5121 113.585 67.7522 113.926 67.8781L114.272 66.9401C114.177 66.905 114.079 66.8326 113.986 66.6793L113.133 67.2014ZM113.938 67.8824C114.215 67.9767 114.504 68.0227 114.802 68.0227V67.0227C114.608 67.0227 114.428 66.993 114.26 66.9358L113.938 67.8824ZM114.802 68.0227C115.001 68.0227 115.181 68.0128 115.336 67.988L115.178 67.0006C115.095 67.0138 114.973 67.0227 114.802 67.0227V68.0227ZM115.355 67.9846C115.473 67.9609 115.568 67.942 115.639 67.9278L115.443 66.9472C115.372 66.9614 115.277 66.9804 115.159 67.004L115.355 67.9846ZM115.053 67.5479L115.394 69.0536L116.369 68.8328L116.028 67.3271L115.053 67.5479ZM115.706 68.475C115.627 68.5046 115.497 68.5411 115.303 68.5816L115.508 69.5604C115.722 69.5157 115.909 69.467 116.057 69.4113L115.706 68.475ZM115.292 68.584C115.139 68.6196 114.923 68.642 114.632 68.642V69.642C114.965 69.642 115.265 69.6171 115.519 69.558L115.292 68.584ZM114.632 68.642C114.232 68.642 113.838 68.5567 113.444 68.3803L113.035 69.293C113.551 69.5238 114.084 69.642 114.632 69.642V68.642ZM113.446 68.3811C113.079 68.2152 112.773 67.9632 112.524 67.6152L111.711 68.1973C112.058 68.6826 112.5 69.0509 113.033 69.2922L113.446 68.3811ZM112.526 67.6183C112.305 67.3046 112.177 66.8864 112.177 66.3295H111.177C111.177 67.0417 111.343 67.6746 111.709 68.1942L112.526 67.6183ZM112.177 66.3295V55.4773H111.177V66.3295H112.177Z" fill="black" mask="url(#path-2-outside-1_150_20)"/>
</svg>
